<svg data-name="Group 88" xmlns="http://www.w3.org/2000/svg" width="532" height="376.781"><defs><clipPath id="a"><path data-name="Rectangle 68" fill="#fff" d="M0 0h532v376.781H0z"/></clipPath></defs><g data-name="Group 88" clip-path="url(#a)"><path data-name="Path 423" d="M456.176 296.346L0 376.781V93.806L532 0v205.98a91.76 91.76 0 01-75.824 90.366" fill="#a5242c"/><path data-name="Path 424" d="M68.874 182.921l8.407-6.36c2.155 4.878 6.233 6.828 12.148 5.784 5.4-.952 8.2-3.656 8.215-7.013.149-3.914-2.935-4.971-10.522-6.072-5.091-.779-9.154-2.2-12.023-4.206-2.883-2.083-4.322-5.489-4.3-10.142a15.516 15.516 0 014.716-11.732 21.719 21.719 0 0111.634-5.787c8.5-1.5 15.453 1.62 19.406 8.471l-8.11 6.308c-2.6-3.961-6.013-5.57-10.375-4.8-4.141.729-6.685 3.161-6.815 6.308-.175 3.766 2.934 4.971 10.166 6.212 1.891.352 2.818.418 4.736.917a20.9 20.9 0 016.628 2.567c3.164 1.957 5.49 5.2 5.446 11.007-.07 9.54-7.008 16.023-17.876 17.939-10.428 1.837-18.238-1.813-21.481-9.401" fill="#fff"/><path data-name="Path 425" d="M147.747 143.021l-14.6 21.4 15.053 16.631-10.349 1.825-13.637-15.508.033 17.907-9.535 1.682-.033-53.352 9.537-1.682.036 31.322 12.182-18.231z" fill="#fff"/><path data-name="Path 426" d="M175.693 138.092l9.535-1.682.013 38.111-9.535 1.682.035-4.121a14.71 14.71 0 01-10.573 7.047c-4.14.731-7.566-.114-10.342-2.445s-4.1-5.984-4.11-10.785l-.01-23.4 9.535-1.68.025 22.177c0 5.184 2.893 7.342 7.329 6.559 4.511-.795 7.662-4.1 8.129-9.665z" fill="#fff"/><path data-name="Path 427" d="M206.812 142.059l-.024 15.859c.013 3.963 2.208 3.879 8.353 2.415l.046 8.911c-12.158 3.667-17.95.649-17.937-9.643l.025-15.86-6.432 1.134.01-9.454 6.359-1.12.014-7.7 9.547-4.656-.025 10.675 8.429-1.485-.084 9.466z" fill="#fff"/><path data-name="Path 428" d="M256.825 146.883l-27.944 4.928c1.2 4.664 5.144 6.258 10.1 5.384a12.118 12.118 0 008.428-5.374l7.68 4.211c-3.319 5.386-8.445 8.73-15.322 9.942-6.137 1.082-11.132-.019-15-3.376s-5.827-7.968-5.869-13.829a21.367 21.367 0 015.182-14.711 21.836 21.836 0 0113.538-7.951c5.47-.965 10.1.2 13.942 3.411s5.685 7.611 5.615 13.264a14.3 14.3 0 01-.345 4.1m-9.151-6.084c-.961-5.015-4.631-6.806-9.141-6.012-4.952.875-8.4 4.225-9.637 9.323z" fill="#fff"/><path data-name="Path 429" d="M267.636 155.038c-3.871-3.358-5.9-7.954-5.943-13.817a21.794 21.794 0 015.095-14.771 22.391 22.391 0 0113.7-7.9c7.613-1.343 13.9 1.436 17.294 6.86l-7.844 6.108c-1.889-2.943-4.763-4.114-8.608-3.436a12.063 12.063 0 00-7.193 4.164 11.765 11.765 0 00-2.815 7.814c.083 6.086 4.253 9.847 9.944 8.843a10.724 10.724 0 008.293-6.57l8.563 3.6c-2.688 6.8-8.682 11.287-16 12.577-5.692 1-10.54-.123-14.484-3.467" fill="#fff"/><path data-name="Path 430" d="M329.247 111.016l.012 6.552-15.256 25.024 15.969-2.815.025 9.219-29.275 5.162.063-6.566 15.178-25.011-14.491 2.555.049-9.231z" fill="#fff"/><path data-name="Path 431" d="M366.685 107.617c2.774 2.331 4.1 5.984 4.113 10.785l.01 23.4-9.538 1.682-.023-22.178c0-5.182-2.9-7.341-7.331-6.559-4.511.8-7.664 4.1-8.128 9.667l.03 21.8-9.537 1.682-.013-38.111 9.538-1.682-.036 4.123a14.7 14.7 0 0110.573-7.048c4.141-.731 7.567.114 10.341 2.445" fill="#fff"/><path data-name="Path 432" d="M406.875 97.329l9.535-1.682.013 38.111-9.536 1.682-.008-3.5a17.659 17.659 0 01-11.492 6.6c-5.544.977-10.048-.362-13.5-3.947s-5.112-8.244-5.03-13.823a23.921 23.921 0 014.764-14.486 19.629 19.629 0 0112.8-7.821c5.249-.925 9.371.407 12.441 3.981zm.034 19.66l-.059-1.209c-.243-6.131-4.692-9.31-10.31-8.319-5.841 1.03-10.03 5.807-10 12.434-.013 6.406 4.29 10.068 10.2 9.025a12.325 12.325 0 0010.168-11.931" fill="#fff"/><path data-name="Path 433" d="M112.926 240.638l10.5-1.85-11.749 40.18-9.094 1.6-6.82-21.817-6.265 24.125-9.609 1.694-11.763-36.032 9.535-1.68 6.665 22.226 6.351-24.525 9.241-1.629 6.9 22.261z" fill="#fff"/><path data-name="Path 434" d="M124.605 268.38l7.82-5.8c1.52 3.01 4.234 4.133 8.079 3.455 3.178-.561 4.857-1.848 4.887-3.834-.068-2.123-3.147-2.724-6.965-3.193-5.484-.405-12.693-1.956-12.674-10.5a11.765 11.765 0 013.841-8.908 17.466 17.466 0 019.25-4.606c6.432-1.134 11.966.865 15.132 5.414l-7.819 5.8c-1.319-2.282-3.462-3.2-6.346-2.691s-4.325 1.829-4.39 4.051c.034 2.357 3.038 2.97 6.83 3.293 5.618.305 12.825 1.4 12.736 10.407.008 7.393-5.49 12.1-13.771 13.557-7.541 1.331-13.1-.813-16.609-6.446" fill="#fff"/><path data-name="Path 435" d="M195.148 231.393a18.506 18.506 0 015.448 13.6 23.047 23.047 0 01-4.455 14.506 19.21 19.21 0 01-12.637 7.87c-5.4.952-9.755-.414-12.923-4.124l.044 20.572-9.537 1.682-.031-53.352 9.538-1.682.013 3.961a16.846 16.846 0 0111.412-7.043 13.975 13.975 0 0113.13 4.011m-14.337 5.577a12.479 12.479 0 00-10.246 11.488l.03 1.9c.378 6.032 4.8 9.064 10.417 8.073a11.646 11.646 0 007.132-4.078 12.339 12.339 0 002.8-8.344c.014-6.406-4.218-10.081-10.132-9.039" fill="#fff"/><path data-name="Path 436" d="M226.014 259.875c-6.136 1.082-11.086-.18-14.907-3.7a17.812 17.812 0 01-5.6-14.03 22.86 22.86 0 015.383-14.44 22.147 22.147 0 0113.712-7.831c5.692-1 10.494.284 14.253 3.89a17.788 17.788 0 015.7 13.707 22.053 22.053 0 01-5.281 14.576 21.518 21.518 0 01-13.255 7.826m-.977-9.431a11.683 11.683 0 007.044-4.14 11.829 11.829 0 002.824-8.2c.1-6.345-4.225-9.7-9.843-8.707-5.545.977-9.722 5.829-9.809 12.248-.014 6.406 4.239 9.773 9.784 8.8m-5.836-33.96l9.389-1.655 7.9-11.836-11.688 2.06z" fill="#fff"/><path data-name="Path 437" d="M265.427 214.507l.066 9.441-4.089 3.617.025 1.444.036 23.546-9.537 1.683-.024-18.29-3.954 3.517-.076-9.514 4.026-3.532-.025-27.818 9.535-1.682-.012 21.116z" fill="#fff"/><path data-name="Path 438" d="M304.859 212.051a18.525 18.525 0 015.448 13.6 23.064 23.064 0 01-4.455 14.506 19.217 19.217 0 01-12.639 7.869c-5.4.952-9.753-.414-12.922-4.124l.044 20.572-9.535 1.683-.031-53.352 9.535-1.683.014 3.963a16.852 16.852 0 0111.411-7.044 13.983 13.983 0 0113.132 4.011m-14.337 5.578a12.476 12.476 0 00-10.247 11.487l.03 1.9c.377 6.032 4.8 9.062 10.417 8.071a11.649 11.649 0 007.135-4.079 12.335 12.335 0 002.8-8.344c.013-6.4-4.216-10.081-10.131-9.037" fill="#fff"/><path data-name="Path 439" d="M326.665 209.044q2.8-7.468 11.247-8.842l.03 10.97a11.406 11.406 0 00-11.274 11.288v18.6l-9.536 1.683-.013-38.111 9.537-1.682z" fill="#fff"/><path data-name="Path 440" d="M370.427 195.231l9.538-1.683.011 38.111-9.538 1.682-.006-3.5a17.66 17.66 0 01-11.491 6.6c-5.545.977-10.05-.362-13.5-3.946s-5.114-8.245-5.03-13.824a23.888 23.888 0 014.763-14.485 19.631 19.631 0 0112.8-7.822c5.251-.925 9.373.408 12.442 3.981zm.036 19.66l-.061-1.21c-.241-6.131-4.691-9.31-10.309-8.319-5.841 1.03-10.028 5.807-10 12.434-.015 6.406 4.29 10.068 10.2 9.025a12.329 12.329 0 0010.168-11.93" fill="#fff"/><path data-name="Path 441" d="M392.733 224.455c-3.87-3.358-5.9-7.954-5.943-13.816a21.8 21.8 0 015.095-14.773 22.4 22.4 0 0113.7-7.9c7.615-1.341 13.9 1.438 17.293 6.86l-7.841 6.108c-1.89-2.943-4.764-4.114-8.609-3.436a12.069 12.069 0 00-7.193 4.165 11.771 11.771 0 00-2.815 7.814c.084 6.084 4.253 9.846 9.944 8.842a10.72 10.72 0 008.293-6.569l8.563 3.6c-2.688 6.8-8.682 11.287-16 12.577-5.692 1-10.54-.121-14.484-3.467" fill="#fff"/><path data-name="Path 442" d="M455.818 180.175l9.535-1.682.013 38.111-9.537 1.682-.009-3.506a17.648 17.648 0 01-11.491 6.6c-5.543.977-10.048-.362-13.5-3.946s-5.112-8.244-5.03-13.824a23.909 23.909 0 014.766-14.485 19.618 19.618 0 0112.8-7.821c5.249-.926 9.371.407 12.44 3.981zm.035 19.66l-.06-1.209c-.244-6.131-4.692-9.311-10.31-8.32-5.841 1.03-10.03 5.808-10 12.436-.014 6.4 4.29 10.067 10.2 9.025a12.328 12.328 0 0010.17-11.933" fill="#fff"/></g></svg>