<svg data-name="Group 173" xmlns="http://www.w3.org/2000/svg" width="537.263" height="540"><defs><clipPath id="a"><path data-name="Rectangle 504" fill="#a5242c" d="M0 0h537.263v540H0z"/></clipPath></defs><g data-name="Group 163" clip-path="url(#a)"><path data-name="Path 770" d="M492.653 269.957c0 123.861-100.406 224.267-224.267 224.267S44.119 393.818 44.119 269.957 144.528 45.69 268.386 45.69s224.267 100.406 224.267 224.267" fill="#fff"/><path data-name="Path 772" d="M349.115 155.027v-21.359c0-1.489-.812-3.593-2.632-3.593h-170.87c-4.337 0-7.435 5.291-7.435 9.181v266.982c0 1.486.812 3.589 2.632 3.589h170.87c4.337 0 7.435-5.287 7.435-9.178V276.748c0-8.191-10.067.279-10.067 5.588v123.902q3.719-4.6 7.435-9.181H183.577c-7.338 0-6.512-1.832-5.335 3.522-1.311-5.961 0-13.649 0-19.707V133.668q-3.714 4.59-7.435 9.181h158.2c4.006 0 8.254-.4 12.253 0 1.6.156-2.669-5.078-2.212-1.88a53.929 53.929 0 010 7.193v12.454c0 8.187 10.067-.279 10.067-5.588" fill="#a5242c"/><path data-name="Path 773" d="M401.451 173.022l-73.923 73.919c-9.993 9.993-20.135 23.843-31.84 31.84-2.912 1.992 4.982-.771.041-.491-5.231.294-10.734.212-15.965 0-4.129-.168.532 3.8-.067 1.876-.54-1.746 0-5.574 0-7.189v-12.454q-1.826 3.826-3.664 7.655 53.4-53.4 106.8-106.794l-5.708.413q16.023 16.023 32.041 32.038 1.474-5.065 2.96-10.131-32.039 32.034-64.079 64.075c-4.118 4.121-3.686 16.147 2.74 9.717q32.039-32.034 64.075-64.075c1.809-1.809 5.689-7.405 2.96-10.131l-32.035-32.041c-1.657-1.657-4.081-1.2-5.7.417q-35.725 35.72-71.451 71.451c-11.039 11.035-22.92 21.65-33.307 33.3-8.042 9.029-5.693 19.226-5.693 31.051 0 1.489.808 3.593 2.625 3.593 10.458 0 20.023 2.387 28.028-4.423 12.42-10.555 23.441-23.433 34.953-34.953l68.945-68.949c4.118-4.114 3.686-16.144-2.736-9.717" fill="#a5242c"/><path data-name="Path 774" d="M203.565 185.528h104.863c5.436 0 10.771-12.774 4.8-12.774H208.365c-5.439 0-10.775 12.774-4.8 12.774" fill="#a5242c"/><path data-name="Path 775" d="M203.565 238.296h59.466c5.436 0 10.771-12.774 4.8-12.774h-59.466c-5.439 0-10.775 12.774-4.8 12.774" fill="#a5242c"/><path data-name="Path 776" d="M203.565 291.064h34.481c5.44 0 10.775-12.774 4.8-12.774h-34.481c-5.439 0-10.775 12.774-4.8 12.774" fill="#a5242c"/></g></svg>