<svg xmlns="http://www.w3.org/2000/svg" width="421.997" height="421.997"><g data-name="Group 176" transform="translate(-1353.235 -2294.649)"><circle data-name="Ellipse 2" cx="210.998" cy="210.998" transform="translate(1353.235 2294.649)" fill="#fff" r="210.998"/><g data-name="Group 174"><g data-name="Group 148"><g data-name="Group 175" fill="#a5242c"><path data-name="Path 754" d="M1581.451 2570.847c-3.122-33.978-3.39-153.955 0-188 1.331-13.341-13.488-5.249-14.373 3.651-3.556 35.7-3.684 156.92-.409 192.557 1.114 12.114 15.509-.315 14.784-8.208"/><path data-name="Path 755" d="M1524.233 2541.364q23.935 25.831 47.864 51.661c2.672 2.885 6.4-.691 7.792-3.111 9.879-17.22 62.305-78.189 72.184-95.408 4.136-7.209-2.94-11.357-7.1-4.1-9.882 17.219-62.308 78.187-72.187 95.411l7.79-3.113c-15.954-17.223-73.905-77.04-89.859-94.26-4.236-4.575-12.037 6.481-8.484 10.325"/><path data-name="Path 756" d="M1616.063 2606.808c-25.374 2.065-100.339 5.905-125.755 3.716-7.932-.685-16.085 17.979-7.054 18.757 25.415 2.191 137.15-4.082 162.523-6.151 4.841-.4 8.393-4.36 10.027-8.773.908-2.455-2.973-9.986-2.973-9.986"/></g></g></g></g></svg>