<svg xmlns="http://www.w3.org/2000/svg" width="200" height="201.019"><defs><clipPath id="a"><path data-name="Rectangle 83" fill="#a5242c" d="M0 0h200v201.019H0z"/></clipPath><clipPath id="b"><path data-name="Rectangle 117" fill="none" d="M0 0h53.825v94.058H0z"/></clipPath></defs><g data-name="Group 149"><g data-name="Group 145"><g data-name="Group 140"><g data-name="Group 114" clip-path="url(#a)"><path data-name="Path 691" d="M183.394 100.493a83.485 83.485 0 11-83.485-83.484 83.484 83.484 0 0183.485 83.484" fill="#fff"/><path data-name="Path 692" d="M196.252 101.533c-.395 40.994-26.963 77.862-66.259 90.289A98.045 98.045 0 0124.879 159.96C-.219 128.688-3.526 83.532 17.854 49.385 39.336 15.072 81.274-1.8 120.627 7.042c43.921 9.864 75.194 49.767 75.625 94.491.029 3.053 3.766-.1 3.748-2.08-.41-42.535-27.574-81.223-68.274-94.589C92-8.183 47.563 5.692 21.755 38.419s-29.151 79.449-7.34 115.16c22.162 36.285 66.207 54.545 107.573 44.875 45.565-10.653 77.564-52.651 78.012-99 .029-3.044-3.728.108-3.748 2.08" fill="#a5242c"/></g></g></g><g data-name="Group 148"><g data-name="Group 147" clip-path="url(#b)" fill="#a5242c" transform="translate(75.333 55.593)"><path data-name="Path 754" d="M32.432 61.8c-1.742-18.96-3.913-38.864-2.021-57.864.742-7.443-7.527-2.926-8.021 2.037-1.984 19.922-.035 40.521 1.792 60.408.621 6.76 8.655-.176 8.25-4.58"/><path data-name="Path 755" d="M.5 45.349Q13.859 59.764 27.212 74.18c1.491 1.61 3.573-.385 4.348-1.736q8.269-14.418 16.54-28.832c2.308-4.023-1.641-6.338-3.964-2.288Q35.866 55.739 27.6 70.156l4.347-1.737Q18.589 54.002 5.236 39.587C2.872 37.034-1.481 43.206.5 45.349"/><path data-name="Path 756" d="M51.745 81.867c-14.159 1.154-28.761 2.452-42.943 1.231-4.425-.383-8.975 10.033-3.935 10.467 14.178 1.222 28.784-.075 42.943-1.23 2.7-.221 4.684-2.433 5.6-4.9.507-1.37 1.067-5.8-1.659-5.573"/></g></g></g></svg>