<svg xmlns="http://www.w3.org/2000/svg" width="588.675" height="408.249"><defs><clipPath id="a"><path data-name="Rectangle 82" fill="none" d="M0 0h588.675v408.249H0z"/></clipPath></defs><g data-name="Group 113"><g data-name="Group 112" clip-path="url(#a)" fill="#ed6a5b"><path data-name="Path 687" d="M184.289 31.359c.519 3.537-1.038 9.009-2.6 13.951-12.974 47.451-26.989 95.601-38.934 143.391-12.975 52.643-21.8 104.544-23.357 156.211 0 18.692 1.557 36.581 2.6 56.128-10.382 8.057-21.8 7.995-32.7 6.288-3.634-.4-7.787-5.375-9.867-9.164-2.6-14.594-6.226-29.528-7.261-44.918-2.607-61.315 8.81-123.545 24.383-186.507 6.233-24.977 21.287-57.218 21.287-83.174-20.24 19.142-40.491 37.765-60.217 58.893-18.169 19.813-34.778 42.471-36.339 64.029-1.557 23.634 6.749 49.68 17.135 66.538-4.156.734-7.271.765-10.909-1.194C19.208 267.591 0 235.672 0 219.586c0-40.492 25.953-68.946 58.145-104.731 30.106-34.38 60.734-68.33 90.843-101.156C163-2.267 169.234-3.364 188.442 5.707c-3.634 5.316-7.268 10.625-10.9 16.975 2.6 2.658 6.229 5.136 6.749 8.676"/><path data-name="Path 688" d="M301.088 12.836s-.519 2.166-1.035 3.814c-53.472 154.779-38.418 334.329-32.708 343.705 2.6 7.846-20.246 17.588-24.918 2.319-11.421-46.261-14.535-97.107-10.382-143.52-15.574 67.635-23.88 105.437-40.492 109.926-25.437 7.081-33.227-17.5-35.823-36.252-6.223-54.446 20.249-106.351 76.315-116.242 6.233-58.716 13.5-116.578 31.667-158.2 3.115-6.78 14.535-17.1 37.377-5.551M181.171 276.402c-.519 15.66-.519 42.139 14.535 11.452 14.532-29.036 18.169-59.267 26.475-83.049-30.112 19.84-56.065 69.579-45.682 102.53-1.035-17.467.523-30.718 4.676-30.933"/><path data-name="Path 689" d="M323.929 301.06c-50.358 2.136-39.972-74.964-25.437-108.677 11.936-28.06 33.224-42.2 57.1-40.692 39.457 8.092-11.936 80.492-32.185 88.732 0 9.86 1.038 24.212 5.191 31.269 10.382 18.412 52.954-28.545 80.464-72.847 20.249-24.333 9.344 5.617 3.118 16.062-16.1 31.905-51.4 83.807-88.251 86.154m1.557-75.543c9.344-14.106 36.339-48.971 29.587-61.281-2.076-3.786-6.745-3.482-11.417 3.052-14.535 22.288-17.654 34.259-18.169 58.228"/><path data-name="Path 690" d="M466.163 265.601c-7.787 13.833-20.246 20.7-34.259 24.208-8.829 2.592-16.1.761-21.287-5.586-2.6-3.18-5.191-5.835-6.233-9.808-10.9-33.892-11.414-69.1 11.424-105.313 19.208-31.94 62.817-47.417 90.847-33.151a24.887 24.887 0 0014.016 1.682c15.574-1.71 15.574-1.71 11.94 14.508-3.635 16.737-6.748 33.373-9.864 50.537-.519 3.2 0 6.745 0 12.978 4.672-4.461 8.306-6.659 10.386-9.618 14.535-17.616 18.685-21.987 32.7-38.99 7.261-9.59 8.3-9.773 22.834-8.7a92.379 92.379 0 01-5.704 10.35c-14.536 19.692-19.208 26.226-34.259 46.012a83.529 83.529 0 01-13.5 15.356c-16.089 14.259-34.259 12.272-45.164-5.011-8.818 14.532-16.089 27.749-23.876 40.547m-23.362-5.224c19.208-31.94 37.9-64.3 56.065-95.536-5.71-4.707-9.863-8.645-14.02-12.068-9.341-8.213-12.978-7.569-22.838 3.513a53.51 53.51 0 00-6.749 7.939c-20.765 31.691-22.322 63.112-17.135 94.9 1.561.246 3.118 1.011 4.676 1.253"/></g></g></svg>