<svg xmlns="http://www.w3.org/2000/svg" width="880.819" height="534.072"><defs><clipPath id="a"><path data-name="Rectangle 65" fill="none" d="M0 0h880.819v534.072H0z"/></clipPath></defs><g data-name="Group 80" clip-path="url(#a)"><path data-name="Path 310" d="M670.127 115.365L142.664 219.372v87.9l519.081-102.4c4.848-.927 8.382-5.488 8.382-10.822z" fill="#ed6a5b"/><path data-name="Path 311" d="M176.245 278.86l-11.793-42.244 5.75-1.1 9.388 34.822 9.97-38.516 5.515-1.054 9.975 34.711 9.388-38.408 5.75-1.1-11.788 46.751-6.338 1.209-9.74-33.672-9.739 37.393z" fill="#fff"/><path data-name="Path 312" d="M245.434 233.861l5.456-1.043-11.969 36.041c-2.523 7.667-7.16 12.555-13.027 13.231v-5.149q5.372-.549 7.924-8l.525-1.309-12.791-29.214 5.458-1.04 9.974 23.013z" fill="#fff"/><path data-name="Path 313" d="M264.157 243.635c4.576.2 10.679.884 10.621 7.7a10.516 10.516 0 01-3.11 7.523 14.4 14.4 0 01-7.862 4.109c-5.691 1.087-9.975-1.019-11.676-5.208l4.4-3.575c.939 2.874 3.7 4.254 7.276 3.571 3.345-.639 5.81-2.445 5.81-5.433 0-2.478-2.582-3.385-5.81-3.594-4.635-.45-10.621-.96-10.621-7.7a10.766 10.766 0 012.934-7.363 13.221 13.221 0 017.452-4.093c4.752-.907 8.684.822 10.562 4.594l-4.283 3.425c-1.058-2.533-3.169-3.462-6.279-2.868-2.876.549-5.222 2.523-5.222 5.256 0 2.479 2.581 3.321 5.808 3.659m6.747-27.543l-5.921 9.52-4.93.941 4.693-9.287z" fill="#fff"/><path data-name="Path 314" d="M281.12 258.829v-46.405l5.1-.975v46.406z" fill="#fff"/><path data-name="Path 315" d="M293.737 215.164a4.59 4.59 0 013.462-4.412 2.9 2.9 0 013.4 3.1 4.5 4.5 0 01-3.4 4.337 2.862 2.862 0 01-3.462-3.025m.88 41.088v-31.784l5.1-.975v31.784z" fill="#fff"/><path data-name="Path 316" d="M308.759 221.767l5.106-.975v33.692c0 8.2-3.872 12.943-11.325 13.794v-5.337c4.283-.374 6.219-2.586 6.219-7.481zm-.879-9.3a4.588 4.588 0 013.461-4.412 2.9 2.9 0 013.405 3.1 4.5 4.5 0 01-3.405 4.337 2.861 2.861 0 01-3.461-3.025" fill="#fff"/><path data-name="Path 317" d="M361.75 198.932l5.1-.975v44.5l-5.1.975v-5.468a15.481 15.481 0 01-11.09 8.413 11.413 11.413 0 01-10.5-2.825c-2.876-2.691-4.341-6.417-4.341-11.058a20.472 20.472 0 014.341-12.653 17.093 17.093 0 0110.5-6.9q7.306-1.4 11.09 4.174zm-2.993 37.314a13.9 13.9 0 002.993-8.709 9.5 9.5 0 00-2.993-7.5 8.081 8.081 0 00-7.452-1.882 11.9 11.9 0 00-7.393 4.716 13.592 13.592 0 00-2.993 8.645 9.73 9.73 0 002.993 7.564 8.2 8.2 0 007.393 1.831 12.129 12.129 0 007.452-4.665" fill="#fff"/><path data-name="Path 318" d="M378.775 226.829c1 5.468 5.046 8 10.622 6.935a11.369 11.369 0 008.449-6.254l4.341 1.842a17.934 17.934 0 01-12.912 9.65c-4.635.885-8.448.023-11.382-2.53-2.876-2.628-4.341-6.354-4.341-11.185a20.351 20.351 0 014.283-12.769 17.835 17.835 0 0111.089-6.887c4.284-.817 7.805.164 10.5 2.955 2.758 2.715 4.108 6.4 4.108 11.037a18.121 18.121 0 01-.176 2.513zm0-4.831l19.6-3.743c-.879-5.87-4.754-8.309-9.447-7.413-5.458 1.043-9.271 5.394-10.151 11.155" fill="#fff"/><path data-name="Path 319" d="M434.813 229.474l-6.338 1.211-13.377-12.509v15.065l-5.106.975v-44.5l5.106-.975v26.765l12.673-16.468 6.573-1.254-14.025 18.061z" fill="#fff"/><path data-name="Path 320" d="M440.157 228.453v-46.405l5.1-.975v46.41z" fill="#fff"/><path data-name="Path 321" d="M477.948 189.453l5.1-.975v31.784l-5.1.975v-5.468a15.48 15.48 0 01-11.09 8.413 11.412 11.412 0 01-10.5-2.825c-2.876-2.692-4.341-6.417-4.341-11.058a20.472 20.472 0 014.341-12.653 17.089 17.089 0 0110.5-6.9q7.3-1.4 11.09 4.174zm-2.993 24.6a13.9 13.9 0 002.993-8.709 9.5 9.5 0 00-2.993-7.5 8.081 8.081 0 00-7.452-1.882 11.9 11.9 0 00-7.393 4.716 13.591 13.591 0 00-2.993 8.645 9.729 9.729 0 002.993 7.564 8.2 8.2 0 007.393 1.831 12.129 12.129 0 007.452-4.665" fill="#fff"/><path data-name="Path 322" d="M496.496 191.252a11.7 11.7 0 019.154-7.661v5.786a10.579 10.579 0 00-6.455 3.394c-1.819 1.938-2.7 4.585-2.7 8.079v16.847l-5.106.975v-31.785l5.106-.975z" fill="#fff"/><path data-name="Path 323" d="M533.933 178.76l5.1-.975v31.784l-5.1.975v-5.468a15.481 15.481 0 01-11.09 8.413 11.413 11.413 0 01-10.5-2.825c-2.876-2.691-4.341-6.417-4.341-11.058a20.472 20.472 0 014.341-12.653 17.093 17.093 0 0110.5-6.9q7.306-1.4 11.09 4.174zm-2.993 24.6a13.9 13.9 0 002.993-8.709 9.5 9.5 0 00-2.993-7.5 8.086 8.086 0 00-7.452-1.884 11.909 11.909 0 00-7.395 4.718 13.592 13.592 0 00-2.993 8.645 9.73 9.73 0 002.993 7.565 8.194 8.194 0 007.393 1.83 12.12 12.12 0 007.452-4.664" fill="#fff"/><path data-name="Path 324" d="M550.133 203.507c-2.934-2.681-4.4-6.343-4.4-11.11a20.025 20.025 0 014.4-12.727 17.829 17.829 0 0111.031-6.938c5.808-1.109 10.679 1.2 12.967 5.851l-4.283 3.487c-1.467-3.088-4.754-4.685-8.684-3.933a12.082 12.082 0 00-7.394 4.654 13.821 13.821 0 00-2.934 8.633 9.662 9.662 0 002.934 7.45 8.208 8.208 0 007.394 1.828 12.412 12.412 0 008.86-7.222l4.343 1.9a18.867 18.867 0 01-13.2 10.786c-4.4.84-8.1-.045-11.031-2.662" fill="#fff"/><path data-name="Path 325" d="M580.71 169.825l5.106-.975v33.691c0 8.2-3.873 12.944-11.324 13.8v-5.34c4.281-.374 6.218-2.588 6.218-7.482zm-.879-9.3a4.586 4.586 0 013.46-4.411 2.9 2.9 0 013.405 3.1 4.5 4.5 0 01-3.405 4.338 2.862 2.862 0 01-3.46-3.026" fill="#fff"/><path data-name="Path 326" d="M597.728 185.009c1 5.468 5.044 8 10.621 6.935a11.37 11.37 0 008.449-6.254l4.343 1.84a27.171 27.171 0 01-2.289 3.361q-6.162 8.519-6.162 11.856c0 1.271.585 1.8 1.819 1.56a5.692 5.692 0 002.171-.923v4.071a10.625 10.625 0 01-3.873 1.566c-3.11.592-5.047-1.008-5.047-4.123 0-2.6 1.232-5.512 3.756-8.664a23.229 23.229 0 01-3.286.947c-4.635.884-8.448.022-11.382-2.532-2.876-2.628-4.34-6.354-4.34-11.185a20.354 20.354 0 014.281-12.768 17.828 17.828 0 0111.089-6.887c4.284-.817 7.805.163 10.5 2.954 2.76 2.715 4.108 6.4 4.108 11.039a18.323 18.323 0 01-.176 2.512zm0-4.831l19.6-3.744c-.879-5.87-4.754-8.307-9.447-7.411-5.458 1.042-9.271 5.392-10.15 11.155" fill="#fff"/><path data-name="Path 327" d="M695.484 0L142.662 109.5v87.9l544.44-107.9c4.847-.927 8.382-5.488 8.382-10.822z" fill="#ed6a5b"/><path data-name="Path 328" d="M176.245 168.988l-11.793-42.244 5.75-1.1 9.388 34.822 9.97-38.519 5.515-1.054 9.975 34.711 9.388-38.408 5.75-1.1-11.793 46.75-6.335 1.21-9.74-33.672-9.739 37.393z" fill="#fff"/><path data-name="Path 329" d="M245.434 123.989l5.456-1.043-11.969 36.041c-2.523 7.667-7.16 12.555-13.027 13.231v-5.149q5.372-.549 7.924-8l.525-1.309-12.79-29.213 5.458-1.04 9.974 23.013z" fill="#fff"/><path data-name="Path 330" d="M282.466 120.985c2.874 2.692 4.341 6.354 4.341 10.994a20.659 20.659 0 01-4.341 12.717 16.989 16.989 0 01-10.5 6.836q-7.3 1.4-11.09-4.175v18.175l-5.106.975v-44.5l5.106-.975v5.467a15.486 15.486 0 0111.09-8.411 11.437 11.437 0 0110.5 2.89m-3.756 20.676a13.889 13.889 0 002.993-8.707 9.5 9.5 0 00-2.993-7.5 8.051 8.051 0 00-7.393-1.893 11.929 11.929 0 00-7.452 4.729 13.579 13.579 0 00-2.993 8.644 9.728 9.728 0 002.993 7.566 8.243 8.243 0 007.452 1.819 12.085 12.085 0 007.393-4.654" fill="#fff"/><path data-name="Path 331" d="M297.081 132.559c1 5.468 5.046 8 10.619 6.935a11.359 11.359 0 008.449-6.254l4.343 1.84a17.931 17.931 0 01-12.908 9.65c-4.635.885-8.449.023-11.384-2.53-2.876-2.628-4.341-6.354-4.341-11.185a20.359 20.359 0 014.283-12.769 17.834 17.834 0 0111.092-6.887c4.281-.817 7.8.164 10.5 2.954 2.757 2.715 4.107 6.4 4.107 11.039a18.306 18.306 0 01-.176 2.512zm0-4.831l19.6-3.743c-.879-5.87-4.751-8.309-9.444-7.413-5.459 1.043-9.272 5.394-10.153 11.155" fill="#fff"/><path data-name="Path 332" d="M337.926 108.229v5.277l-3.7 3.44v21.869l-5.1.974v-18.054l-3.636 3.366v-5.276l3.639-3.364V93.384l5.1-.975v19.262z" fill="#fff"/><path data-name="Path 333" d="M369.435 112.574v19.517l-5.1.975v-19.2c0-5.15-2.76-7.609-7.277-6.749-5.106.975-8.508 5-8.508 12.115v16.845l-5.106.974V105.27l5.106-.974v4.577a12.915 12.915 0 019.506-7.219c6.865-1.312 11.382 2.848 11.382 10.92" fill="#fff"/><path data-name="Path 334" d="M376.248 89.532a4.587 4.587 0 013.462-4.411 2.9 2.9 0 013.4 3.1 4.5 4.5 0 01-3.4 4.338 2.862 2.862 0 01-3.462-3.026m.879 41.088V98.836l5.106-.975v31.783z" fill="#fff"/><path data-name="Path 335" d="M391.27 96.135l5.106-.975v33.692c0 8.2-3.872 12.944-11.323 13.8v-5.34c4.283-.374 6.218-2.588 6.218-7.482zm-.879-9.3a4.589 4.589 0 013.462-4.412 2.9 2.9 0 013.4 3.1 4.5 4.5 0 01-3.4 4.337 2.861 2.861 0 01-3.462-3.025" fill="#fff"/><path data-name="Path 336" d="M454.528 84.053l5.339-1.019-9.093 33.52-5.222 1-6.865-22.208-6.866 24.832-5.224 1-9.094-30.045 5.339-1.022 6.456 22.923 6.923-25.484 4.93-.943 6.923 22.9z" fill="#fff"/><path data-name="Path 337" d="M491.737 89.211v19.52l-5.1.975V90.511c0-5.149-2.76-7.609-7.277-6.747-5.1.975-8.508 4.994-8.508 12.113v16.843l-5.106.975V81.911l5.106-.975v4.575a12.921 12.921 0 019.506-7.216c6.866-1.312 11.384 2.848 11.384 10.921" fill="#fff"/><path data-name="Path 338" d="M498.545 66.174a4.588 4.588 0 013.463-4.411 2.9 2.9 0 013.4 3.1 4.5 4.5 0 01-3.4 4.338 2.863 2.863 0 01-3.463-3.026m.88 41.089V75.479l5.1-.977v31.784z" fill="#fff"/><path data-name="Path 339" d="M526.715 102.877a12.221 12.221 0 01-10.973-2.735c-2.993-2.671-4.459-6.332-4.459-11.037a20.043 20.043 0 014.459-12.737 18.008 18.008 0 0110.973-6.927 12.217 12.217 0 0110.968 2.734c2.993 2.67 4.517 6.321 4.517 11.025a20.136 20.136 0 01-4.517 12.748 18.014 18.014 0 01-10.973 6.927m7.393-10.058a13.6 13.6 0 002.993-8.645 9.5 9.5 0 00-2.993-7.5 8.2 8.2 0 00-7.393-1.829 12.038 12.038 0 00-7.334 4.642 13.589 13.589 0 00-2.993 8.645 9.5 9.5 0 002.993 7.5 8.168 8.168 0 007.334 1.842 12.085 12.085 0 007.393-4.654" fill="#fff"/><path data-name="Path 340" d="M558.406 77.558c4.576.2 10.679.884 10.621 7.7a10.51 10.51 0 01-3.11 7.521 14.387 14.387 0 01-7.862 4.11c-5.691 1.087-9.975-1.017-11.676-5.208l4.4-3.574c.939 2.873 3.7 4.253 7.276 3.569 3.345-.64 5.81-2.447 5.81-5.433 0-2.479-2.582-3.385-5.81-3.6-4.635-.448-10.621-.958-10.621-7.7a10.769 10.769 0 012.934-7.363 13.21 13.21 0 017.452-4.092c4.752-.909 8.684.819 10.562 4.594l-4.283 3.425c-1.058-2.533-3.169-3.464-6.279-2.87-2.876.549-5.223 2.523-5.223 5.257 0 2.478 2.584 3.319 5.81 3.657" fill="#fff"/><path data-name="Path 341" d="M578.418 78.825c1 5.468 5.046 8 10.621 6.937a11.368 11.368 0 008.449-6.254l4.343 1.84a17.929 17.929 0 01-12.909 9.648c-4.635.885-8.449.023-11.382-2.53-2.876-2.628-4.341-6.354-4.341-11.185a20.343 20.343 0 014.283-12.768 17.828 17.828 0 0111.09-6.887c4.283-.819 7.8.163 10.5 2.954 2.758 2.715 4.108 6.4 4.108 11.039a18.323 18.323 0 01-.176 2.512zm0-4.831l19.6-3.743c-.879-5.87-4.752-8.307-9.446-7.411-5.459 1.042-9.272 5.392-10.153 11.154" fill="#fff"/><path data-name="Path 342" d="M634.462 81.471l-6.338 1.209-13.378-12.509v15.066l-5.106.975v-44.5l5.106-.974v26.76l12.678-16.466 6.573-1.254-14.029 18.06z" fill="#fff"/><path data-name="Path 343" d="M754.682 211.32L142.664 329.245v87.9L746.301 300.82c4.846-.926 8.381-5.488 8.381-10.82z" fill="#ed6a5b"/><path data-name="Path 344" d="M182.288 343.08a10.441 10.441 0 019.447 2.329c2.522 2.25 3.815 5.374 3.815 9.442a17.324 17.324 0 01-3.815 10.9 15.381 15.381 0 01-9.447 5.935l-9.447 1.8v15.892l-5.456 1.042v-44.5zm0 23.075a9 9 0 005.634-3.554 11.113 11.113 0 002.229-6.719c0-5.084-3.345-8.133-7.862-7.27l-9.447 1.8v17.543z" fill="#fff"/><path data-name="Path 345" d="M213.629 382.417a12.215 12.215 0 01-10.971-2.735c-2.993-2.67-4.459-6.33-4.459-11.036a20.05 20.05 0 014.459-12.738 18.015 18.015 0 0110.971-6.927 12.221 12.221 0 0110.973 2.737c2.993 2.67 4.519 6.319 4.519 11.023a20.142 20.142 0 01-4.522 12.747 18 18 0 01-10.973 6.926m7.394-10.056a13.6 13.6 0 002.993-8.645 9.5 9.5 0 00-2.993-7.5 8.2 8.2 0 00-7.391-1.825 12.06 12.06 0 00-7.334 4.642 13.6 13.6 0 00-2.993 8.647 9.5 9.5 0 002.993 7.5 8.162 8.162 0 007.334 1.842 12.089 12.089 0 007.394-4.653" fill="#fff"/><path data-name="Path 346" d="M238.512 372.898c-2.936-2.681-4.4-6.343-4.4-11.11a20.016 20.016 0 014.4-12.727 17.829 17.829 0 0111.03-6.938c5.81-1.109 10.679 1.2 12.968 5.851l-4.284 3.487c-1.466-3.088-4.752-4.685-8.684-3.933a12.087 12.087 0 00-7.393 4.653 13.824 13.824 0 00-2.934 8.633 9.66 9.66 0 002.934 7.45 8.2 8.2 0 007.393 1.829 12.4 12.4 0 008.86-7.223l4.343 1.905a18.867 18.867 0 01-13.2 10.786c-4.4.84-8.1-.045-11.03-2.662" fill="#fff"/><path data-name="Path 347" d="M273.722 364.837l15.609-2.981v5.276l-22.591 4.316v-3.687l14.962-25.678-14.375 2.746v-5.278l21.417-4.09v3.687z" fill="#fff"/><path data-name="Path 348" d="M297.785 352.168c1 5.468 5.046 8 10.622 6.935a11.364 11.364 0 008.448-6.254l4.341 1.842a17.931 17.931 0 01-12.908 9.648c-4.635.885-8.449.023-11.382-2.53-2.877-2.628-4.343-6.354-4.343-11.185a20.352 20.352 0 014.283-12.768 17.832 17.832 0 0111.09-6.887c4.284-.819 7.805.163 10.5 2.954 2.757 2.715 4.108 6.4 4.108 11.039a18.32 18.32 0 01-.176 2.512zm0-4.831l19.6-3.743c-.88-5.87-4.754-8.309-9.447-7.411-5.458 1.042-9.271 5.392-10.151 11.154" fill="#fff"/><path data-name="Path 349" d="M353.827 354.814l-6.338 1.211-13.376-12.509v15.065l-5.107.975v-44.5l5.107-.974v26.76l12.673-16.468 6.573-1.254-14.026 18.061z" fill="#fff"/><path data-name="Path 350" d="M380.765 317.888l5.1-.975v31.784l-5.1.975v-5.464a15.483 15.483 0 01-11.089 8.411 11.41 11.41 0 01-10.5-2.825c-2.876-2.692-4.341-6.417-4.341-11.058a20.479 20.479 0 014.341-12.654 17.1 17.1 0 0110.5-6.9q7.3-1.4 11.089 4.175zm-2.993 24.6a13.888 13.888 0 002.993-8.706 9.5 9.5 0 00-2.993-7.5 8.09 8.09 0 00-7.452-1.884 11.913 11.913 0 00-7.393 4.718 13.592 13.592 0 00-2.994 8.641 9.738 9.738 0 002.993 7.566 8.2 8.2 0 007.393 1.829 12.117 12.117 0 007.452-4.667" fill="#fff"/><path data-name="Path 351" d="M394.853 315.195l5.1-.975v33.689c0 8.2-3.872 12.944-11.324 13.8v-5.34c4.283-.374 6.219-2.588 6.219-7.482zm-.88-9.3a4.587 4.587 0 013.462-4.411 2.9 2.9 0 013.4 3.1 4.5 4.5 0 01-3.4 4.338 2.863 2.863 0 01-3.462-3.026" fill="#fff"/><path data-name="Path 352" d="M449.543 317.018v19.515l-5.1.975v-19.2c0-5.149-2.76-7.609-7.277-6.747-5.106.975-8.508 4.994-8.508 12.113v16.845l-5.106.975v-31.78l5.106-.975v4.577a12.922 12.922 0 019.506-7.219c6.865-1.312 11.382 2.848 11.382 10.921" fill="#fff"/><path data-name="Path 353" d="M481.528 298.641l5.1-.975v31.784l-5.1.975v-5.468a15.485 15.485 0 01-11.089 8.413 11.411 11.411 0 01-10.5-2.825c-2.877-2.693-4.343-6.419-4.343-11.059a20.457 20.457 0 014.343-12.651 17.085 17.085 0 0110.5-6.9q7.3-1.4 11.089 4.174zm-2.993 24.6a13.89 13.89 0 002.993-8.707 9.5 9.5 0 00-2.993-7.5 8.087 8.087 0 00-7.45-1.882 11.9 11.9 0 00-7.394 4.718 13.585 13.585 0 00-2.993 8.644 9.735 9.735 0 002.993 7.566 8.206 8.206 0 007.394 1.829 12.112 12.112 0 007.45-4.665" fill="#fff"/><path data-name="Path 354" d="M534.522 275.806l5.1-.975v44.5l-5.1.975v-5.468a15.49 15.49 0 01-11.09 8.413 11.41 11.41 0 01-10.5-2.825c-2.876-2.693-4.341-6.419-4.341-11.059a20.464 20.464 0 014.341-12.651 17.085 17.085 0 0110.5-6.9q7.3-1.4 11.09 4.174zm-2.993 37.312a13.889 13.889 0 002.993-8.707 9.5 9.5 0 00-2.993-7.5 8.089 8.089 0 00-7.452-1.882 11.9 11.9 0 00-7.394 4.718 13.585 13.585 0 00-2.993 8.644 9.735 9.735 0 002.993 7.566 8.205 8.205 0 007.394 1.829 12.115 12.115 0 007.452-4.665" fill="#fff"/><path data-name="Path 355" d="M551.542 303.702c1 5.47 5.046 8 10.621 6.937a11.368 11.368 0 008.449-6.254l4.341 1.84a17.932 17.932 0 01-12.908 9.65c-4.635.884-8.449.022-11.384-2.532-2.876-2.628-4.341-6.354-4.341-11.185a20.352 20.352 0 014.283-12.768 17.832 17.832 0 0111.09-6.887c4.283-.817 7.805.163 10.5 2.954 2.757 2.715 4.107 6.4 4.107 11.039a18.085 18.085 0 01-.176 2.512zm0-4.831l19.6-3.743c-.879-5.87-4.752-8.307-9.446-7.411-5.458 1.042-9.271 5.392-10.151 11.154" fill="#fff"/><path data-name="Path 356" d="M585.464 306.635c-2.934-2.679-4.4-6.34-4.4-11.107a20.037 20.037 0 014.4-12.73 17.826 17.826 0 0111.032-6.937c5.81-1.109 10.679 1.2 12.968 5.851l-4.284 3.487c-1.467-3.09-4.754-4.687-8.684-3.933a12.086 12.086 0 00-7.395 4.653 13.836 13.836 0 00-2.933 8.634 9.666 9.666 0 002.933 7.45 8.208 8.208 0 007.395 1.828 12.41 12.41 0 008.86-7.223l4.343 1.905a18.867 18.867 0 01-13.2 10.786c-4.4.84-8.1-.045-11.032-2.664" fill="#fff"/><path data-name="Path 357" d="M635.873 269.163l5.458-1.043-11.97 36.041c-2.522 7.667-7.158 12.555-13.025 13.23v-5.149q5.368-.547 7.921-8l.528-1.309-12.792-29.214 5.456-1.04 9.975 23.013z" fill="#fff"/><path data-name="Path 358" d="M651.486 292.686l15.609-2.981v5.273l-22.591 4.316v-3.687l14.962-25.678-14.376 2.749V267.4l21.417-4.09v3.687z" fill="#fff"/><path data-name="Path 359" d="M675.079 261.675l5.1-.975v33.692c0 8.2-3.872 12.944-11.324 13.8v-5.34c4.283-.377 6.219-2.589 6.219-7.482zm-.88-9.306a4.589 4.589 0 013.461-4.411 2.9 2.9 0 013.4 3.1 4.5 4.5 0 01-3.4 4.337 2.862 2.862 0 01-3.461-3.026" fill="#fff"/><path data-name="Path 360" d="M692.1 276.856c1 5.468 5.046 8 10.621 6.937a11.363 11.363 0 008.448-6.254l4.343 1.84a26.935 26.935 0 01-2.287 3.361q-6.16 8.519-6.161 11.856c0 1.271.585 1.8 1.819 1.558a5.63 5.63 0 002.17-.922v4.068a10.6 10.6 0 01-3.873 1.567c-3.109.592-5.046-1.008-5.046-4.123 0-2.6 1.231-5.512 3.756-8.664a23.261 23.261 0 01-3.286.946c-4.635.885-8.449.023-11.384-2.53-2.876-2.628-4.341-6.354-4.341-11.185a20.352 20.352 0 014.283-12.768 17.831 17.831 0 0111.087-6.881c4.281-.819 7.8.163 10.5 2.954 2.757 2.715 4.108 6.4 4.108 11.039a18.327 18.327 0 01-.177 2.512zm0-4.831l19.6-3.743c-.879-5.87-4.751-8.309-9.444-7.411-5.459 1.042-9.272 5.392-10.153 11.154" fill="#fff"/><path data-name="Path 361" d="M674.316 336.363l-531.654 102.75v87.9l523.273-101.151c4.847-.926 8.381-5.487 8.381-10.82z" fill="#a5242c"/><path data-name="Path 362" d="M171.727 493.871l20.361-3.89v5.6l-26.817 5.12v-5.149l19.836-37.545-19.306 3.688v-5.6l25.816-4.924v5.085z" fill="#fff"/><path data-name="Path 363" d="M210.87 492.815a12.211 12.211 0 01-10.972-2.734c-2.993-2.67-4.459-6.33-4.459-11.036a20.05 20.05 0 014.459-12.739 18.018 18.018 0 0110.973-6.927 12.221 12.221 0 0110.973 2.736c2.993 2.668 4.517 6.32 4.517 11.023a20.143 20.143 0 01-4.517 12.751 18 18 0 01-10.973 6.926m7.393-10.056a13.6 13.6 0 002.993-8.645 9.5 9.5 0 00-2.993-7.5 8.2 8.2 0 00-7.393-1.831 12.06 12.06 0 00-7.334 4.642 13.6 13.6 0 00-2.993 8.647 9.5 9.5 0 002.993 7.5 8.161 8.161 0 007.334 1.842 12.085 12.085 0 007.393-4.653" fill="#fff"/><path data-name="Path 364" d="M242.56 467.503c4.577.2 10.679.884 10.621 7.7a10.5 10.5 0 01-3.11 7.521 14.388 14.388 0 01-7.862 4.11c-5.691 1.087-9.975-1.019-11.676-5.208l4.4-3.574c.939 2.871 3.7 4.253 7.276 3.569 3.345-.64 5.81-2.447 5.81-5.433 0-2.479-2.582-3.385-5.81-3.6-4.635-.448-10.621-.958-10.621-7.7a10.769 10.769 0 012.934-7.363 13.214 13.214 0 017.453-4.092c4.751-.909 8.683.819 10.561 4.592l-4.283 3.426c-1.058-2.533-3.169-3.465-6.278-2.87-2.877.549-5.225 2.521-5.225 5.256 0 2.478 2.584 3.321 5.81 3.659" fill="#fff"/><path data-name="Path 365" d="M274.603 453.373l-7.8 1.49v17.227c0 4.895 2.582 4.02 7.8 2.769v4.96c-8.919 2.975-12.909 1.129-12.909-6.754v-17.227l-5.808 1.11v-5.34l5.808-1.11v-7.245l5.106-2.63v8.9l7.8-1.49z" fill="#fff"/><path data-name="Path 366" d="M304.063 442.407l5.1-.974v31.781l-5.1.974v-5.467a15.484 15.484 0 01-11.09 8.411 11.4 11.4 0 01-10.5-2.825c-2.876-2.692-4.341-6.417-4.341-11.058a20.472 20.472 0 014.341-12.653 17.1 17.1 0 0110.5-6.9q7.3-1.4 11.09 4.174zm-2.993 24.6a13.894 13.894 0 002.993-8.709 9.5 9.5 0 00-2.993-7.5 8.089 8.089 0 00-7.452-1.884 11.9 11.9 0 00-7.394 4.718 13.585 13.585 0 00-2.993 8.644 9.735 9.735 0 002.993 7.566 8.206 8.206 0 007.394 1.829 12.115 12.115 0 007.452-4.665" fill="#fff"/><path data-name="Path 367" d="M343.497 447.143v19.515l-5.1.975v-19.2c0-5.149-2.76-7.609-7.277-6.747-5.1.974-8.507 4.994-8.507 12.113v16.845l-5.107.975v-31.78l5.107-.975v4.577a12.921 12.921 0 019.5-7.219c6.865-1.312 11.382 2.848 11.382 10.921m-5.339-24.154l-5.926 9.524-4.928.941 4.695-9.288z" fill="#fff"/><path data-name="Path 368" d="M369.207 457.803c-2.936-2.681-4.4-6.343-4.4-11.11a20.016 20.016 0 014.4-12.727 17.828 17.828 0 0111.03-6.94c5.81-1.109 10.679 1.2 12.968 5.851l-4.284 3.488c-1.467-3.088-4.752-4.687-8.684-3.935a12.078 12.078 0 00-7.393 4.654 13.822 13.822 0 00-2.934 8.633 9.66 9.66 0 002.934 7.45 8.2 8.2 0 007.396 1.836 12.4 12.4 0 008.86-7.223l4.343 1.907a18.869 18.869 0 01-13.2 10.785c-4.4.84-8.1-.043-11.03-2.661" fill="#fff"/><path data-name="Path 369" d="M404.417 449.747l15.609-2.981v5.271l-22.591 4.316v-3.687l14.962-25.68-14.375 2.751v-5.278l21.416-4.09v3.687z" fill="#fff"/><path data-name="Path 370" d="M436.343 419.05v5.276l-3.7 3.439v21.869l-5.1.975V432.55l-3.638 3.366v-5.276l3.638-3.365v-23.073l5.1-.975v19.262z" fill="#fff"/><path data-name="Path 371" d="M455.648 446.064a12.215 12.215 0 01-10.973-2.733c-2.993-2.671-4.459-6.332-4.459-11.037a20.043 20.043 0 014.459-12.737 18.013 18.013 0 0110.973-6.929 12.221 12.221 0 0110.973 2.736c2.993 2.67 4.517 6.319 4.517 11.023a20.14 20.14 0 01-4.517 12.751 18 18 0 01-10.973 6.926m7.393-10.056a13.6 13.6 0 002.993-8.645 9.5 9.5 0 00-2.993-7.5 8.2 8.2 0 00-7.393-1.829 12.047 12.047 0 00-7.334 4.642 13.589 13.589 0 00-2.993 8.645 9.5 9.5 0 002.993 7.5 8.17 8.17 0 007.334 1.842 12.1 12.1 0 007.393-4.654" fill="#fff"/><path data-name="Path 372" d="M503.768 416.532v19.515l-5.1.975v-19.2c0-5.149-2.758-7.609-7.276-6.747-5.106.975-8.509 4.994-8.509 12.113v16.845l-5.1.975v-31.78l5.1-.975v4.577a12.927 12.927 0 019.501-7.218c6.866-1.312 11.384 2.848 11.384 10.921" fill="#fff"/><path data-name="Path 373" d="M536.281 429.837l-6.338 1.209-13.376-12.509v15.065l-5.107.975v-44.5l5.107-.974v26.76l12.669-16.465 6.571-1.254-14.025 18.061z" fill="#fff"/><path data-name="Path 374" d="M540.744 387.729a4.589 4.589 0 013.462-4.412 2.9 2.9 0 013.4 3.1 4.5 4.5 0 01-3.4 4.337 2.861 2.861 0 01-3.462-3.025m.879 41.088v-31.784l5.106-.975v31.784z" fill="#fff"/><path data-name="Path 375" d="M558.699 412.206c1 5.468 5.046 8 10.621 6.935a11.359 11.359 0 008.448-6.254l4.343 1.84a17.931 17.931 0 01-12.908 9.65c-4.635.885-8.449.023-11.384-2.53-2.876-2.628-4.341-6.355-4.341-11.185a20.357 20.357 0 014.283-12.769 17.831 17.831 0 0111.092-6.887c4.281-.817 7.8.164 10.5 2.954 2.757 2.715 4.107 6.4 4.107 11.039a18.3 18.3 0 01-.176 2.512zm0-4.831l19.6-3.743c-.879-5.871-4.751-8.309-9.444-7.413-5.459 1.043-9.272 5.394-10.153 11.155" fill="#fff"/><path data-name="Path 376" d="M632.638 391.664v19.769l-5.1.975V392.83c0-4.895-2.523-7.273-6.455-6.523-4.4.84-7.217 4.492-7.217 11.039v17.672l-5.106.975v-19.578c0-4.895-2.4-7.295-6.218-6.566-4.284.817-7.51 4.676-7.51 11.095v17.673l-5.107.975v-31.784l5.107-.975v4.259a12.271 12.271 0 018.741-6.757c3.932-.75 6.806.482 8.625 3.757a12.62 12.62 0 019.214-7.163c6.571-1.254 11.03 2.853 11.03 10.735" fill="#fff"/><path data-name="Path 377" d="M103.453 257.402l-38.08 7.068c-17.073 3.169-34.623 2.507-46.047-13.943-15.347-22.093-5.7-52.866 13.3-68.259 12.205-9.89 26.864-11.4 41.356-14.115l41.958-7.846c5.927-1.107 10.907-17.213 2.728-15.682l-41.962 7.844c-17.785 3.327-34.214 6.147-48.838 19.014-20.343 17.9-33.892 50.159-25.183 78.282 7.705 24.886 30.189 35.615 53.079 31.667 15.014-2.589 29.977-5.564 44.961-8.346 5.927-1.1 10.91-17.2 2.728-15.684" fill="#a5242c"/><path data-name="Path 378" d="M77.783 307.094l40.575-40.711c1.668-1.671 4.711-7.168 1.629-9.082l-40.574-25.212c-3.81-2.367-9.192 7.693-5.368 10.07q20.288 12.608 40.574 25.208l1.63-9.084q-20.285 20.356-40.573 40.711c-3.326 3.34-3.037 13.258 2.107 8.095" fill="#a5242c"/><path data-name="Path 379" d="M103.453 482.918l-38.08 7.068c-17.073 3.169-34.623 2.507-46.047-13.943-15.347-22.093-5.7-52.866 13.3-68.259 12.205-9.89 26.864-11.4 41.356-14.115l41.962-7.847c5.927-1.109 10.907-17.213 2.728-15.682l-41.962 7.844c-17.785 3.327-34.214 6.147-48.838 19.014-20.346 17.9-33.895 50.159-25.187 78.282 7.705 24.888 30.189 35.615 53.079 31.668 15.014-2.589 29.977-5.564 44.961-8.346 5.927-1.1 10.91-17.2 2.728-15.684" fill="#a5242c"/><path data-name="Path 380" d="M77.783 532.61l40.575-40.711c1.668-1.671 4.711-7.168 1.629-9.082l-40.574-25.212c-3.81-2.369-9.192 7.693-5.368 10.07q20.287 12.6 40.573 25.213l1.63-9.084q-20.285 20.356-40.573 40.711c-3.326 3.34-3.037 13.258 2.107 8.095" fill="#a5242c"/><path data-name="Path 381" d="M790.655 252.225c20.425-3.612 41.733-4.912 59.021-18.538 25.082-19.771 41.8-61.845 23.238-92.6a43.55 43.55 0 00-36.268-21.083c-6.272-.129-12.33 1.222-18.449 2.456l-60.354 12.182-49.448 9.982c-5.911 1.192-10.865 17.324-2.728 15.682q47.907-9.668 95.817-19.34c13.741-2.774 28.868-7.848 42.586-2.651 30.75 11.65 30.64 53.964 10.2 76.189-16.116 17.523-39.64 18.278-60.883 22.036-5.937 1.051-10.933 17.137-2.73 15.684" fill="#a5242c"/><path data-name="Path 382" d="M820.062 267.467l-40.575-25.213-1.629 9.082q20.287-20.354 40.573-40.711c3.328-3.338 3.037-13.256-2.107-8.095l-40.575 40.711c-1.666 1.673-4.711 7.168-1.63 9.082q20.289 12.6 40.575 25.213c3.81 2.368 9.194-7.695 5.368-10.07" fill="#a5242c"/></g></svg>