<svg xmlns="http://www.w3.org/2000/svg" width="115.076" height="99.714"><g data-name="Group 9"><path data-name="Path 1" d="M.435 70.398l.008 1.384 3.144-.555v9.632l1.4-.247V70.98l3.159-.558-.007-1.384z" fill="#a5242c"/><g data-name="Group 1"><path data-name="Path 2" d="M15.079 72.852a2.386 2.386 0 00-1.963-.424 3.176 3.176 0 00-1.857 1.067 3.061 3.061 0 00-.771 2.15 2.423 2.423 0 00.777 1.909 2.262 2.262 0 001.959.488 3.1 3.1 0 001.914-1.108 3.206 3.206 0 00.759-2.117 2.23 2.23 0 00-.818-1.965m.822-2.033l1.328-.233v7.868l-1.328.233.008-1.118a4.05 4.05 0 01-2.827 1.82 3.089 3.089 0 01-2.8-.8 3.685 3.685 0 01-1.143-2.82 4.55 4.55 0 011.049-3.065 4.261 4.261 0 012.608-1.545 3.069 3.069 0 013.108 1.12z" fill="#a5242c"/></g><path data-name="Path 3" d="M25.686 69.094l-3.654 4.452 3.793 3.392-1.527.269-3.577-3.241.005 3.87-1.328.235-.006-11.015 1.328-.234.008 6.561 3.246-3.988z" fill="#a5242c"/><g data-name="Group 2" fill="#a5242c"><path data-name="Path 4" d="M27.549 73.407l-.29-4.591v-3.148l1.6-.282v3.147l-.274 4.691zm-.482 2.445a1.185 1.185 0 01.988-1.181.832.832 0 011 .861 1.189 1.189 0 01-1 1.185.823.823 0 01-.987-.865"/><path data-name="Path 5" d="M34.573 72.893l1.135-.876a2.385 2.385 0 002.963 1.445c1.389-.246 2.215-1.005 2.243-2a1.168 1.168 0 00-.784-1.231 6.2 6.2 0 00-1.792-.439 6.171 6.171 0 01-2.267-.717 2.288 2.288 0 01-1.089-2.153 3.041 3.041 0 01.971-2.265 4.3 4.3 0 012.257-1.122 3.434 3.434 0 013.813 1.721l-1.138.861a2.255 2.255 0 00-2.54-1.188 2.121 2.121 0 00-1.924 1.849 1.247 1.247 0 00.471 1.065 1.834 1.834 0 00.575.309 10.069 10.069 0 001.475.337c.39.073.7.129.929.182a4.8 4.8 0 01.884.286 2.788 2.788 0 01.841.481 2.459 2.459 0 01.765 1.926 3.024 3.024 0 01-1.011 2.3 4.852 4.852 0 01-2.514 1.183c-2.03.357-3.56-.38-4.263-1.956"/><path data-name="Path 6" d="M49.641 66.759a2.389 2.389 0 00-1.964-.426A3.2 3.2 0 0045.82 67.4a3.069 3.069 0 00-.77 2.151 2.42 2.42 0 00.777 1.909 2.259 2.259 0 001.96.488A3.091 3.091 0 0049.7 70.84a3.214 3.214 0 00.76-2.117 2.229 2.229 0 00-.819-1.964m.822-2.033l1.328-.235v7.869l-1.328.233.007-1.118a4.047 4.047 0 01-2.826 1.82 3.092 3.092 0 01-2.8-.8 3.682 3.682 0 01-1.143-2.82 4.539 4.539 0 011.05-3.066 4.256 4.256 0 012.607-1.545 3.073 3.073 0 013.109 1.12z"/><path data-name="Path 7" d="M64.22 62.96a2.753 2.753 0 01.853 2.163v4.895l-1.328.234-.005-4.846c-.014-1.241-.648-1.806-1.687-1.623-1.114.2-1.855 1.083-1.873 2.676l.008 4.421-1.327.233-.005-4.847c-.013-1.24-.618-1.81-1.611-1.635a2.448 2.448 0 00-1.949 2.689v-.016 4.44l-1.328.233v-7.868l1.328-.234-.006.946a3.11 3.11 0 012.215-1.54 2.014 2.014 0 012.279.967 3.244 3.244 0 012.391-1.791 2.359 2.359 0 012.056.5"/><path data-name="Path 8" d="M72.564 66.807a3.113 3.113 0 00.789-2.218 2.221 2.221 0 00-.8-1.873 2.291 2.291 0 00-1.884-.423 3.374 3.374 0 00-1.87 1.085 3.263 3.263 0 00-.81 2.189 2.337 2.337 0 00.8 1.937 2.287 2.287 0 001.88.393 3.213 3.213 0 001.9-1.09m-4.7 1.709a3.424 3.424 0 01-1.227-2.852 4.552 4.552 0 011.182-3.119 4.861 4.861 0 012.836-1.586 3.328 3.328 0 012.833.712 3.531 3.531 0 011.206 2.825 4.494 4.494 0 01-1.13 3.142 4.735 4.735 0 01-2.775 1.575 3.5 3.5 0 01-2.925-.7"/><path data-name="Path 9" d="M77.752 61.062a3 3 0 012.39-1.712v1.432a2.911 2.911 0 00-1.692.849 2.6 2.6 0 00-.69 1.978v-.014 4.186l-1.327.234v-7.868l1.328-.234z"/></g><path data-name="Path 10" d="M86.898 58.3l-.012.914-3.842 6.327 4-.705.009 1.3-5.891 1.039.012-.915 3.842-6.326-3.694.651.005-1.308z" fill="#a5242c"/><g data-name="Group 3" fill="#a5242c"><path data-name="Path 11" d="M94.151 58.907a2.389 2.389 0 00-1.964-.425 3.194 3.194 0 00-1.857 1.067 3.06 3.06 0 00-.77 2.15 2.423 2.423 0 00.777 1.909 2.255 2.255 0 001.959.488 3.1 3.1 0 001.914-1.108 3.212 3.212 0 00.76-2.117 2.234 2.234 0 00-.819-1.964m2.152 5.6a3.367 3.367 0 00-1.046 2.01c.021.3.182.408.487.354a1.579 1.579 0 00.559-.224v1.006a2.529 2.529 0 01-.958.374 1.052 1.052 0 01-1.385-1.078 4.163 4.163 0 011.009-2.223l.009-1.1a4.047 4.047 0 01-2.826 1.82 3.091 3.091 0 01-2.8-.8 3.683 3.683 0 01-1.143-2.82 4.534 4.534 0 011.05-3.065 4.257 4.257 0 012.607-1.546 3.07 3.07 0 013.108 1.12l-.005-1.463 1.328-.233z"/><path data-name="Path 12" d="M103.996 57.174a2.372 2.372 0 00-1.948-.428 3.2 3.2 0 00-1.873 1.071 3.07 3.07 0 00-.77 2.149 2.424 2.424 0 00.778 1.909 2.256 2.256 0 001.959.488 3.128 3.128 0 001.929-1.111 3.206 3.206 0 00.759-2.116 2.272 2.272 0 00-.834-1.962m.834-5.183l1.328-.235.006 11.016-1.328.234v-1.134a4.056 4.056 0 01-2.839 1.838 3.09 3.09 0 01-2.8-.8 3.686 3.686 0 01-1.144-2.82 4.55 4.55 0 011.05-3.066 4.25 4.25 0 012.607-1.544 3.053 3.053 0 013.113 1.134z"/><path data-name="Path 13" d="M113.596 53.593l1.48-.261-3.1 8.9c-.7 2.012-1.831 3.093-3.391 3.258v-1.274c.974-.093 1.527-.709 1.989-1.925l.165-.406-3.286-7.21 1.343-.237 2.574 5.762z"/><path data-name="Path 14" d="M7.274 93.116a2.369 2.369 0 00-1.948-.427 3.19 3.19 0 00-1.873 1.07 3.059 3.059 0 00-.769 2.15 2.42 2.42 0 00.776 1.909 2.265 2.265 0 001.96.488 3.132 3.132 0 001.927-1.111 3.207 3.207 0 00.761-2.117 2.277 2.277 0 00-.834-1.962m.833-5.183l1.328-.234.006 11.015-1.328.235.005-1.135a4.063 4.063 0 01-2.839 1.839 3.1 3.1 0 01-2.8-.8 3.681 3.681 0 01-1.142-2.82 4.535 4.535 0 011.049-3.065 4.252 4.252 0 012.606-1.545 3.054 3.054 0 013.113 1.134z"/></g><path data-name="Path 15" d="M11.625 98.329l-.009-4.783v-6.7l1.328-.234.01 11.487z" fill="#a5242c"/><g data-name="Group 4" fill="#a5242c"><path data-name="Path 16" d="M20.646 90.758a2.386 2.386 0 00-1.964-.425 3.188 3.188 0 00-1.857 1.068 3.06 3.06 0 00-.77 2.15 2.421 2.421 0 00.778 1.909 2.257 2.257 0 001.958.488 3.1 3.1 0 001.914-1.108 3.212 3.212 0 00.76-2.117 2.235 2.235 0 00-.819-1.965m.822-2.033l1.328-.235v7.869l-1.328.234.007-1.119a4.048 4.048 0 01-2.826 1.821 3.091 3.091 0 01-2.8-.8 3.678 3.678 0 01-1.142-2.82 4.535 4.535 0 011.049-3.065 4.257 4.257 0 012.607-1.546 3.074 3.074 0 013.109 1.121z"/><path data-name="Path 17" d="M32.887 84.933l-2.4.423-.006 4.344 2.138-.377a2.7 2.7 0 002.355-2.713 1.584 1.584 0 00-2.091-1.677m-.051-1.36a2.931 2.931 0 012.542.575 2.958 2.958 0 011.015 2.37 4.042 4.042 0 01-.955 2.7 4.46 4.46 0 01-2.733 1.457l-2.214.39v3.934l-1.421.25-.006-11.014z"/><path data-name="Path 18" d="M43.571 90.807a3.111 3.111 0 00.789-2.217 2.221 2.221 0 00-.8-1.873 2.284 2.284 0 00-1.884-.423 3.38 3.38 0 00-1.87 1.085 3.261 3.261 0 00-.81 2.189 2.343 2.343 0 00.8 1.937 2.286 2.286 0 001.88.392 3.2 3.2 0 001.9-1.09m-4.7 1.71a3.426 3.426 0 01-1.235-2.852 4.545 4.545 0 011.182-3.119 4.86 4.86 0 012.836-1.585 3.332 3.332 0 012.833.711 3.533 3.533 0 011.206 2.825 4.49 4.49 0 01-1.13 3.143 4.741 4.741 0 01-2.775 1.575 3.5 3.5 0 01-2.925-.7"/></g><path data-name="Path 19" d="M47.452 92.012l-.009-4.783v-6.7l1.327-.234.012 11.487z" fill="#a5242c"/><g data-name="Group 5"><path data-name="Path 20" d="M50.611 89.755l1.083-.82a1.682 1.682 0 001.982.894c.9-.159 1.481-.623 1.487-1.3 0-1.669-4.341-.068-4.325-3.014a2.322 2.322 0 01.71-1.683 3.254 3.254 0 011.819-.935 2.693 2.693 0 012.936 1.12l-1.067.818a1.437 1.437 0 00-1.712-.69 1.424 1.424 0 00-1.334 1.274c0 .629.671.857 1.508.961 1.231.114 2.81.323 2.8 2.071-.008 1.386-1.048 2.356-2.712 2.65a2.763 2.763 0 01-3.18-1.344" fill="#a5242c"/></g><path data-name="Path 21" d="M64.621 81.116l-3.654 4.452 3.793 3.392-1.527.269-3.577-3.241.005 3.871-1.328.234-.006-11.015 1.328-.234.008 6.561 3.247-3.988z" fill="#a5242c"/><g data-name="Group 6" fill="#a5242c"><path data-name="Path 22" d="M66.15 88.715v-7.868l1.328-.235v7.869zm-.22-10.175a1.07 1.07 0 01.88-1.084.764.764 0 01.906.77 1.1 1.1 0 01-.9 1.071.742.742 0 01-.889-.757"/><path data-name="Path 23" d="M69.514 87.256a1.183 1.183 0 01.988-1.181.833.833 0 011 .861 1.191 1.191 0 01-1 1.185.823.823 0 01-.987-.865"/><path data-name="Path 24" d="M68.689 30.559l-1.029-8.693v-7.1l6.293-1.109v7.1l-1.069 9.062zm-1.259 6.15a4.029 4.029 0 013.35-3.892 2.79 2.79 0 013.316 2.859 3.968 3.968 0 01-3.349 3.892 2.79 2.79 0 01-3.317-2.859"/></g><path data-name="Path 25" d="M21.049 5.155L0 8.866v47.623l21.47-3.786 21.049-3.711v-4.92l-19.047 3.359-18.627 3.284V12.932l19.047-3.359 18.627-3.284v-4.92z" fill="#a5242c"/><g data-name="Group 7"><path data-name="Path 26" d="M42.519 55.121V50.2l18.4-3.244 15.271-2.693a4.844 4.844 0 004.005-4.771V5.774L61.341 9.099l-18.819 3.319V7.496l20.82-3.67L85.042 0v39.556a9.614 9.614 0 01-7.944 9.468l-13.333 2.351z" fill="#a5242c"/></g><path data-name="Path 27" d="M28.083 14.642v5.465l-6.293 1.11v19.39l-5.593.986V22.207l-6.293 1.109v-5.468z" fill="#a5242c"/><g data-name="Group 8"><path data-name="Path 28" d="M39.877 28.539c0-2.662-1.72-4.027-4.132-3.6a4.932 4.932 0 00-4.118 5.057c0 2.662 1.683 4.034 4.095 3.608a5 5 0 004.161-5.028zm.02-8.878l5.244-.925v17.757l-5.284.925V36.21a8.074 8.074 0 01-4.952 2.577 6.523 6.523 0 01-6.343-1.829 8.918 8.918 0 01-2.256-6.452 11.352 11.352 0 012.212-6.674 9.179 9.179 0 016.083-3.735 5.623 5.623 0 015.3 1.443z" fill="#a5242c"/></g><path data-name="Path 29" d="M39.897 19.661l2.622-.462 2.621-.462z" fill="#a5242c"/><path data-name="Path 30" d="M65.874 39.93l-6.342-7.756 6.209-9.967-6.047 1.066-5.006 8.236V17.045l-5.245.924v24.858l5.245-.925v-8.113l5.593 7.128z" fill="#a5242c"/></g></svg>