<svg xmlns="http://www.w3.org/2000/svg" width="300" height="301.528"><defs><clipPath id="a"><path data-name="Rectangle 88" fill="none" d="M0 0h300v301.528H0z"/></clipPath></defs><g data-name="Group 130" clip-path="url(#a)"><path data-name="Path 745" d="M275.09 150.741A125.229 125.229 0 11149.862 25.513 125.228 125.228 0 01275.09 150.741" fill="#fff"/><path data-name="Path 746" d="M197.59 7.293C138-12.274 71.345 8.539 32.633 57.625-6.1 106.736-11.092 176.8 21.623 230.366c33.243 54.431 99.312 81.82 161.358 67.315C251.329 281.7 299.33 218.7 300 149.176c-.615-63.8-41.361-121.833-102.41-141.883m-2.6 280.437c-56.808 17.964-120.4-1.353-157.672-47.789C-.329 193.03-5.287 125.3 26.781 74.074 59 22.611 121.91-2.694 180.942 10.564c65.88 14.794 112.79 74.649 113.436 141.735-.592 61.494-40.444 116.792-99.387 135.432" fill="#a5242c"/><path data-name="Path 747" d="M215.83 176.233c1.1-6.667-.017-14.382-.017-20.58a3.185 3.185 0 00-.166-1.071c-1.782-11.621-14.717-16.621-25.051-18.819a78.4 78.4 0 00-22.987-1.37c.414-5.486-.249-11.391-.349-16.445 1.031-6.262.116-13.443 0-19.428 1.1-6.667-.015-14.382-.015-20.578a3.167 3.167 0 00-.166-1.071c-1.785-11.618-14.718-16.618-25.052-18.818-15.32-3.256-34.987-2.254-48.248 7.033-5.114 3.58-9.474 9.187-9.763 15.274a2.842 2.842 0 00-.1.7c0 6.058-1.266 14.037-.019 20.632-.139 5.883-1.166 13.258 0 19.428-.139 5.886-1.166 13.26 0 19.428-.139 5.886-1.166 13.26 0 19.428-.139 5.883-1.166 13.258 0 19.426-.181 7.607-1.865 17.715 1.655 24.465 7.542 14.472 31.827 16.07 45.673 14.881.428-.037.871-.085 1.308-.131a17.86 17.86 0 001.588 4.678c7.542 14.47 31.827 16.068 45.673 14.883 12.158-1.044 28.44-5.156 34.3-17.287 3.478-7.208 1.9-17.28 1.742-25.234 1.031-6.262.116-13.44 0-19.426m-5.636 40.577c-3.11 14.546-30.532 15.287-41.689 14.237-9.395-.884-24.523-3.832-29.157-13.426a13.8 13.8 0 01-1.071-3.206c-.052-.245-.135-.474-.175-.726-.116-.775-.2-1.561-.268-2.353q-.09-1.135-.121-2.287a22.242 22.242 0 002.451 1.965q1.1.767 2.318 1.447l.029.017c.189.114.395.208.588.32.247.141.507.274.763.414a36.879 36.879 0 004.353 2.029c8.293 3.185 18.278 4 26.38 3.79.609-.008 1.2-.023 1.748-.046a71.945 71.945 0 003.335-.227c.035 0 .075 0 .112-.008.721-.06 1.457-.135 2.2-.22.393-.044.8-.1 1.2-.152.143-.019.285-.033.43-.054a60.059 60.059 0 0017.016-4.669c.089-.042.179-.081.268-.125.347-.164.692-.326 1.033-.5a29.629 29.629 0 008.692-6.289 39.661 39.661 0 01-.439 10.068m-90.258-5.191c-10.578-.994-28.455-4.584-30.4-17.355a38.467 38.467 0 01-.391-4.642 24.852 24.852 0 004.767 3.41.169.169 0 00.037.021c.185.112.389.206.578.314 8.987 5.2 21.632 6.488 31.5 6.237.609-.01 1.2-.023 1.75-.046a76.8 76.8 0 003.21-.216c.079-.008.162-.012.239-.017.152-.015.31-.031.464-.048.26-.025.507-.042.769-.069-.114 3.848-.572 8.3-.543 12.623a87.839 87.839 0 01-11.977-.212m-14.635-145.38a69.449 69.449 0 0132.49-1.376c7.894 1.509 21.376 5.426 23.553 14.644a10.857 10.857 0 01.249 1.418c.006.05.021.094.025.141 0 1.6.089 3.3.2 5.031.129 2.083.274 4.218.331 6.326a37.5 37.5 0 01-.316 6.511l-.008.044c-.064.426-.112.859-.2 1.27-.006.033-.019.064-.027.1l-.006.029a12.046 12.046 0 01-1.472 3.644 13.973 13.973 0 01-2.74 3.2 19.41 19.41 0 01-2.8 2.019c-.135.083-.266.168-.4.247-8.2 4.69-21.126 5.557-29.812 5.266h-.1c-.3-.01-.59-.021-.873-.033h-.12a69.682 69.682 0 01-3.337-.227 92.439 92.439 0 01-2.59-.289c-.549-.069-1.1-.135-1.667-.218h-.006c-6.239-.906-13.636-2.746-19-6.4a23.7 23.7 0 01-1.622-1.2 17.677 17.677 0 01-2.1-2.069 14.146 14.146 0 01-2.979-5.368c-.042-.137-.067-.285-.1-.424a14 14 0 01-.331-1.385 39.007 39.007 0 01-.4-4.881v-.154a.807.807 0 00.067.064 21.793 21.793 0 001.657 1.491 32.822 32.822 0 0010.041 5.289c.536.183 1.067.376 1.611.538a59.257 59.257 0 005.979 1.462 84.182 84.182 0 008.9 1.2c2.43.2 4.753.318 6.846.366a2.66 2.66 0 001.6-.588 6.943 6.943 0 002.135-2.919.515.515 0 00.021-.06 5.848 5.848 0 00.366-1.391c.139-1.127-.2-2.019-1.256-2.143-.064-.008-.116-.029-.187-.033-10.233-.227-21.3-1.565-30.051-7.332-.023-.017-.048-.027-.073-.044a27.988 27.988 0 01-1.6-1.143 23.215 23.215 0 01-2.26-1.965 11.225 11.225 0 01-3.264-5.376 6.652 6.652 0 01-.137-1.368c0-.089-.006-.175 0-.264a6.689 6.689 0 01.087-.83c1.042-5.967 10.806-9.335 15.692-10.806m104.595 90.963a10.947 10.947 0 01.249 1.42c.006.048.023.094.027.141 0 1.6.087 3.3.2 5.031.127 2.081.272 4.218.328 6.324a37.52 37.52 0 01-.316 6.513l-.006.044c-.067.424-.114.859-.2 1.268-.008.035-.021.064-.029.1l-.006.027a11.993 11.993 0 01-1.472 3.644 13.825 13.825 0 01-2.738 3.2 18.99 18.99 0 01-2.8 2.023c-.135.081-.264.168-.4.247-8.2 4.69-21.128 5.557-29.814 5.266h-.058c-.31-.006-.617-.019-.917-.031h-.015a70.144 70.144 0 01-3.434-.233c-.272-.025-.57-.062-.85-.089a92.946 92.946 0 01-1.742-.2 78.454 78.454 0 01-1.478-.193c-.062-.01-.121-.015-.183-.025h-.01c-.68-.1-1.374-.21-2.077-.333a67.807 67.807 0 01-3.786-.769c-.031-.006-.064-.015-.1-.023a53.606 53.606 0 01-3.738-1 43.628 43.628 0 01-3.089-1.083 30.929 30.929 0 01-6.214-3.2c-.563-.38-1.106-.78-1.62-1.206a17.37 17.37 0 01-2.106-2.066 14.624 14.624 0 01-2.166-3.243l-.008-.021a13.794 13.794 0 01-.8-2.1c-.04-.137-.064-.285-.1-.426-.056-.216-.11-.434-.156-.655-.052-.247-.135-.474-.175-.726-.116-.775-.2-1.561-.268-2.358 0-.037 0-.079-.006-.118a43.3 43.3 0 01-.118-2.41v-.152a.757.757 0 00.067.062 21.755 21.755 0 001.637 1.49c.279.227.563.443.854.657l.146.11a28.491 28.491 0 003.572 2.2 37.2 37.2 0 004.391 1.96c.021.008.042.012.062.021.333.123.68.225 1.017.341.536.183 1.069.374 1.611.541a60.523 60.523 0 005.979 1.457c1.4.272 2.8.491 4.183.682l.064.008.341.048c.112.015.2.029.306.042.661.085 1.314.158 1.967.227l.443.05c.023 0 .046 0 .069.006.514.05 1.021.1 1.528.139.137.012.272.023.41.033h.017c.339.025.68.056 1.015.079 1.9.133 3.73.214 5.405.252a2.675 2.675 0 001.6-.586 6.922 6.922 0 002.133-2.919l.023-.06a5.967 5.967 0 00.364-1.388c.139-1.127-.2-2.021-1.256-2.143a1.322 1.322 0 00-.185-.031c-2.576-.058-5.2-.187-7.834-.439-.279-.025-.557-.069-.836-.1q-1.194-.125-2.387-.285c-.372-.052-.744-.1-1.114-.158-.387-.062-.769-.141-1.156-.208q-1.787-.306-3.549-.721l-.191-.046-.1-.025q-1.852-.449-3.655-1.035a40.55 40.55 0 01-2.954-1.064l-.062-.027a36.129 36.129 0 01-6.216-3.227c-.025-.017-.05-.027-.075-.044a30.198 30.198 0 01-1.6-1.143 22.926 22.926 0 01-2.26-1.967c-.2-.2-.4-.4-.584-.613a12.887 12.887 0 01-1.859-2.582l-.012-.021a9.322 9.322 0 01-.466-1.019 7.409 7.409 0 01-.341-1.141 6.55 6.55 0 01-.129-1.052c-.006-.1-.01-.21-.01-.316 0-.087-.006-.175 0-.262a6.726 6.726 0 01.087-.829c.021-.114.067-.225.091-.335a6.591 6.591 0 01.545-1.489c.025-.048.042-.094.067-.141 1.844-3.445 6.611-5.856 10.748-7.42a64.804 64.804 0 014.243-1.424h.017a58.709 58.709 0 015.8-1.4c.222-.046.447-.089.669-.131l.183-.035c.385-.071.763-.16 1.15-.222.609-.1 1.224-.162 1.838-.243.3-.04.6-.079.9-.116.584-.069 1.164-.152 1.75-.206h.031c.4-.04.8-.052 1.208-.081a72.694 72.694 0 0118.941 1.06c7.894 1.516 21.376 5.43 23.553 14.646m-7.174 49.411c-8.2 4.688-21.12 5.557-29.806 5.266l-.154-.006c-.274-.008-.553-.019-.821-.029-.044 0-.087-.006-.131-.006a71.757 71.757 0 01-3.326-.229 91.62 91.62 0 01-2.58-.287 74.038 74.038 0 01-7.644-1.347 53.606 53.606 0 01-3.738-1 45.875 45.875 0 01-3.008-1.052c-5.3-2.046-9.954-5.12-12.187-9.744l-.008-.019a13.877 13.877 0 01-.8-2.1c-.04-.139-.064-.285-.1-.424-.056-.218-.11-.435-.156-.659-.052-.245-.135-.47-.175-.723-.116-.773-.2-1.561-.268-2.358 0-.039 0-.077-.006-.118q-.084-1.073-.114-2.166a21.3 21.3 0 001.617 1.355c.222.168.443.341.674.5.052.035.108.071.16.108q1.1.764 2.316 1.443l.035.021c.191.106.385.21.578.314.252.143.514.279.769.416a36.153 36.153 0 004.3 2.01l.054.025c.243.094.5.164.744.254a58.142 58.142 0 0012.21 2.869c.9.118 1.8.21 2.7.3q1.235.119 2.455.2c2.871.189 5.663.239 8.262.173.609-.01 1.2-.023 1.753-.046a77.272 77.272 0 003.324-.225c.04 0 .083-.006.123-.008a87.104 87.104 0 002.2-.22c.4-.048.794-.1 1.2-.152.143-.019.285-.037.43-.058a66.092 66.092 0 0012.4-2.823 46.69 46.69 0 004.619-1.846l.268-.123c.349-.162.692-.328 1.033-.5a33.969 33.969 0 005.148-3.127 26.01 26.01 0 002.626-2.214c.316-.308.622-.626.919-.948.04.751.067 1.5.085 2.245a37.5 37.5 0 01-.316 6.511l-.006.042c-.067.426-.114.859-.2 1.272-.008.031-.021.064-.029.1l-.006.029c-.9 4.012-3.659 6.965-7.416 9.114m-79.379-14.2a69.865 69.865 0 01-6.018-.522c-.549-.067-1.1-.135-1.667-.218h-.006c-9.942-1.441-22.848-5.229-25.706-15.039-.042-.137-.064-.285-.1-.424a14.1 14.1 0 01-.331-1.383c-.021-.139-.029-.279-.048-.414a39.5 39.5 0 01-.343-4.227q.767.708 1.62 1.353a27.39 27.39 0 003.15 2.058l.031.017c.187.114.393.208.584.318a36.72 36.72 0 005.865 2.7c8.143 2.954 17.767 3.734 25.631 3.532.609-.008 1.2-.021 1.75-.044a81.918 81.918 0 003.247-.222c.064-.006.135-.008.2-.015.135-.01.274-.027.414-.039.274-.027.541-.046.819-.073-.112 3.827-.565 8.251-.543 12.551v.069c-2.7.133-5.272.137-7.553.06h-.058c-.31-.006-.62-.019-.917-.031h-.021m35.155-79.657a26.043 26.043 0 002.624-2.216c.318-.306.624-.626.921-.948.037.748.064 1.5.085 2.243a37.51 37.51 0 01-.316 6.513l-.008.044c-.064.424-.112.857-.2 1.27-.006.033-.019.064-.027.1l-.006.025a12.036 12.036 0 01-1.472 3.646 13.963 13.963 0 01-2.74 3.2 18.955 18.955 0 01-2.8 2.021c-.135.081-.266.168-.4.247-8.2 4.69-21.128 5.559-29.814 5.266h-.058c-.31-.01-.62-.021-.917-.033h-.021a72.26 72.26 0 01-3.428-.235 92.198 92.198 0 01-2.59-.287c-.549-.069-1.1-.137-1.667-.22h-.006c-6.239-.9-13.636-2.744-19-6.4-.563-.38-1.108-.78-1.622-1.2a18 18 0 01-2.1-2.069 14.131 14.131 0 01-2.979-5.368c-.042-.139-.064-.285-.1-.424a13.963 13.963 0 01-.331-1.383c-.021-.137-.029-.277-.048-.414a39.5 39.5 0 01-.343-4.227c.511.474 1.052.923 1.62 1.355a27.446 27.446 0 003.148 2.056l.037.021c.185.112.389.2.578.312a36.488 36.488 0 005.867 2.7c.615.222 1.233.439 1.863.638a55.893 55.893 0 005.8 1.466 73.922 73.922 0 008.513 1.177c2.563.206 5.037.26 7.422.252.7.008 1.383.008 2.029 0 .609-.008 1.2-.023 1.75-.044.268-.012.568-.042.842-.058.339-.019.653-.044.983-.064.536-.037 1.048-.056 1.6-.108a67.51 67.51 0 002.237-.225c.378-.046.763-.1 1.15-.146l.466-.062c2.073-.279 4.2-.644 6.349-1.129a59.017 59.017 0 006.046-1.7c.491-.166.979-.337 1.462-.52a43.18 43.18 0 003.162-1.326c.087-.039.177-.079.264-.121.349-.162.692-.331 1.033-.5a34.092 34.092 0 005.15-3.127m3.63 18.509c.035 1.3.025 2.58-.042 3.834-.516.089-1.027.2-1.538.3a55.664 55.664 0 00-8.476 2.382c-.264.1-.53.193-.794.3a45.4 45.4 0 00-5.476 2.568 40.153 40.153 0 00-3.476 2.143c-.037.025-.075.056-.112.083a24.142 24.142 0 00-8.619 10.48l-.037.089a93.195 93.195 0 01-9.216.156h-.1c-.3-.012-.59-.021-.873-.033h-.01l-.11-.006a69.682 69.682 0 01-3.337-.227 85.497 85.497 0 01-2.59-.289c-.549-.067-1.1-.135-1.667-.218h-.006c-6.239-.906-13.636-2.744-19-6.4a22.507 22.507 0 01-1.622-1.206 17.837 17.837 0 01-2.1-2.069 14.138 14.138 0 01-2.979-5.366c-.042-.139-.064-.285-.1-.426a13.729 13.729 0 01-.331-1.385c-.021-.135-.029-.274-.048-.412a39.47 39.47 0 01-.343-4.222q.767.708 1.62 1.351a26.381 26.381 0 003.148 2.056.168.168 0 00.037.021c.185.112.389.206.578.316a36.851 36.851 0 005.867 2.7c.615.22 1.233.437 1.863.632a54.876 54.876 0 005.8 1.47 73.47 73.47 0 008.513 1.177c2.565.2 5.041.262 7.426.254a69.87 69.87 0 003.775-.048c.274-.012.578-.042.859-.056l.682-.046c.628-.042 1.233-.069 1.888-.127a74.44 74.44 0 002.22-.222c.4-.05.8-.1 1.2-.156a73.748 73.748 0 006.779-1.185 59.529 59.529 0 006.046-1.692 45.36 45.36 0 004.622-1.846c.089-.044.179-.081.268-.125.347-.16.69-.328 1.033-.5a33.889 33.889 0 005.147-3.125 26.3 26.3 0 002.624-2.214c.318-.31.624-.628.921-.95.037.751.064 1.5.085 2.245M89.485 154.99a39.47 39.47 0 01-.343-4.222q.767.7 1.62 1.353a26.828 26.828 0 003.15 2.054l.031.021c.189.114.4.208.586.318a36.683 36.683 0 005.863 2.7c.615.225 1.233.439 1.863.638a55.474 55.474 0 005.8 1.468 73.112 73.112 0 008.515 1.175c2.568.206 5.046.262 7.432.254.7.008 1.374.008 2.017 0 .611-.008 1.2-.021 1.753-.046.268-.012.568-.04.842-.056.333-.017.64-.044.963-.064.543-.037 1.06-.058 1.624-.106.414-.037.832-.077 1.254-.123 0 .083-.006.17-.008.254-.127 3.771-.557 8.093-.534 12.3v.071c-2.7.133-5.27.137-7.551.06h-.1c-.3-.008-.59-.019-.873-.033h-.121a69.513 69.513 0 01-3.337-.229 85.29 85.29 0 01-2.59-.287c-.549-.069-1.1-.137-1.667-.218h-.006c-6.239-.9-13.636-2.744-19-6.4a21.948 21.948 0 01-1.622-1.208 17.365 17.365 0 01-2.1-2.069 14.116 14.116 0 01-2.979-5.368c-.042-.135-.067-.283-.1-.422a13.864 13.864 0 01-.331-1.385c-.021-.133-.029-.274-.048-.41v-.006" fill="#a5242c"/></g></svg>