<svg xmlns="http://www.w3.org/2000/svg" width="300" height="301.528"><defs><clipPath id="a"><path data-name="Rectangle 83" fill="#a5242c" d="M0 0h300v301.528H0z"/></clipPath></defs><g data-name="Group 114" clip-path="url(#a)"><path data-name="Path 691" d="M275.085 150.741A125.227 125.227 0 11149.862 25.513a125.226 125.226 0 01125.223 125.228" fill="#fff"/><path data-name="Path 692" d="M294.379 152.3c-.592 61.491-40.444 116.793-99.388 135.433-56.807 17.962-120.4-1.355-157.671-47.793C-.328 193.032-5.289 125.3 26.781 74.077 59 22.608 121.911-2.694 180.941 10.563c65.882 14.8 112.791 74.651 113.438 141.736.044 4.58 5.648-.15 5.621-3.12-.615-63.8-41.361-121.835-102.411-141.884C138-12.274 71.345 8.538 32.633 57.628-6.1 106.739-11.093 176.8 21.623 230.368c33.242 54.427 99.311 81.817 161.359 67.312C251.33 281.7 299.328 218.7 300 149.179c.044-4.565-5.592.162-5.621 3.12" fill="#a5242c"/><path data-name="Path 693" d="M229.55 95.374h8.368c3.823 0 5.944 1.16 4.9-1.817.761 2.16 0 5.908 0 8.166v109.508q2.074-2.566 4.152-5.127H82.494c-5.707 0-13.33-1.335-18.927 0-.285.067-.225 3.133.709.364.911-2.707 0-7.536 0-10.355V90.247l-4.152 5.127h95.762c3.037 0 6.016-7.133 2.682-7.133H62.807c-2.422 0-4.152 2.954-4.152 5.127v117.863c0 .829.455 2 1.47 2h184.159c2.422 0 4.15-2.954 4.15-5.125V90.247c0-.829-.453-2.006-1.468-2.006h-14.734c-3.035 0-6.016 7.133-2.682 7.133" fill="#a5242c"/><path data-name="Path 694" d="M222.761 66.996l-51.034 51.036c-6.946 6.944-13.943 16.413-22.039 22.037-.751.52 2.555.428-1.175-.262a37.873 37.873 0 00-10.056 0c-2.611.358-.63.832-.518 1.193-.4-1.287 0-3.229 0-4.582v-9.339l-2.046 4.274q36.833-36.831 73.665-73.664-1.59.118-3.183.233 11.052 11.049 22.1 22.1.823-2.832 1.651-5.659l-44.2 44.2c-2.3 2.3-2.058 9.016 1.532 5.428l44.2-44.2c1.01-1.01 3.177-4.135 1.653-5.657q-11.049-11.052-22.1-22.1a2.2 2.2 0 00-3.183.229l-48.29 48.291c-7.865 7.865-15.927 15.575-23.613 23.613-5.549 5.8-3.8 13.014-3.8 20.767 0 .832.453 2.006 1.468 2.006 7.384 0 14 1.811 19.4-3.418 8.2-7.931 16.141-16.141 24.205-24.205q23.44-23.448 46.893-46.895c2.3-2.3 2.058-9.014-1.53-5.426" fill="#a5242c"/><path data-name="Path 695" d="M89.59 124.841h36.833c3.035 0 6.014-7.133 2.682-7.133H92.272c-3.035 0-6.016 7.133-2.682 7.133" fill="#a5242c"/><path data-name="Path 696" d="M89.59 154.306h29.465c3.037 0 6.016-7.133 2.682-7.133H92.272c-3.035 0-6.016 7.133-2.682 7.133" fill="#a5242c"/><path data-name="Path 697" d="M89.59 183.773h51.564c3.037 0 6.016-7.133 2.682-7.133H92.272c-3.035 0-6.016 7.133-2.682 7.133" fill="#a5242c"/><path data-name="Path 698" d="M164.23 177.569c18.752-2.8 40.356-9.468 54.971-22.182 12.224-10.634 6.37-23.679-9.538-22.854a40.793 40.793 0 00-35 24.733c-5.147 12.561.185 30.972 16.727 27.558 2.85-.586 5.231-7.817 1.322-7.01a12.1 12.1 0 01-13.923-7.825c-3.382-8.744 2.906-18.1 9.49-23.232 5.929-4.628 22.981-12.037 29.9-5.12 8.492 8.492-21.372 20.365-26.039 22.155a125.461 125.461 0 01-26.588 6.771c-2.881.43-5.312 7.6-1.322 7.01" fill="#a5242c"/></g></svg>