<svg id="Group_88" data-name="Group 88" xmlns="http://www.w3.org/2000/svg" xmlns:xlink="http://www.w3.org/1999/xlink" width="532" height="376.781" viewBox="0 0 532 376.781">
  <defs>
    <clipPath id="clip-path">
      <rect id="Rectangle_68" data-name="Rectangle 68" width="532" height="376.781" fill="#fff"/>
    </clipPath>
  </defs>
  <g id="Group_88-2" data-name="Group 88" clip-path="url(#clip-path)">
    <path id="Path_423" data-name="Path 423" d="M456.176,296.346,0,376.781V93.806L532,0V205.98a91.76,91.76,0,0,1-75.824,90.366" fill="#a5242c"/>
    <path id="Path_424" data-name="Path 424" d="M55.047,155.412l8.407-6.36c2.155,4.878,6.233,6.828,12.148,5.784,5.4-.952,8.2-3.656,8.215-7.013.149-3.914-2.935-4.971-10.522-6.072-5.091-.779-9.154-2.2-12.023-4.206-2.883-2.083-4.322-5.489-4.3-10.142a15.516,15.516,0,0,1,4.716-11.732,21.719,21.719,0,0,1,11.634-5.787c8.5-1.5,15.453,1.62,19.406,8.471l-8.11,6.308c-2.6-3.961-6.013-5.57-10.375-4.8-4.141.729-6.685,3.161-6.815,6.308-.175,3.766,2.934,4.971,10.166,6.212,1.891.352,2.818.418,4.736.917a20.9,20.9,0,0,1,6.628,2.567c3.164,1.957,5.49,5.2,5.446,11.007-.07,9.54-7.008,16.023-17.876,17.939C66.1,166.65,58.29,163,55.047,155.412" transform="translate(13.827 27.509)" fill="#fff"/>
    <path id="Path_425" data-name="Path 425" d="M124.724,116.536l-14.6,21.4,15.053,16.631-10.349,1.825-13.637-15.508.033,17.907-9.535,1.682-.033-53.352,9.537-1.682.036,31.322,12.182-18.231Z" transform="translate(23.023 26.485)" fill="#fff"/>
    <path id="Path_426" data-name="Path 426" d="M145.438,110.707l9.535-1.682.013,38.111-9.535,1.682.035-4.121a14.71,14.71,0,0,1-10.573,7.047c-4.14.731-7.566-.114-10.342-2.445s-4.1-5.984-4.11-10.785l-.01-23.4,9.535-1.68.025,22.177c0,5.184,2.893,7.342,7.329,6.559,4.511-.795,7.662-4.1,8.129-9.665Z" transform="translate(30.255 27.385)" fill="#fff"/>
    <path id="Path_427" data-name="Path 427" d="M168.5,117.578l-.024,15.859c.013,3.963,2.208,3.879,8.353,2.415l.046,8.911c-12.158,3.667-17.95.649-17.937-9.643l.025-15.86-6.432,1.134.01-9.454,6.359-1.12.014-7.7,9.547-4.656-.025,10.675,8.429-1.485-.084,9.466Z" transform="translate(38.312 24.481)" fill="#fff"/>
    <path id="Path_428" data-name="Path 428" d="M212.882,121.632l-27.944,4.928c1.2,4.664,5.144,6.258,10.1,5.384a12.118,12.118,0,0,0,8.428-5.374l7.68,4.211c-3.319,5.386-8.445,8.73-15.322,9.942-6.137,1.082-11.132-.019-15-3.376s-5.827-7.968-5.869-13.829a21.367,21.367,0,0,1,5.182-14.711,21.836,21.836,0,0,1,13.538-7.951c5.47-.965,10.1.2,13.942,3.411s5.685,7.611,5.615,13.264a14.3,14.3,0,0,1-.345,4.1m-9.151-6.084c-.961-5.015-4.631-6.806-9.141-6.012-4.952.875-8.4,4.225-9.637,9.323Z" transform="translate(43.943 25.251)" fill="#fff"/>
    <path id="Path_429" data-name="Path 429" d="M215.1,131.306c-3.871-3.358-5.9-7.954-5.943-13.817a21.794,21.794,0,0,1,5.095-14.771,22.391,22.391,0,0,1,13.7-7.9c7.613-1.343,13.9,1.436,17.294,6.86l-7.844,6.108c-1.889-2.943-4.763-4.114-8.608-3.436a12.063,12.063,0,0,0-7.193,4.164,11.765,11.765,0,0,0-2.815,7.814c.083,6.086,4.253,9.847,9.944,8.843a10.724,10.724,0,0,0,8.293-6.57l8.563,3.6c-2.688,6.8-8.682,11.287-16,12.577-5.692,1-10.54-.123-14.484-3.467" transform="translate(52.536 23.732)" fill="#fff"/>
    <path id="Path_430" data-name="Path 430" d="M268.875,88.729l.012,6.552-15.256,25.024L269.6,117.49l.025,9.219-29.275,5.162.063-6.566,15.178-25.011L241.1,102.849l.049-9.231Z" transform="translate(60.372 22.287)" fill="#fff"/>
    <path id="Path_431" data-name="Path 431" d="M299.176,86.554c2.774,2.331,4.1,5.984,4.113,10.785l.01,23.4-9.538,1.682-.023-22.178c0-5.182-2.9-7.341-7.331-6.559-4.511.8-7.664,4.1-8.128,9.667l.03,21.8-9.537,1.682-.013-38.111,9.538-1.682-.036,4.123a14.7,14.7,0,0,1,10.573-7.048c4.141-.731,7.567.114,10.341,2.445" transform="translate(67.509 21.063)" fill="#fff"/>
    <path id="Path_432" data-name="Path 432" d="M331.219,78.127l9.535-1.682.013,38.111-9.536,1.682-.008-3.5a17.659,17.659,0,0,1-11.492,6.6c-5.544.977-10.048-.362-13.5-3.947s-5.112-8.244-5.03-13.823a23.921,23.921,0,0,1,4.764-14.486,19.629,19.629,0,0,1,12.8-7.821c5.249-.925,9.371.407,12.441,3.981Zm.034,19.66-.059-1.209c-.243-6.131-4.692-9.31-10.31-8.319-5.841,1.03-10.03,5.807-10,12.434-.013,6.406,4.29,10.068,10.2,9.025a12.325,12.325,0,0,0,10.168-11.931" transform="translate(75.656 19.202)" fill="#fff"/>
    <path id="Path_433" data-name="Path 433" d="M99.249,192.7l10.5-1.85L98,231.03l-9.094,1.6-6.82-21.817-6.265,24.125-9.609,1.694L54.449,200.6l9.535-1.68,6.665,22.226L77,196.621l9.241-1.629,6.9,22.261Z" transform="translate(13.677 47.938)" fill="#fff"/>
    <path id="Path_434" data-name="Path 434" d="M99.59,221.265l7.82-5.8c1.52,3.01,4.234,4.133,8.079,3.455,3.178-.561,4.857-1.848,4.887-3.834-.068-2.123-3.147-2.724-6.965-3.193-5.484-.405-12.693-1.956-12.674-10.5a11.765,11.765,0,0,1,3.841-8.908,17.466,17.466,0,0,1,9.25-4.606c6.432-1.134,11.966.865,15.132,5.414l-7.819,5.8c-1.319-2.282-3.462-3.2-6.346-2.691s-4.325,1.829-4.39,4.051c.034,2.357,3.038,2.97,6.83,3.293,5.618.305,12.825,1.4,12.736,10.407.008,7.393-5.49,12.1-13.771,13.557-7.541,1.331-13.1-.813-16.609-6.446" transform="translate(25.015 47.115)" fill="#fff"/>
    <path id="Path_435" data-name="Path 435" d="M162.815,185.8a18.506,18.506,0,0,1,5.448,13.6,23.047,23.047,0,0,1-4.455,14.506,19.21,19.21,0,0,1-12.637,7.87c-5.4.952-9.755-.414-12.923-4.124l.044,20.572-9.537,1.682-.031-53.352,9.538-1.682.013,3.961a16.846,16.846,0,0,1,11.412-7.043,13.975,13.975,0,0,1,13.13,4.011m-14.337,5.577a12.479,12.479,0,0,0-10.246,11.488l.03,1.9c.378,6.032,4.8,9.064,10.417,8.073a11.646,11.646,0,0,0,7.132-4.078,12.339,12.339,0,0,0,2.8-8.344c.014-6.406-4.218-10.081-10.132-9.039" transform="translate(32.333 45.593)" fill="#fff"/>
    <path id="Path_436" data-name="Path 436" d="M184.758,219.123c-6.136,1.082-11.086-.18-14.907-3.7a17.812,17.812,0,0,1-5.6-14.03,22.86,22.86,0,0,1,5.383-14.44,22.147,22.147,0,0,1,13.712-7.831c5.692-1,10.494.284,14.253,3.89a17.788,17.788,0,0,1,5.7,13.707,22.053,22.053,0,0,1-5.281,14.576,21.518,21.518,0,0,1-13.255,7.826m-.977-9.431a11.683,11.683,0,0,0,7.044-4.14,11.829,11.829,0,0,0,2.824-8.2c.1-6.345-4.225-9.7-9.843-8.707-5.545.977-9.722,5.829-9.809,12.248-.014,6.406,4.239,9.773,9.784,8.8m-5.836-33.96,9.389-1.655,7.9-11.836L183.551,164.3Z" transform="translate(41.256 40.752)" fill="#fff"/>
    <path id="Path_437" data-name="Path 437" d="M215.664,174.974l.066,9.441-4.089,3.617.025,1.444.036,23.546-9.537,1.683-.024-18.29-3.954,3.517-.076-9.514,4.026-3.532-.025-27.818,9.535-1.682-.012,21.116Z" transform="translate(49.763 39.533)" fill="#fff"/>
    <path id="Path_438" data-name="Path 438" d="M250.5,170.342a18.525,18.525,0,0,1,5.448,13.6,23.064,23.064,0,0,1-4.455,14.506,19.217,19.217,0,0,1-12.639,7.869c-5.4.952-9.753-.414-12.922-4.124l.044,20.572-9.535,1.683-.031-53.352,9.535-1.683.014,3.963a16.852,16.852,0,0,1,11.411-7.044,13.983,13.983,0,0,1,13.132,4.011m-14.337,5.578a12.476,12.476,0,0,0-10.247,11.487l.03,1.9c.377,6.032,4.8,9.062,10.417,8.071A11.649,11.649,0,0,0,243.5,193.3a12.335,12.335,0,0,0,2.8-8.344c.013-6.4-4.216-10.081-10.131-9.037" transform="translate(54.359 41.709)" fill="#fff"/>
    <path id="Path_439" data-name="Path 439" d="M263,168.852q2.8-7.468,11.247-8.842l.03,10.97a11.406,11.406,0,0,0-11.274,11.288v18.6l-9.536,1.683-.013-38.111,9.537-1.682Z" transform="translate(63.665 40.192)" fill="#fff"/>
    <path id="Path_440" data-name="Path 440" d="M302.088,156.375l9.538-1.683.011,38.111-9.538,1.682-.006-3.5a17.66,17.66,0,0,1-11.491,6.6c-5.545.977-10.05-.362-13.5-3.946s-5.114-8.245-5.03-13.824a23.888,23.888,0,0,1,4.763-14.485,19.631,19.631,0,0,1,12.8-7.822c5.251-.925,9.373.408,12.442,3.981Zm.036,19.66-.061-1.21c-.241-6.131-4.691-9.31-10.309-8.319-5.841,1.03-10.028,5.807-10,12.434-.015,6.406,4.29,10.068,10.2,9.025a12.329,12.329,0,0,0,10.168-11.93" transform="translate(68.339 38.856)" fill="#fff"/>
    <path id="Path_441" data-name="Path 441" d="M315.084,186.787c-3.87-3.358-5.9-7.954-5.943-13.816a21.8,21.8,0,0,1,5.095-14.773,22.4,22.4,0,0,1,13.7-7.9c7.615-1.341,13.9,1.438,17.293,6.86l-7.841,6.108c-1.89-2.943-4.764-4.114-8.609-3.436a12.069,12.069,0,0,0-7.193,4.165,11.771,11.771,0,0,0-2.815,7.814c.084,6.084,4.253,9.846,9.944,8.842a10.72,10.72,0,0,0,8.293-6.569l8.563,3.6c-2.688,6.8-8.682,11.287-16,12.577-5.692,1-10.54-.121-14.484-3.467" transform="translate(77.649 37.668)" fill="#fff"/>
    <path id="Path_442" data-name="Path 442" d="M370.336,144.341l9.535-1.682.013,38.111-9.537,1.682-.009-3.506a17.648,17.648,0,0,1-11.491,6.6c-5.543.977-10.048-.362-13.5-3.946s-5.112-8.244-5.03-13.824a23.909,23.909,0,0,1,4.766-14.485,19.618,19.618,0,0,1,12.8-7.821c5.249-.926,9.371.407,12.44,3.981Zm.035,19.66-.06-1.209c-.244-6.131-4.692-9.311-10.31-8.32-5.841,1.03-10.03,5.808-10,12.436-.014,6.4,4.29,10.067,10.2,9.025A12.328,12.328,0,0,0,370.371,164" transform="translate(85.482 35.834)" fill="#fff"/>
  </g>
</svg>
