<svg id="download" xmlns="http://www.w3.org/2000/svg" xmlns:xlink="http://www.w3.org/1999/xlink" width="200" height="201.019" viewBox="0 0 200 201.019">
  <defs>
    <clipPath id="clip-path">
      <rect id="Rectangle_83" data-name="Rectangle 83" width="200" height="201.019" fill="#a5242c"/>
    </clipPath>
    <clipPath id="clip-path-2">
      <rect id="Rectangle_117" data-name="Rectangle 117" width="53.825" height="94.058" fill="none"/>
    </clipPath>
  </defs>
  <g id="Group_149" data-name="Group 149">
    <g id="Group_145" data-name="Group 145">
      <g id="Group_140" data-name="Group 140">
        <g id="Group_114" data-name="Group 114" clip-path="url(#clip-path)">
          <path id="Path_691" data-name="Path 691" d="M178.82,95.756A83.485,83.485,0,1,1,95.335,12.272,83.484,83.484,0,0,1,178.82,95.756" transform="translate(4.574 4.737)" fill="#fff"/>
          <path id="Path_692" data-name="Path 692" d="M196.252,101.533c-.395,40.994-26.963,77.862-66.259,90.289A98.045,98.045,0,0,1,24.879,159.96C-.219,128.688-3.526,83.532,17.854,49.385,39.336,15.072,81.274-1.8,120.627,7.042c43.921,9.864,75.194,49.767,75.625,94.491.029,3.053,3.766-.1,3.748-2.08-.41-42.535-27.574-81.223-68.274-94.589C92-8.183,47.563,5.692,21.755,38.419s-29.151,79.449-7.34,115.16c22.162,36.285,66.207,54.545,107.573,44.875,45.565-10.653,77.564-52.651,78.012-99,.029-3.044-3.728.108-3.748,2.08" transform="translate(0 0)" fill="#a5242c"/>
        </g>
      </g>
    </g>
    <g id="Group_148" data-name="Group 148" transform="translate(75.333 55.593)">
      <g id="Group_147" data-name="Group 147" clip-path="url(#clip-path-2)">
        <path id="Path_754" data-name="Path 754" d="M32.069,61.8C30.327,42.84,28.156,22.936,30.048,3.936c.742-7.443-7.527-2.926-8.021,2.037-1.984,19.922-.035,40.521,1.792,60.408.621,6.76,8.655-.176,8.25-4.58" transform="translate(0.363 0)" fill="#a5242c"/>
        <path id="Path_755" data-name="Path 755" d="M.5,44.693Q13.859,59.108,27.212,73.524c1.491,1.61,3.573-.385,4.348-1.736Q39.829,57.37,48.1,42.956c2.308-4.023-1.641-6.338-3.964-2.288Q35.866,55.083,27.6,69.5l4.347-1.737Q18.589,53.346,5.236,38.931C2.872,36.378-1.481,42.55.5,44.693" transform="translate(0 0.656)" fill="#a5242c"/>
        <path id="Path_756" data-name="Path 756" d="M51.7,80.49c-14.159,1.154-28.761,2.452-42.943,1.231C4.332,81.338-.218,91.754,4.822,92.188,19,93.41,33.606,92.113,47.765,90.958c2.7-.221,4.684-2.433,5.6-4.9.507-1.37,1.067-5.8-1.659-5.573" transform="translate(0.045 1.377)" fill="#a5242c"/>
      </g>
    </g>
  </g>
</svg>
