<svg xmlns="http://www.w3.org/2000/svg" width="421.997" height="421.997" viewBox="0 0 421.997 421.997">
  <g id="Group_176" data-name="Group 176" transform="translate(-1353.235 -2294.649)">
    <ellipse id="Ellipse_2" data-name="Ellipse 2" cx="210.998" cy="210.998" rx="210.998" ry="210.998" transform="translate(1353.235 2294.649)" fill="#fff"/>
    <g id="Group_174" data-name="Group 174" transform="translate(1448 2404.504)">
      <g id="Group_148" data-name="Group 148" transform="translate(75.333 55.593)">
        <g id="Group_175" data-name="Group 175">
          <path id="Path_754" data-name="Path 754" d="M40.682,110.749c-3.122-33.978-3.39-153.955,0-188C42.013-90.592,27.194-82.5,26.309-73.6,22.753-37.9,22.625,83.32,25.9,118.957c1.114,12.114,15.509-.315,14.784-8.208" transform="translate(17.436 0.001)" fill="#a5242c"/>
          <path id="Path_755" data-name="Path 755" d="M.9,49.739Q24.835,75.57,48.764,101.4c2.672,2.885,6.4-.691,7.792-3.111C66.435,81.069,118.861,20.1,128.74,2.881c4.136-7.209-2.94-11.357-7.1-4.1C111.758,16,59.332,76.968,49.453,94.192l7.79-3.113C41.289,73.856-16.662,14.039-32.616-3.181-36.852-7.756-44.653,3.3-41.1,7.144" transform="translate(0 31.528)" fill="#a5242c"/>
          <path id="Path_756" data-name="Path 756" d="M90.583,80.5C65.209,82.565-9.756,86.405-35.172,84.216c-7.932-.685-16.085,17.979-7.054,18.757,25.415,2.191,137.15-4.082,162.523-6.151,4.841-.4,8.393-4.36,10.027-8.773.908-2.455-2.973-9.986-2.973-9.986" transform="translate(2.147 66.211)" fill="#a5242c"/>
        </g>
      </g>
    </g>
  </g>
</svg>
