<svg id="email" xmlns="http://www.w3.org/2000/svg" xmlns:xlink="http://www.w3.org/1999/xlink" width="840" height="381.221" viewBox="0 0 840 381.221">
  <defs>
    <clipPath id="clip-path">
      <rect id="Rectangle_126" data-name="Rectangle 126" width="840" height="381.221" fill="none"/>
    </clipPath>
  </defs>
  <g id="Group_159" data-name="Group 159" clip-path="url(#clip-path)">
    <path id="Path_763" data-name="Path 763" d="M35.111,214.467c-47.284,2-37.535-70.4-23.886-102.048C22.437,86.066,42.423,72.794,64.843,74.2c37.05,7.6-11.208,75.583-30.223,83.32,0,9.259.978,22.735,4.878,29.361,9.746,17.289,49.721-26.8,75.553-68.4,19.014-22.849,8.778,5.274,2.928,15.082-15.111,29.959-48.259,78.7-82.868,80.9m1.462-70.939c8.774-13.243,34.122-45.984,27.785-57.54-1.953-3.558-6.334-3.269-10.724,2.866-13.649,20.928-16.577,32.166-17.061,54.674" transform="translate(-0.001 166.712)" fill="#ed6a5b"/>
    <path id="Path_764" data-name="Path 764" d="M74.81,91.762c18.036-2.691,36.56-5.473,54.6-9.142,9.746-1.716,18.036-.257,26.807,4.049-4.384,8.57-12.183,8.973-17.061,10.318-26.807,5.7-53.13,10.347-79.94,14.585C46.537,113.8,45.078,112.6,42.153,97.517c11.208-1.973,21.933-3.864,32.657-5.755" transform="translate(94.833 184.294)" fill="#ed6a5b"/>
    <path id="Path_765" data-name="Path 765" d="M323.123,144.038c-27.3,47.706-50.7,17.227-54.108-11.423-1.466-10.952-2.925-21.416-3.9-31.48-3.409-37.908-9.262-30.05-28.273,3.035-8.287,14.621-18.52,33.976-25.835,48.424-5.359,9.72-7.8,12.586-17.061,15.683-8.771,3.5-12.671,1.261-14.136-8.232-2.925-12.157-4.875-24.487-7.8-38.594-16.574,21.933-25.351,53.211-37.047,75.745-1.95,3.757-2.928,6.366-4.39,7.6-10.724,11.153-34.122,7.965-38.994-5.8-3.415-8.657-6.828-17.8-7.315-28.442A290.013,290.013,0,0,1,95.475,79.378c14.14-6.88,27.3-10.666,40.459-2.746-.972,27.467-3.409,55.684-4.384,83.639,7.312-13.477,23.4-43.608,32.169-52.467,9.265-9.434,20.477-8.485,24.861,5.85,2.925,9.726,5.85,19.931,9.262,32C211,122.86,229.527,86.937,246.1,69.879c13.161-14.019,34.122-24.539,37.044-4.095,3.412,17.922,5.85,34.064,7.8,50.784,5.362,40.97,27.782,18.007,44.356-21.474,6.828-15.829,25.835-15.764,14.624,3.76-7.8,14.533-17.061,29.816-26.807,45.184" transform="translate(189.209 122.288)" fill="#ed6a5b"/>
    <path id="Path_766" data-name="Path 766" d="M223.093,172.525c-7.312,12.989-19.014,19.437-32.172,22.732-8.287,2.434-15.111.715-19.989-5.245-2.437-2.987-4.875-5.479-5.85-9.21-10.233-31.828-10.721-64.888,10.727-98.89,18.033-29.992,58.983-44.525,85.3-31.129a23.373,23.373,0,0,0,13.161,1.579c14.624-1.605,14.624-1.605,11.215,13.62-3.415,15.716-6.337,31.341-9.262,47.456-.491,3.009,0,6.334,0,12.187,4.384-4.189,7.8-6.253,9.749-9.031,13.649-16.544,17.545-20.649,30.71-36.615,6.821-9,7.8-9.174,21.445-8.163a88.1,88.1,0,0,1-5.359,9.717c-13.652,18.491-18.036,24.627-32.172,43.205a78.409,78.409,0,0,1-12.677,14.419c-15.111,13.389-32.172,11.524-42.409-4.709-8.284,13.649-15.111,26.06-22.42,38.077m-21.936-4.907c18.036-29.992,35.585-60.38,52.646-89.709-5.362-4.42-9.262-8.118-13.165-11.332-8.774-7.712-12.187-7.107-21.445,3.3a50.191,50.191,0,0,0-6.337,7.452c-19.5,29.758-20.961,59.266-16.089,89.114,1.466.231,2.928.949,4.39,1.176" transform="translate(356.017 102.985)" fill="#ed6a5b"/>
    <path id="Path_767" data-name="Path 767" d="M262.228,169.2c-26.323,29.017-52.158,22.849-54.6-5.97-2.441-19.554-.978-44.183,4.875-63.74,2.437-6.766,29.732-21.325,28.27-11.81-8.284,61.908-4.384,69.505-2.922,54.622,1.462-12.931,3.412-37.645,7.312-54.42.487-2.034,2.925,5.82,2.925,8.745-1.95,16.918-3.416,39.107-4.387,55.366-.975,21.136,14.133,6.285,19.011-3.838,8.287-17.058,19.011-40.4,25.832-55.246,2.928-6.366,19.989-12.3,9.752,8.027-7.8,18.433-21.939,53.1-36.072,68.264M224.694,58.352c-9.262-9.58-.487-29.647,19.5-22.449,8.287,14.624-3.416,24.487-19.5,22.449" transform="translate(464.577 77.338)" fill="#ed6a5b"/>
    <path id="Path_768" data-name="Path 768" d="M323.237,155.435c-7.312,21.276-32.663,90.574-50.205,105.37-31.2,25.484-38.513-54.631-40.95-69.311-5.359-45.363-1.95-129.8,11.212-161.372-10.724,54.537-12.19,107.44-6.825,160.6-4.387-54.8.487-111.713,14.624-169.282.487-3.013,1.95-5.707,2.437-7.741,7.312-4.706,13.161-9.635,19.5-13.678,7.8-.4,7.309,5.534,6.818,11.472-1.462,16.83-3.9,34.808-5.359,52.126-2.437,33.089-4.387,66.577-5.85,99.494-.487,17.149-.487,46.393-.487,63.942,2.437,38.565,36.563-66.889,47.771-77.643,6.824-5.1,7.8,3.991,7.312,6.025" transform="translate(516.659 0)" fill="#ed6a5b"/>
  </g>
</svg>
