<svg id="join" xmlns="http://www.w3.org/2000/svg" xmlns:xlink="http://www.w3.org/1999/xlink" width="880.819" height="534.072" viewBox="0 0 880.819 534.072">
  <defs>
    <clipPath id="clip-path">
      <rect id="Rectangle_65" data-name="Rectangle 65" width="880.819" height="534.072" fill="none"/>
    </clipPath>
  </defs>
  <g id="Group_80" data-name="Group 80" clip-path="url(#clip-path)">
    <path id="Path_310" data-name="Path 310" d="M627.133,74.409,99.67,178.416v87.9l519.081-102.4c4.848-.927,8.382-5.488,8.382-10.822Z" transform="translate(42.994 40.956)" fill="#ed6a5b"/>
    <path id="Path_311" data-name="Path 311" d="M126.685,198.638l-11.793-42.244,5.75-1.1,9.388,34.822L140,151.6l5.515-1.054,9.975,34.711,9.388-38.408,5.75-1.1L158.84,192.5l-6.338,1.209-9.74-33.672-9.739,37.393Z" transform="translate(49.56 80.222)" fill="#fff"/>
    <path id="Path_312" data-name="Path 312" d="M178.666,151.208l5.456-1.043-11.969,36.041c-2.523,7.667-7.16,12.555-13.027,13.231v-5.149q5.372-.549,7.924-8l.525-1.309-12.791-29.214,5.458-1.04,9.974,23.013Z" transform="translate(66.768 82.653)" fill="#fff"/>
    <path id="Path_313" data-name="Path 313" d="M188.174,166.92c4.576.2,10.679.884,10.621,7.7a10.516,10.516,0,0,1-3.11,7.523,14.4,14.4,0,0,1-7.862,4.109c-5.691,1.087-9.975-1.019-11.676-5.208l4.4-3.575c.939,2.874,3.7,4.254,7.276,3.571,3.345-.639,5.81-2.445,5.81-5.433,0-2.478-2.582-3.385-5.81-3.594-4.635-.45-10.621-.96-10.621-7.7a10.766,10.766,0,0,1,2.934-7.363,13.221,13.221,0,0,1,7.452-4.093c4.752-.907,8.684.822,10.562,4.594l-4.283,3.425c-1.058-2.533-3.169-3.462-6.279-2.868-2.876.549-5.222,2.523-5.222,5.256,0,2.479,2.581,3.321,5.808,3.659m6.747-27.543L189,148.9l-4.93.941,4.693-9.287Z" transform="translate(75.983 76.715)" fill="#fff"/>
    <path id="Path_314" data-name="Path 314" d="M196.4,183.762V137.357l5.1-.975v46.406Z" transform="translate(84.72 75.067)" fill="#fff"/>
    <path id="Path_315" data-name="Path 315" d="M205.215,140.364a4.59,4.59,0,0,1,3.462-4.412,2.9,2.9,0,0,1,3.4,3.1,4.5,4.5,0,0,1-3.4,4.337,2.862,2.862,0,0,1-3.462-3.025m.88,41.088V149.668l5.1-.975v31.784Z" transform="translate(88.522 74.8)" fill="#fff"/>
    <path id="Path_316" data-name="Path 316" d="M217.584,147.926l5.106-.975v33.692c0,8.2-3.872,12.943-11.325,13.794V189.1c4.283-.374,6.219-2.586,6.219-7.481Zm-.879-9.3a4.588,4.588,0,0,1,3.461-4.412,2.9,2.9,0,0,1,3.405,3.1,4.5,4.5,0,0,1-3.405,4.337,2.861,2.861,0,0,1-3.461-3.025" transform="translate(91.175 73.841)" fill="#fff"/>
    <path id="Path_317" data-name="Path 317" d="M260.547,128.655l5.1-.975v44.5l-5.1.975v-5.468a15.481,15.481,0,0,1-11.09,8.413,11.413,11.413,0,0,1-10.5-2.825c-2.876-2.691-4.341-6.417-4.341-11.058a20.472,20.472,0,0,1,4.341-12.653,17.093,17.093,0,0,1,10.5-6.9q7.306-1.4,11.09,4.174Zm-2.993,37.314a13.9,13.9,0,0,0,2.993-8.709,9.5,9.5,0,0,0-2.993-7.5,8.081,8.081,0,0,0-7.452-1.882,11.9,11.9,0,0,0-7.393,4.716,13.592,13.592,0,0,0-2.993,8.645,9.73,9.73,0,0,0,2.993,7.564,8.2,8.2,0,0,0,7.393,1.831,12.129,12.129,0,0,0,7.452-4.665" transform="translate(101.203 70.277)" fill="#fff"/>
    <path id="Path_318" data-name="Path 318" d="M266.2,153.927c1,5.468,5.046,8,10.622,6.935a11.369,11.369,0,0,0,8.449-6.254l4.341,1.842A17.934,17.934,0,0,1,276.7,166.1c-4.635.885-8.448.023-11.382-2.53-2.876-2.628-4.341-6.354-4.341-11.185a20.351,20.351,0,0,1,4.283-12.769,17.835,17.835,0,0,1,11.089-6.887c4.284-.817,7.805.164,10.5,2.955,2.758,2.715,4.108,6.4,4.108,11.037a18.121,18.121,0,0,1-.176,2.513Zm0-4.831,19.6-3.743c-.879-5.87-4.754-8.309-9.447-7.413-5.458,1.043-9.271,5.394-10.151,11.155" transform="translate(112.575 72.902)" fill="#fff"/>
    <path id="Path_319" data-name="Path 319" d="M311.256,162.468l-6.338,1.211L291.541,151.17v15.065l-5.106.975v-44.5l5.106-.975V148.5l12.673-16.468,6.573-1.254-14.025,18.061Z" transform="translate(123.557 67.006)" fill="#fff"/>
    <path id="Path_320" data-name="Path 320" d="M307.509,164.17V117.765l5.1-.975V163.2Z" transform="translate(132.648 64.283)" fill="#fff"/>
    <path id="Path_321" data-name="Path 321" d="M341.727,122.541l5.1-.975V153.35l-5.1.975v-5.468a15.48,15.48,0,0,1-11.09,8.413,11.412,11.412,0,0,1-10.5-2.825c-2.876-2.692-4.341-6.417-4.341-11.058a20.472,20.472,0,0,1,4.341-12.653,17.089,17.089,0,0,1,10.5-6.9q7.3-1.4,11.09,4.174Zm-2.993,24.6a13.9,13.9,0,0,0,2.993-8.709,9.5,9.5,0,0,0-2.993-7.5,8.081,8.081,0,0,0-7.452-1.882,11.9,11.9,0,0,0-7.393,4.716,13.591,13.591,0,0,0-2.993,8.645,9.729,9.729,0,0,0,2.993,7.564,8.2,8.2,0,0,0,7.393,1.831,12.129,12.129,0,0,0,7.452-4.665" transform="translate(136.221 66.912)" fill="#fff"/>
    <path id="Path_322" data-name="Path 322" d="M348.408,126.075a11.7,11.7,0,0,1,9.154-7.661V124.2a10.579,10.579,0,0,0-6.455,3.394c-1.819,1.938-2.7,4.585-2.7,8.079v16.847l-5.106.975V121.71l5.106-.975Z" transform="translate(148.088 65.177)" fill="#fff"/>
    <path id="Path_323" data-name="Path 323" d="M380.84,115.644l5.1-.975v31.784l-5.1.975v-5.468a15.481,15.481,0,0,1-11.09,8.413,11.413,11.413,0,0,1-10.5-2.825c-2.876-2.691-4.341-6.417-4.341-11.058a20.472,20.472,0,0,1,4.341-12.653,17.093,17.093,0,0,1,10.5-6.9q7.306-1.4,11.09,4.174Zm-2.993,24.6a13.9,13.9,0,0,0,2.993-8.709,9.5,9.5,0,0,0-2.993-7.5,8.086,8.086,0,0,0-7.452-1.884A11.909,11.909,0,0,0,363,126.869a13.592,13.592,0,0,0-2.993,8.645A9.73,9.73,0,0,0,363,143.079a8.194,8.194,0,0,0,7.393,1.83,12.12,12.12,0,0,0,7.452-4.664" transform="translate(153.093 63.116)" fill="#fff"/>
    <path id="Path_324" data-name="Path 324" d="M385.668,142.283c-2.934-2.681-4.4-6.343-4.4-11.11a20.025,20.025,0,0,1,4.4-12.727,17.829,17.829,0,0,1,11.031-6.938c5.808-1.109,10.679,1.2,12.967,5.851l-4.283,3.487c-1.467-3.088-4.754-4.685-8.684-3.933a12.082,12.082,0,0,0-7.394,4.654,13.821,13.821,0,0,0-2.934,8.633,9.662,9.662,0,0,0,2.934,7.45,8.208,8.208,0,0,0,7.394,1.828,12.412,12.412,0,0,0,8.86-7.222l4.343,1.9a18.867,18.867,0,0,1-13.2,10.786c-4.4.84-8.1-.045-11.031-2.662" transform="translate(164.465 61.224)" fill="#fff"/>
    <path id="Path_325" data-name="Path 325" d="M407.578,114.424l5.106-.975V147.14c0,8.2-3.873,12.944-11.324,13.8V155.6c4.281-.374,6.218-2.588,6.218-7.482Zm-.879-9.3a4.586,4.586,0,0,1,3.46-4.411,2.9,2.9,0,0,1,3.405,3.1,4.5,4.5,0,0,1-3.405,4.338,2.862,2.862,0,0,1-3.46-3.026" transform="translate(173.132 55.401)" fill="#fff"/>
    <path id="Path_326" data-name="Path 326" d="M419.167,126.954c1,5.468,5.044,8,10.621,6.935a11.37,11.37,0,0,0,8.449-6.254l4.343,1.84a27.171,27.171,0,0,1-2.289,3.361q-6.162,8.519-6.162,11.856c0,1.271.585,1.8,1.819,1.56a5.692,5.692,0,0,0,2.171-.923V149.4a10.625,10.625,0,0,1-3.873,1.566c-3.11.592-5.047-1.008-5.047-4.123,0-2.6,1.232-5.512,3.756-8.664a23.229,23.229,0,0,1-3.286.947c-4.635.884-8.448.022-11.382-2.532-2.876-2.628-4.34-6.354-4.34-11.185a20.354,20.354,0,0,1,4.281-12.768,17.828,17.828,0,0,1,11.089-6.887c4.284-.817,7.805.163,10.5,2.954,2.76,2.715,4.108,6.4,4.108,11.039a18.323,18.323,0,0,1-.176,2.512Zm0-4.831,19.6-3.744c-.879-5.87-4.754-8.307-9.447-7.411-5.458,1.042-9.271,5.392-10.15,11.155" transform="translate(178.561 58.055)" fill="#fff"/>
    <path id="Path_327" data-name="Path 327" d="M652.491,0,99.669,109.5v87.9L644.109,89.5c4.847-.927,8.382-5.488,8.382-10.822Z" transform="translate(42.993)" fill="#ed6a5b"/>
    <path id="Path_328" data-name="Path 328" d="M126.685,127.772,114.892,85.528l5.75-1.1,9.388,34.822L140,80.731l5.515-1.054,9.975,34.711,9.388-38.408,5.75-1.1-11.793,46.75L152.5,122.84l-9.74-33.672-9.739,37.393Z" transform="translate(49.56 41.216)" fill="#fff"/>
    <path id="Path_329" data-name="Path 329" d="M178.666,80.342l5.456-1.043L172.153,115.34c-2.523,7.667-7.16,12.555-13.027,13.231v-5.149q5.372-.549,7.924-8l.525-1.309L154.785,84.9l5.458-1.04,9.974,23.013Z" transform="translate(66.768 43.647)" fill="#fff"/>
    <path id="Path_330" data-name="Path 330" d="M205.387,79.153c2.874,2.692,4.341,6.354,4.341,10.994a20.659,20.659,0,0,1-4.341,12.717,16.989,16.989,0,0,1-10.5,6.836q-7.3,1.4-11.09-4.175V123.7l-5.106.975v-44.5l5.106-.975v5.467a15.486,15.486,0,0,1,11.09-8.411,11.437,11.437,0,0,1,10.5,2.89m-3.756,20.676a13.889,13.889,0,0,0,2.993-8.707,9.5,9.5,0,0,0-2.993-7.5,8.051,8.051,0,0,0-7.393-1.893,11.929,11.929,0,0,0-7.452,4.729,13.579,13.579,0,0,0-2.993,8.644,9.728,9.728,0,0,0,2.993,7.566,8.243,8.243,0,0,0,7.452,1.819,12.085,12.085,0,0,0,7.393-4.654" transform="translate(77.079 41.832)" fill="#fff"/>
    <path id="Path_331" data-name="Path 331" d="M209.125,93.124c1,5.468,5.046,8,10.619,6.935a11.359,11.359,0,0,0,8.449-6.254l4.343,1.84a17.931,17.931,0,0,1-12.908,9.65c-4.635.885-8.449.023-11.384-2.53-2.876-2.628-4.341-6.354-4.341-11.185a20.359,20.359,0,0,1,4.283-12.769,17.834,17.834,0,0,1,11.092-6.887c4.281-.817,7.8.164,10.5,2.954,2.757,2.715,4.107,6.4,4.107,11.039a18.306,18.306,0,0,1-.176,2.512Zm0-4.831,19.6-3.743c-.879-5.87-4.751-8.309-9.444-7.413-5.459,1.043-9.272,5.394-10.153,11.155" transform="translate(87.956 39.435)" fill="#fff"/>
    <path id="Path_332" data-name="Path 332" d="M239.836,75.423V80.7l-3.7,3.44v21.869l-5.1.974V88.929L227.4,92.295V87.019l3.639-3.364V60.578l5.1-.975V78.865Z" transform="translate(98.09 32.806)" fill="#fff"/>
    <path id="Path_333" data-name="Path 333" d="M265.934,76.57V96.087l-5.1.975v-19.2c0-5.15-2.76-7.609-7.277-6.749-5.106.975-8.508,5-8.508,12.115v16.845l-5.106.974V69.266l5.106-.974v4.577a12.915,12.915,0,0,1,9.506-7.219c6.865-1.312,11.382,2.848,11.382,10.92" transform="translate(103.501 36.004)" fill="#fff"/>
    <path id="Path_334" data-name="Path 334" d="M262.86,59.333a4.587,4.587,0,0,1,3.462-4.411,2.9,2.9,0,0,1,3.4,3.1,4.5,4.5,0,0,1-3.4,4.338,2.862,2.862,0,0,1-3.462-3.026m.879,41.088V68.637l5.106-.975V99.445Z" transform="translate(113.388 30.199)" fill="#fff"/>
    <path id="Path_335" data-name="Path 335" d="M275.229,66.895l5.106-.975V99.612c0,8.2-3.872,12.944-11.323,13.8v-5.34c4.283-.374,6.218-2.588,6.218-7.482Zm-.879-9.3a4.589,4.589,0,0,1,3.462-4.412,2.9,2.9,0,0,1,3.4,3.1,4.5,4.5,0,0,1-3.4,4.337,2.861,2.861,0,0,1-3.462-3.025" transform="translate(116.041 29.24)" fill="#fff"/>
    <path id="Path_336" data-name="Path 336" d="M328.707,54.575l5.339-1.019-9.093,33.52-5.222,1-6.865-22.208L306,90.7l-5.224,1-9.094-30.045,5.339-1.022,6.456,22.923L310.4,58.072l4.93-.943,6.923,22.9Z" transform="translate(125.821 29.478)" fill="#fff"/>
    <path id="Path_337" data-name="Path 337" d="M351.379,61.5V81.02l-5.1.975V62.8c0-5.149-2.76-7.609-7.277-6.747-5.1.975-8.508,4.994-8.508,12.113V85.009l-5.106.975V54.2l5.106-.975V57.8A12.921,12.921,0,0,1,340,50.584c6.866-1.312,11.384,2.848,11.384,10.921" transform="translate(140.358 27.711)" fill="#fff"/>
    <path id="Path_338" data-name="Path 338" d="M348.3,44.267a4.588,4.588,0,0,1,3.463-4.411,2.9,2.9,0,0,1,3.4,3.1,4.5,4.5,0,0,1-3.4,4.338,2.863,2.863,0,0,1-3.463-3.026m.88,41.089V53.572l5.1-.977V84.379Z" transform="translate(150.245 21.907)" fill="#fff"/>
    <path id="Path_339" data-name="Path 339" d="M372.632,78.329a12.221,12.221,0,0,1-10.973-2.735c-2.993-2.671-4.459-6.332-4.459-11.037a20.043,20.043,0,0,1,4.459-12.737,18.008,18.008,0,0,1,10.973-6.927A12.217,12.217,0,0,1,383.6,47.627c2.993,2.67,4.517,6.321,4.517,11.025A20.136,20.136,0,0,1,383.6,71.4a18.014,18.014,0,0,1-10.973,6.927m7.393-10.058a13.6,13.6,0,0,0,2.993-8.645,9.5,9.5,0,0,0-2.993-7.5,8.2,8.2,0,0,0-7.393-1.829,12.038,12.038,0,0,0-7.334,4.642,13.589,13.589,0,0,0-2.993,8.645,9.5,9.5,0,0,0,2.993,7.5,8.168,8.168,0,0,0,7.334,1.842,12.085,12.085,0,0,0,7.393-4.654" transform="translate(154.083 24.548)" fill="#fff"/>
    <path id="Path_340" data-name="Path 340" d="M393.747,55.1c4.576.2,10.679.884,10.621,7.7a10.51,10.51,0,0,1-3.11,7.521,14.387,14.387,0,0,1-7.862,4.11c-5.691,1.087-9.975-1.017-11.676-5.208l4.4-3.574c.939,2.873,3.7,4.253,7.276,3.569,3.345-.64,5.81-2.447,5.81-5.433,0-2.479-2.582-3.385-5.81-3.6-4.635-.448-10.621-.958-10.621-7.7a10.769,10.769,0,0,1,2.934-7.363,13.21,13.21,0,0,1,7.452-4.092c4.752-.909,8.684.819,10.562,4.594l-4.283,3.425c-1.058-2.533-3.169-3.464-6.279-2.87-2.876.549-5.223,2.523-5.223,5.257,0,2.478,2.584,3.319,5.81,3.657" transform="translate(164.659 22.458)" fill="#fff"/>
    <path id="Path_341" data-name="Path 341" d="M405.676,58.466c1,5.468,5.046,8,10.621,6.937a11.368,11.368,0,0,0,8.449-6.254l4.343,1.84a17.929,17.929,0,0,1-12.909,9.648c-4.635.885-8.449.023-11.382-2.53-2.876-2.628-4.341-6.354-4.341-11.185a20.343,20.343,0,0,1,4.283-12.768,17.828,17.828,0,0,1,11.09-6.887c4.283-.819,7.8.163,10.5,2.954,2.758,2.715,4.108,6.4,4.108,11.039a18.323,18.323,0,0,1-.176,2.512Zm0-4.831,19.6-3.743c-.879-5.87-4.752-8.307-9.446-7.411-5.459,1.042-9.272,5.392-10.153,11.154" transform="translate(172.742 20.359)" fill="#fff"/>
    <path id="Path_342" data-name="Path 342" d="M450.738,67.008,444.4,68.217,431.022,55.708V70.774l-5.106.975v-44.5l5.106-.974v26.76L443.7,36.569l6.573-1.254L436.244,53.375Z" transform="translate(183.724 14.463)" fill="#fff"/>
    <path id="Path_343" data-name="Path 343" d="M711.688,136.3,99.67,254.225v87.9L703.307,225.8c4.846-.926,8.381-5.488,8.381-10.82Z" transform="translate(42.994 75.02)" fill="#ed6a5b"/>
    <path id="Path_344" data-name="Path 344" d="M131.844,221.375a10.441,10.441,0,0,1,9.447,2.329c2.522,2.25,3.815,5.374,3.815,9.442a17.324,17.324,0,0,1-3.815,10.9,15.381,15.381,0,0,1-9.447,5.935l-9.447,1.8v15.892l-5.456,1.042v-44.5Zm0,23.075a9,9,0,0,0,5.634-3.554,11.113,11.113,0,0,0,2.229-6.719c0-5.084-3.345-8.133-7.862-7.27l-9.447,1.8v17.543Z" transform="translate(50.444 121.705)" fill="#fff"/>
    <path id="Path_345" data-name="Path 345" d="M153.9,258.629a12.215,12.215,0,0,1-10.971-2.735c-2.993-2.67-4.459-6.33-4.459-11.036a20.05,20.05,0,0,1,4.459-12.738,18.015,18.015,0,0,1,10.971-6.927,12.221,12.221,0,0,1,10.973,2.737c2.993,2.67,4.519,6.319,4.519,11.023A20.142,20.142,0,0,1,164.87,251.7a18,18,0,0,1-10.973,6.926m7.394-10.056a13.6,13.6,0,0,0,2.993-8.645,9.5,9.5,0,0,0-2.993-7.5A8.2,8.2,0,0,0,153.9,230.6a12.06,12.06,0,0,0-7.334,4.642,13.6,13.6,0,0,0-2.993,8.647,9.5,9.5,0,0,0,2.993,7.5,8.162,8.162,0,0,0,7.334,1.842,12.089,12.089,0,0,0,7.394-4.653" transform="translate(59.729 123.788)" fill="#fff"/>
    <path id="Path_346" data-name="Path 346" d="M167.959,251.538c-2.936-2.681-4.4-6.343-4.4-11.11a20.016,20.016,0,0,1,4.4-12.727,17.829,17.829,0,0,1,11.03-6.938c5.81-1.109,10.679,1.2,12.968,5.851l-4.284,3.487c-1.466-3.088-4.752-4.685-8.684-3.933a12.087,12.087,0,0,0-7.393,4.653,13.824,13.824,0,0,0-2.934,8.633,9.66,9.66,0,0,0,2.934,7.45,8.2,8.2,0,0,0,7.393,1.829,12.4,12.4,0,0,0,8.86-7.223l4.343,1.905a18.867,18.867,0,0,1-13.2,10.786c-4.4.84-8.1-.045-11.03-2.662" transform="translate(70.553 121.36)" fill="#fff"/>
    <path id="Path_347" data-name="Path 347" d="M193.336,245.744l15.609-2.981v5.276l-22.591,4.316v-3.687l14.962-25.678-14.375,2.746v-5.278l21.417-4.09v3.687Z" transform="translate(80.386 119.093)" fill="#fff"/>
    <path id="Path_348" data-name="Path 348" d="M209.617,234.769c1,5.468,5.046,8,10.622,6.935a11.364,11.364,0,0,0,8.448-6.254l4.341,1.842a17.931,17.931,0,0,1-12.908,9.648c-4.635.885-8.449.023-11.382-2.53-2.877-2.628-4.343-6.354-4.343-11.185a20.352,20.352,0,0,1,4.283-12.768,17.832,17.832,0,0,1,11.09-6.887c4.284-.819,7.805.163,10.5,2.954,2.757,2.715,4.108,6.4,4.108,11.039a18.32,18.32,0,0,1-.176,2.512Zm0-4.831,19.6-3.743c-.88-5.87-4.754-8.309-9.447-7.411-5.458,1.042-9.271,5.392-10.151,11.154" transform="translate(88.168 117.399)" fill="#fff"/>
    <path id="Path_349" data-name="Path 349" d="M254.676,243.31l-6.338,1.211-13.376-12.509v15.065l-5.107.975v-44.5l5.107-.974v26.76l12.673-16.468,6.573-1.254-14.026,18.061Z" transform="translate(99.151 111.504)" fill="#fff"/>
    <path id="Path_350" data-name="Path 350" d="M273.832,205.38l5.1-.975v31.784l-5.1.975V231.7a15.483,15.483,0,0,1-11.089,8.411,11.41,11.41,0,0,1-10.5-2.825c-2.876-2.692-4.341-6.417-4.341-11.058a20.479,20.479,0,0,1,4.341-12.654,17.1,17.1,0,0,1,10.5-6.9q7.3-1.4,11.089,4.175Zm-2.993,24.6a13.888,13.888,0,0,0,2.993-8.706,9.5,9.5,0,0,0-2.993-7.5,8.09,8.09,0,0,0-7.452-1.884,11.913,11.913,0,0,0-7.393,4.718A13.592,13.592,0,0,0,253,225.249a9.738,9.738,0,0,0,2.993,7.566,8.2,8.2,0,0,0,7.393,1.829,12.117,12.117,0,0,0,7.452-4.667" transform="translate(106.933 112.508)" fill="#fff"/>
    <path id="Path_351" data-name="Path 351" d="M277.732,208.186l5.1-.975V240.9c0,8.2-3.872,12.944-11.324,13.8v-5.34c4.283-.374,6.219-2.588,6.219-7.482Zm-.88-9.3a4.587,4.587,0,0,1,3.462-4.411,2.9,2.9,0,0,1,3.4,3.1,4.5,4.5,0,0,1-3.4,4.338,2.863,2.863,0,0,1-3.462-3.026" transform="translate(117.121 107.009)" fill="#fff"/>
    <path id="Path_352" data-name="Path 352" d="M321.9,208.435V227.95l-5.1.975v-19.2c0-5.149-2.76-7.609-7.277-6.747-5.106.975-8.508,4.994-8.508,12.113v16.845l-5.106.975V201.131l5.106-.975v4.577a12.922,12.922,0,0,1,9.506-7.219c6.865-1.312,11.382,2.848,11.382,10.921" transform="translate(127.643 108.583)" fill="#fff"/>
    <path id="Path_353" data-name="Path 353" d="M344.228,192.966l5.1-.975v31.784l-5.1.975v-5.468a15.485,15.485,0,0,1-11.089,8.413,11.411,11.411,0,0,1-10.5-2.825c-2.877-2.693-4.343-6.419-4.343-11.059a20.457,20.457,0,0,1,4.343-12.651,17.085,17.085,0,0,1,10.5-6.9q7.3-1.4,11.089,4.174Zm-2.993,24.6a13.89,13.89,0,0,0,2.993-8.707,9.5,9.5,0,0,0-2.993-7.5,8.087,8.087,0,0,0-7.45-1.882,11.9,11.9,0,0,0-7.394,4.718,13.585,13.585,0,0,0-2.993,8.644,9.735,9.735,0,0,0,2.993,7.566,8.206,8.206,0,0,0,7.394,1.829,12.112,12.112,0,0,0,7.45-4.665" transform="translate(137.3 105.675)" fill="#fff"/>
    <path id="Path_354" data-name="Path 354" d="M381.252,178.238l5.1-.975v44.5l-5.1.975v-5.468a15.49,15.49,0,0,1-11.09,8.413,11.41,11.41,0,0,1-10.5-2.825c-2.876-2.693-4.341-6.419-4.341-11.059a20.464,20.464,0,0,1,4.341-12.651,17.085,17.085,0,0,1,10.5-6.9q7.3-1.4,11.09,4.174Zm-2.993,37.312a13.889,13.889,0,0,0,2.993-8.707,9.5,9.5,0,0,0-2.993-7.5,8.089,8.089,0,0,0-7.452-1.882,11.9,11.9,0,0,0-7.394,4.718,13.585,13.585,0,0,0-2.993,8.644,9.735,9.735,0,0,0,2.993,7.566,8.205,8.205,0,0,0,7.394,1.829,12.115,12.115,0,0,0,7.452-4.665" transform="translate(153.27 97.568)" fill="#fff"/>
    <path id="Path_355" data-name="Path 355" d="M386.9,203.509c1,5.47,5.046,8,10.621,6.937a11.368,11.368,0,0,0,8.449-6.254l4.341,1.84a17.932,17.932,0,0,1-12.908,9.65c-4.635.884-8.449.022-11.384-2.532-2.876-2.628-4.341-6.354-4.341-11.185a20.352,20.352,0,0,1,4.283-12.768,17.832,17.832,0,0,1,11.09-6.887c4.283-.817,7.805.163,10.5,2.954,2.757,2.715,4.107,6.4,4.107,11.039a18.085,18.085,0,0,1-.176,2.512Zm0-4.831,19.6-3.743c-.879-5.87-4.752-8.307-9.446-7.411-5.458,1.042-9.271,5.392-10.151,11.154" transform="translate(164.642 100.193)" fill="#fff"/>
    <path id="Path_356" data-name="Path 356" d="M410.352,208.8c-2.934-2.679-4.4-6.34-4.4-11.107a20.037,20.037,0,0,1,4.4-12.73,17.826,17.826,0,0,1,11.032-6.937c5.81-1.109,10.679,1.2,12.968,5.851l-4.284,3.487c-1.467-3.09-4.754-4.687-8.684-3.933a12.086,12.086,0,0,0-7.395,4.653,13.836,13.836,0,0,0-2.933,8.634,9.666,9.666,0,0,0,2.933,7.45,8.208,8.208,0,0,0,7.395,1.828,12.41,12.41,0,0,0,8.86-7.223l4.343,1.905a18.867,18.867,0,0,1-13.2,10.786c-4.4.84-8.1-.045-11.032-2.664" transform="translate(175.112 97.835)" fill="#fff"/>
    <path id="Path_357" data-name="Path 357" d="M451.44,173.977l5.458-1.043-11.97,36.041c-2.522,7.667-7.158,12.555-13.025,13.23v-5.149q5.368-.547,7.921-8l.528-1.309-12.792-29.214,5.456-1.04,9.975,23.013Z" transform="translate(184.433 95.186)" fill="#fff"/>
    <path id="Path_358" data-name="Path 358" d="M457.255,199.208l15.609-2.981V201.5l-22.591,4.316v-3.687l14.962-25.678L450.859,179.2v-5.278l21.417-4.09v3.687Z" transform="translate(194.231 93.478)" fill="#fff"/>
    <path id="Path_359" data-name="Path 359" d="M473.508,173.666l5.1-.975v33.692c0,8.2-3.872,12.944-11.324,13.8v-5.34c4.283-.377,6.219-2.589,6.219-7.482Zm-.88-9.306a4.589,4.589,0,0,1,3.461-4.411,2.9,2.9,0,0,1,3.4,3.1,4.5,4.5,0,0,1-3.4,4.337,2.862,2.862,0,0,1-3.461-3.026" transform="translate(201.571 88.009)" fill="#fff"/>
    <path id="Path_360" data-name="Path 360" d="M485.1,186.194c1,5.468,5.046,8,10.621,6.937a11.363,11.363,0,0,0,8.448-6.254l4.343,1.84a26.935,26.935,0,0,1-2.287,3.361q-6.16,8.519-6.161,11.856c0,1.271.585,1.8,1.819,1.558a5.63,5.63,0,0,0,2.17-.922v4.068a10.6,10.6,0,0,1-3.873,1.567c-3.109.592-5.046-1.008-5.046-4.123,0-2.6,1.231-5.512,3.756-8.664a23.261,23.261,0,0,1-3.286.946c-4.635.885-8.449.023-11.384-2.53-2.876-2.628-4.341-6.354-4.341-11.185a20.352,20.352,0,0,1,4.283-12.768A17.831,17.831,0,0,1,495.249,165c4.281-.819,7.8.163,10.5,2.954,2.757,2.715,4.108,6.4,4.108,11.039a18.327,18.327,0,0,1-.177,2.512Zm0-4.831,19.6-3.743c-.879-5.87-4.751-8.309-9.444-7.411-5.459,1.042-9.272,5.392-10.153,11.154" transform="translate(207 90.662)" fill="#fff"/>
    <path id="Path_361" data-name="Path 361" d="M631.323,216.95,99.669,319.7v87.9L622.942,306.449c4.847-.926,8.381-5.487,8.381-10.82Z" transform="translate(42.993 119.413)" fill="#a5242c"/>
    <path id="Path_362" data-name="Path 362" d="M121.92,333.7l20.361-3.89v5.6l-26.817,5.12v-5.149L135.3,297.836l-19.306,3.688v-5.6L141.81,291v5.085Z" transform="translate(49.807 160.171)" fill="#fff"/>
    <path id="Path_363" data-name="Path 363" d="M151.972,329.834A12.211,12.211,0,0,1,141,327.1c-2.993-2.67-4.459-6.33-4.459-11.036A20.05,20.05,0,0,1,141,303.325a18.018,18.018,0,0,1,10.973-6.927,12.221,12.221,0,0,1,10.973,2.736c2.993,2.668,4.517,6.32,4.517,11.023a20.143,20.143,0,0,1-4.517,12.751,18,18,0,0,1-10.973,6.926m7.393-10.056a13.6,13.6,0,0,0,2.993-8.645,9.5,9.5,0,0,0-2.993-7.5,8.2,8.2,0,0,0-7.393-1.831,12.06,12.06,0,0,0-7.334,4.642,13.6,13.6,0,0,0-2.993,8.647,9.5,9.5,0,0,0,2.993,7.5,8.161,8.161,0,0,0,7.334,1.842,12.085,12.085,0,0,0,7.393-4.653" transform="translate(58.898 162.981)" fill="#fff"/>
    <path id="Path_364" data-name="Path 364" d="M173.086,306.611c4.577.2,10.679.884,10.621,7.7a10.5,10.5,0,0,1-3.11,7.521,14.388,14.388,0,0,1-7.862,4.11c-5.691,1.087-9.975-1.019-11.676-5.208l4.4-3.574c.939,2.871,3.7,4.253,7.276,3.569,3.345-.64,5.81-2.447,5.81-5.433,0-2.479-2.582-3.385-5.81-3.6-4.635-.448-10.621-.958-10.621-7.7a10.769,10.769,0,0,1,2.934-7.363,13.214,13.214,0,0,1,7.453-4.092c4.751-.909,8.683.819,10.561,4.592l-4.283,3.426c-1.058-2.533-3.169-3.465-6.278-2.87-2.877.549-5.225,2.521-5.225,5.256,0,2.478,2.584,3.321,5.81,3.659" transform="translate(69.474 160.892)" fill="#fff"/>
    <path id="Path_365" data-name="Path 365" d="M197.488,296.946l-7.8,1.49v17.227c0,4.895,2.582,4.02,7.8,2.769v4.96c-8.919,2.975-12.909,1.129-12.909-6.754V299.411l-5.808,1.11v-5.34l5.808-1.11v-7.245l5.106-2.63v8.9l7.8-1.49Z" transform="translate(77.115 156.427)" fill="#fff"/>
    <path id="Path_366" data-name="Path 366" d="M220.245,285.693l5.1-.974V316.5l-5.1.974v-5.467a15.484,15.484,0,0,1-11.09,8.411,11.4,11.4,0,0,1-10.5-2.825c-2.876-2.692-4.341-6.417-4.341-11.058a20.472,20.472,0,0,1,4.341-12.653,17.1,17.1,0,0,1,10.5-6.9q7.3-1.4,11.09,4.174Zm-2.993,24.6a13.894,13.894,0,0,0,2.993-8.709,9.5,9.5,0,0,0-2.993-7.5A8.089,8.089,0,0,0,209.8,292.2a11.9,11.9,0,0,0-7.394,4.718,13.585,13.585,0,0,0-2.993,8.644,9.735,9.735,0,0,0,2.993,7.566,8.206,8.206,0,0,0,7.394,1.829,12.115,12.115,0,0,0,7.452-4.665" transform="translate(83.818 156.714)" fill="#fff"/>
    <path id="Path_367" data-name="Path 367" d="M247.813,296.977v19.515l-5.1.975v-19.2c0-5.149-2.76-7.609-7.277-6.747-5.1.974-8.507,4.994-8.507,12.113v16.845l-5.107.975V289.673l5.107-.975v4.577a12.921,12.921,0,0,1,9.5-7.219c6.865-1.312,11.382,2.848,11.382,10.921m-5.339-24.154-5.926,9.524-4.928.941L236.313,274Z" transform="translate(95.684 150.166)" fill="#fff"/>
    <path id="Path_368" data-name="Path 368" d="M259.267,306.3c-2.936-2.681-4.4-6.343-4.4-11.11a20.016,20.016,0,0,1,4.4-12.727,17.828,17.828,0,0,1,11.03-6.94c5.81-1.109,10.679,1.2,12.968,5.851l-4.284,3.488c-1.467-3.088-4.752-4.687-8.684-3.935a12.078,12.078,0,0,0-7.393,4.654,13.822,13.822,0,0,0-2.934,8.633,9.66,9.66,0,0,0,2.934,7.45A8.2,8.2,0,0,0,270.3,303.5a12.4,12.4,0,0,0,8.86-7.223l4.343,1.907a18.869,18.869,0,0,1-13.2,10.785c-4.4.84-8.1-.043-11.03-2.661" transform="translate(109.94 151.503)" fill="#fff"/>
    <path id="Path_369" data-name="Path 369" d="M284.644,300.51l15.609-2.981V302.8l-22.591,4.316v-3.687l14.962-25.68L278.249,280.5v-5.278l21.416-4.09v3.687Z" transform="translate(119.773 149.237)" fill="#fff"/>
    <path id="Path_370" data-name="Path 370" d="M308.593,275.9v5.276l-3.7,3.439v21.869l-5.1.975V289.4l-3.638,3.366v-5.276l3.638-3.365V261.052l5.1-.975v19.262Z" transform="translate(127.75 143.15)" fill="#fff"/>
    <path id="Path_371" data-name="Path 371" d="M322.982,299.68a12.215,12.215,0,0,1-10.973-2.733c-2.993-2.671-4.459-6.332-4.459-11.037a20.043,20.043,0,0,1,4.459-12.737,18.013,18.013,0,0,1,10.973-6.929,12.221,12.221,0,0,1,10.973,2.736c2.993,2.67,4.517,6.319,4.517,11.023a20.14,20.14,0,0,1-4.517,12.751,18,18,0,0,1-10.973,6.926m7.393-10.056a13.6,13.6,0,0,0,2.993-8.645,9.5,9.5,0,0,0-2.993-7.5,8.2,8.2,0,0,0-7.393-1.829,12.047,12.047,0,0,0-7.334,4.642,13.589,13.589,0,0,0-2.993,8.645,9.5,9.5,0,0,0,2.993,7.5,8.17,8.17,0,0,0,7.334,1.842,12.1,12.1,0,0,0,7.393-4.654" transform="translate(132.666 146.384)" fill="#fff"/>
    <path id="Path_372" data-name="Path 372" d="M359.784,272.62v19.515l-5.1.975v-19.2c0-5.149-2.758-7.609-7.276-6.747-5.106.975-8.509,4.994-8.509,12.113v16.845l-5.1.975V265.316l5.1-.975v4.577A12.927,12.927,0,0,1,348.4,261.7c6.866-1.312,11.384,2.848,11.384,10.921" transform="translate(143.984 143.912)" fill="#fff"/>
    <path id="Path_373" data-name="Path 373" d="M382.145,291.7l-6.338,1.209L362.431,280.4v15.065l-5.107.975v-44.5l5.107-.974v26.76L375.1,261.261l6.571-1.254-14.025,18.061Z" transform="translate(154.136 138.137)" fill="#fff"/>
    <path id="Path_374" data-name="Path 374" d="M377.783,251.667a4.589,4.589,0,0,1,3.462-4.412,2.9,2.9,0,0,1,3.4,3.1,4.5,4.5,0,0,1-3.4,4.337,2.861,2.861,0,0,1-3.462-3.025m.879,41.088V260.971l5.106-.975v31.784Z" transform="translate(162.961 136.062)" fill="#fff"/>
    <path id="Path_375" data-name="Path 375" d="M391.9,273.493c1,5.468,5.046,8,10.621,6.935a11.359,11.359,0,0,0,8.448-6.254l4.343,1.84a17.931,17.931,0,0,1-12.908,9.65c-4.635.885-8.449.023-11.384-2.53-2.876-2.628-4.341-6.355-4.341-11.185a20.357,20.357,0,0,1,4.283-12.769,17.831,17.831,0,0,1,11.092-6.887c4.281-.817,7.8.164,10.5,2.954,2.757,2.715,4.107,6.4,4.107,11.039a18.3,18.3,0,0,1-.176,2.512Zm0-4.831,19.6-3.743c-.879-5.871-4.751-8.309-9.444-7.413-5.459,1.043-9.272,5.394-10.153,11.155" transform="translate(166.799 138.713)" fill="#fff"/>
    <path id="Path_376" data-name="Path 376" d="M454.857,256.509v19.769l-5.1.975V257.675c0-4.895-2.523-7.273-6.455-6.523-4.4.84-7.217,4.492-7.217,11.039v17.672l-5.106.975V261.26c0-4.895-2.4-7.295-6.218-6.566-4.284.817-7.51,4.676-7.51,11.095v17.673l-5.107.975V252.653l5.107-.975v4.259a12.271,12.271,0,0,1,8.741-6.757c3.932-.75,6.806.482,8.625,3.757a12.62,12.62,0,0,1,9.214-7.163c6.571-1.254,11.03,2.853,11.03,10.735" transform="translate(177.781 135.155)" fill="#fff"/>
    <path id="Path_377" data-name="Path 377" d="M103.453,206.095l-38.08,7.068C48.3,216.332,30.75,215.67,19.326,199.22c-15.347-22.093-5.7-52.866,13.3-68.259,12.205-9.89,26.864-11.4,41.356-14.115L115.94,109c5.927-1.107,10.907-17.213,2.728-15.682l-41.962,7.844c-17.785,3.327-34.214,6.147-48.838,19.014-20.343,17.9-33.892,50.159-25.183,78.282,7.705,24.886,30.189,35.615,53.079,31.667,15.014-2.589,29.977-5.564,44.961-8.346,5.927-1.1,10.91-17.2,2.728-15.684" transform="translate(0 51.307)" fill="#a5242c"/>
    <path id="Path_378" data-name="Path 378" d="M55.864,224.827q20.287-20.354,40.575-40.711c1.668-1.671,4.711-7.168,1.629-9.082L57.494,149.822c-3.81-2.367-9.192,7.693-5.368,10.07Q72.414,172.5,92.7,185.1q.816-4.542,1.63-9.084-20.285,20.356-40.573,40.711c-3.326,3.34-3.037,13.258,2.107,8.095" transform="translate(21.919 82.267)" fill="#a5242c"/>
    <path id="Path_379" data-name="Path 379" d="M103.453,351.55l-38.08,7.068c-17.073,3.169-34.623,2.507-46.047-13.943-15.347-22.093-5.7-52.866,13.3-68.259,12.205-9.89,26.864-11.4,41.356-14.115l41.962-7.847c5.927-1.109,10.907-17.213,2.728-15.682l-41.962,7.844c-17.785,3.327-34.214,6.147-48.838,19.014C7.526,283.53-6.023,315.789,2.685,343.912,10.39,368.8,32.874,379.527,55.764,375.58c15.014-2.589,29.977-5.564,44.961-8.346,5.927-1.1,10.91-17.2,2.728-15.684" transform="translate(0 131.368)" fill="#a5242c"/>
    <path id="Path_380" data-name="Path 380" d="M55.864,370.282l40.575-40.711c1.668-1.671,4.711-7.168,1.629-9.082L57.494,295.277c-3.81-2.369-9.192,7.693-5.368,10.07q20.287,12.6,40.573,25.213.816-4.542,1.63-9.084-20.285,20.356-40.573,40.711c-3.326,3.34-3.037,13.258,2.107,8.095" transform="translate(21.919 162.328)" fill="#a5242c"/>
    <path id="Path_381" data-name="Path 381" d="M579.279,209.625c20.425-3.612,41.733-4.912,59.021-18.538,25.082-19.771,41.8-61.845,23.238-92.6a43.55,43.55,0,0,0-36.268-21.083c-6.272-.129-12.33,1.222-18.449,2.456L546.467,92.042q-24.723,4.991-49.448,9.982c-5.911,1.192-10.865,17.324-2.728,15.682q47.907-9.668,95.817-19.34c13.741-2.774,28.868-7.848,42.586-2.651,30.75,11.65,30.64,53.964,10.2,76.189-16.116,17.523-39.64,18.278-60.883,22.036-5.937,1.051-10.933,17.137-2.73,15.684" transform="translate(211.376 42.6)" fill="#a5242c"/>
    <path id="Path_382" data-name="Path 382" d="M587.168,196.085q-20.287-12.607-40.575-25.213-.814,4.54-1.629,9.082,20.287-20.354,40.573-40.711c3.328-3.338,3.037-13.256-2.107-8.095l-40.575,40.711c-1.666,1.673-4.711,7.168-1.63,9.082q20.289,12.6,40.575,25.213c3.81,2.368,9.194-7.695,5.368-10.07" transform="translate(232.894 71.382)" fill="#a5242c"/>
  </g>
</svg>
