<svg xmlns="http://www.w3.org/2000/svg" width="115.076" height="99.714" viewBox="0 0 115.076 99.714">
  <g id="Group_9" data-name="Group 9" transform="translate(815.641 -56.693)">
    <path id="Path_1" data-name="Path 1" d="M-815.206,127.091l.008,1.384,3.144-.555,0,9.632,1.4-.247,0-9.632,3.159-.558-.007-1.384Z" fill="#a5242c"/>
    <g id="Group_1" data-name="Group 1">
      <path id="Path_2" data-name="Path 2" d="M-800.562,129.545a2.386,2.386,0,0,0-1.963-.424,3.176,3.176,0,0,0-1.857,1.067,3.061,3.061,0,0,0-.771,2.15,2.423,2.423,0,0,0,.777,1.909,2.262,2.262,0,0,0,1.959.488,3.1,3.1,0,0,0,1.914-1.108,3.206,3.206,0,0,0,.759-2.117,2.23,2.23,0,0,0-.818-1.965m.822-2.033,1.328-.233,0,7.868-1.328.233.008-1.118a4.05,4.05,0,0,1-2.827,1.82,3.089,3.089,0,0,1-2.8-.8,3.685,3.685,0,0,1-1.143-2.82,4.55,4.55,0,0,1,1.049-3.065,4.261,4.261,0,0,1,2.608-1.545,3.069,3.069,0,0,1,3.108,1.12Z" fill="#a5242c"/>
    </g>
    <path id="Path_3" data-name="Path 3" d="M-789.955,125.787l-3.654,4.452,3.793,3.392-1.527.269-3.577-3.241.005,3.87-1.328.235-.006-11.015,1.328-.234.008,6.561,3.246-3.988Z" fill="#a5242c"/>
    <g id="Group_2" data-name="Group 2">
      <path id="Path_4" data-name="Path 4" d="M-788.092,130.1l-.29-4.591,0-3.148,1.6-.282,0,3.147-.274,4.691Zm-.482,2.445a1.185,1.185,0,0,1,.988-1.181.832.832,0,0,1,1,.861,1.189,1.189,0,0,1-1,1.185.823.823,0,0,1-.987-.865" fill="#a5242c"/>
      <path id="Path_5" data-name="Path 5" d="M-781.068,129.586l1.135-.876a2.385,2.385,0,0,0,2.963,1.445c1.389-.246,2.215-1.005,2.243-2a1.168,1.168,0,0,0-.784-1.231,6.2,6.2,0,0,0-1.792-.439,6.171,6.171,0,0,1-2.267-.717,2.288,2.288,0,0,1-1.089-2.153,3.041,3.041,0,0,1,.971-2.265,4.3,4.3,0,0,1,2.257-1.122,3.434,3.434,0,0,1,3.813,1.721l-1.138.861a2.255,2.255,0,0,0-2.54-1.188,2.121,2.121,0,0,0-1.924,1.849,1.247,1.247,0,0,0,.471,1.065,1.834,1.834,0,0,0,.575.309,10.069,10.069,0,0,0,1.475.337c.39.073.7.129.929.182a4.8,4.8,0,0,1,.884.286,2.788,2.788,0,0,1,.841.481,2.459,2.459,0,0,1,.765,1.926,3.024,3.024,0,0,1-1.011,2.3,4.852,4.852,0,0,1-2.514,1.183c-2.03.357-3.56-.38-4.263-1.956" fill="#a5242c"/>
      <path id="Path_6" data-name="Path 6" d="M-766,123.452a2.389,2.389,0,0,0-1.964-.426,3.2,3.2,0,0,0-1.857,1.067,3.069,3.069,0,0,0-.77,2.151,2.42,2.42,0,0,0,.777,1.909,2.259,2.259,0,0,0,1.96.488,3.091,3.091,0,0,0,1.913-1.108,3.214,3.214,0,0,0,.76-2.117,2.229,2.229,0,0,0-.819-1.964m.822-2.033,1.328-.235,0,7.869-1.328.233.007-1.118a4.047,4.047,0,0,1-2.826,1.82,3.092,3.092,0,0,1-2.8-.8,3.682,3.682,0,0,1-1.143-2.82,4.539,4.539,0,0,1,1.05-3.066,4.256,4.256,0,0,1,2.607-1.545,3.073,3.073,0,0,1,3.109,1.12Z" fill="#a5242c"/>
      <path id="Path_7" data-name="Path 7" d="M-751.421,119.653a2.753,2.753,0,0,1,.853,2.163l0,4.895-1.328.234-.005-4.846c-.014-1.241-.648-1.806-1.687-1.623-1.114.2-1.855,1.083-1.873,2.676l.008,4.421-1.327.233-.005-4.847c-.013-1.24-.618-1.81-1.611-1.635a2.448,2.448,0,0,0-1.949,2.689l0-.016,0,4.44-1.328.233,0-7.868,1.328-.234-.006.946a3.11,3.11,0,0,1,2.215-1.54,2.014,2.014,0,0,1,2.279.967,3.244,3.244,0,0,1,2.391-1.791,2.359,2.359,0,0,1,2.056.5" fill="#a5242c"/>
      <path id="Path_8" data-name="Path 8" d="M-743.077,123.5a3.113,3.113,0,0,0,.789-2.218,2.221,2.221,0,0,0-.8-1.873,2.291,2.291,0,0,0-1.884-.423,3.374,3.374,0,0,0-1.87,1.085,3.263,3.263,0,0,0-.81,2.189,2.337,2.337,0,0,0,.8,1.937,2.287,2.287,0,0,0,1.88.393,3.213,3.213,0,0,0,1.9-1.09m-4.7,1.709a3.424,3.424,0,0,1-1.227-2.852,4.552,4.552,0,0,1,1.182-3.119,4.861,4.861,0,0,1,2.836-1.586,3.328,3.328,0,0,1,2.833.712,3.531,3.531,0,0,1,1.206,2.825,4.494,4.494,0,0,1-1.13,3.142,4.735,4.735,0,0,1-2.775,1.575,3.5,3.5,0,0,1-2.925-.7" fill="#a5242c"/>
      <path id="Path_9" data-name="Path 9" d="M-737.889,117.755a3,3,0,0,1,2.39-1.712v1.432a2.911,2.911,0,0,0-1.692.849,2.6,2.6,0,0,0-.69,1.978l0-.014,0,4.186-1.327.234,0-7.868,1.328-.234Z" fill="#a5242c"/>
    </g>
    <path id="Path_10" data-name="Path 10" d="M-728.743,114.993l-.012.914-3.842,6.327,4-.705.009,1.3-5.891,1.039.012-.915,3.842-6.326-3.694.651.005-1.308Z" fill="#a5242c"/>
    <g id="Group_3" data-name="Group 3">
      <path id="Path_11" data-name="Path 11" d="M-721.49,115.6a2.389,2.389,0,0,0-1.964-.425,3.194,3.194,0,0,0-1.857,1.067,3.06,3.06,0,0,0-.77,2.15,2.423,2.423,0,0,0,.777,1.909,2.255,2.255,0,0,0,1.959.488,3.1,3.1,0,0,0,1.914-1.108,3.212,3.212,0,0,0,.76-2.117,2.234,2.234,0,0,0-.819-1.964m2.152,5.6a3.367,3.367,0,0,0-1.046,2.01c.021.3.182.408.487.354a1.579,1.579,0,0,0,.559-.224l0,1.006a2.529,2.529,0,0,1-.958.374,1.052,1.052,0,0,1-1.385-1.078,4.163,4.163,0,0,1,1.009-2.223l.009-1.1a4.047,4.047,0,0,1-2.826,1.82,3.091,3.091,0,0,1-2.8-.8,3.683,3.683,0,0,1-1.143-2.82,4.534,4.534,0,0,1,1.05-3.065,4.257,4.257,0,0,1,2.607-1.546,3.07,3.07,0,0,1,3.108,1.12l-.005-1.463,1.328-.233Z" fill="#a5242c"/>
      <path id="Path_12" data-name="Path 12" d="M-711.645,113.867a2.372,2.372,0,0,0-1.948-.428,3.2,3.2,0,0,0-1.873,1.071,3.07,3.07,0,0,0-.77,2.149,2.424,2.424,0,0,0,.778,1.909,2.256,2.256,0,0,0,1.959.488,3.128,3.128,0,0,0,1.929-1.111,3.206,3.206,0,0,0,.759-2.116,2.272,2.272,0,0,0-.834-1.962m.834-5.183,1.328-.235.006,11.016-1.328.234,0-1.134a4.056,4.056,0,0,1-2.839,1.838,3.09,3.09,0,0,1-2.8-.8,3.686,3.686,0,0,1-1.144-2.82,4.55,4.55,0,0,1,1.05-3.066,4.25,4.25,0,0,1,2.607-1.544,3.053,3.053,0,0,1,3.113,1.134Z" fill="#a5242c"/>
      <path id="Path_13" data-name="Path 13" d="M-702.045,110.286l1.48-.261-3.1,8.9c-.7,2.012-1.831,3.093-3.391,3.258l0-1.274c.974-.093,1.527-.709,1.989-1.925l.165-.406-3.286-7.21,1.343-.237,2.574,5.762Z" fill="#a5242c"/>
      <path id="Path_14" data-name="Path 14" d="M-808.367,149.809a2.369,2.369,0,0,0-1.948-.427,3.19,3.19,0,0,0-1.873,1.07,3.059,3.059,0,0,0-.769,2.15,2.42,2.42,0,0,0,.776,1.909,2.265,2.265,0,0,0,1.96.488,3.132,3.132,0,0,0,1.927-1.111,3.207,3.207,0,0,0,.761-2.117,2.277,2.277,0,0,0-.834-1.962m.833-5.183,1.328-.234.006,11.015-1.328.235.005-1.135a4.063,4.063,0,0,1-2.839,1.839,3.1,3.1,0,0,1-2.8-.8,3.681,3.681,0,0,1-1.142-2.82,4.535,4.535,0,0,1,1.049-3.065,4.252,4.252,0,0,1,2.606-1.545,3.054,3.054,0,0,1,3.113,1.134Z" fill="#a5242c"/>
    </g>
    <path id="Path_15" data-name="Path 15" d="M-804.016,155.022l-.009-4.783v-6.7l1.328-.234.01,11.487Z" fill="#a5242c"/>
    <g id="Group_4" data-name="Group 4">
      <path id="Path_16" data-name="Path 16" d="M-794.995,147.451a2.386,2.386,0,0,0-1.964-.425,3.188,3.188,0,0,0-1.857,1.068,3.06,3.06,0,0,0-.77,2.15,2.421,2.421,0,0,0,.778,1.909,2.257,2.257,0,0,0,1.958.488,3.1,3.1,0,0,0,1.914-1.108,3.212,3.212,0,0,0,.76-2.117,2.235,2.235,0,0,0-.819-1.965m.822-2.033,1.328-.235,0,7.869-1.328.234.007-1.119a4.048,4.048,0,0,1-2.826,1.821,3.091,3.091,0,0,1-2.8-.8,3.678,3.678,0,0,1-1.142-2.82,4.535,4.535,0,0,1,1.049-3.065,4.257,4.257,0,0,1,2.607-1.546,3.074,3.074,0,0,1,3.109,1.121Z" fill="#a5242c"/>
      <path id="Path_17" data-name="Path 17" d="M-782.754,141.626l-2.4.423-.006,4.344,2.138-.377a2.7,2.7,0,0,0,2.355-2.713,1.584,1.584,0,0,0-2.091-1.677m-.051-1.36a2.931,2.931,0,0,1,2.542.575,2.958,2.958,0,0,1,1.015,2.37,4.042,4.042,0,0,1-.955,2.7,4.46,4.46,0,0,1-2.733,1.457l-2.214.39,0,3.934-1.421.25-.006-11.014Z" fill="#a5242c"/>
      <path id="Path_18" data-name="Path 18" d="M-772.07,147.5a3.111,3.111,0,0,0,.789-2.217,2.221,2.221,0,0,0-.8-1.873,2.284,2.284,0,0,0-1.884-.423,3.38,3.38,0,0,0-1.87,1.085,3.261,3.261,0,0,0-.81,2.189,2.343,2.343,0,0,0,.8,1.937,2.286,2.286,0,0,0,1.88.392,3.2,3.2,0,0,0,1.9-1.09m-4.7,1.71A3.426,3.426,0,0,1-778,146.358a4.545,4.545,0,0,1,1.182-3.119,4.86,4.86,0,0,1,2.836-1.585,3.332,3.332,0,0,1,2.833.711,3.533,3.533,0,0,1,1.206,2.825,4.49,4.49,0,0,1-1.13,3.143,4.741,4.741,0,0,1-2.775,1.575,3.5,3.5,0,0,1-2.925-.7" fill="#a5242c"/>
    </g>
    <path id="Path_19" data-name="Path 19" d="M-768.189,148.705l-.009-4.783v-6.7l1.327-.234.012,11.487Z" fill="#a5242c"/>
    <g id="Group_5" data-name="Group 5">
      <path id="Path_20" data-name="Path 20" d="M-765.03,146.448l1.083-.82a1.682,1.682,0,0,0,1.982.894c.9-.159,1.481-.623,1.487-1.3,0-1.669-4.341-.068-4.325-3.014a2.322,2.322,0,0,1,.71-1.683,3.254,3.254,0,0,1,1.819-.935,2.693,2.693,0,0,1,2.936,1.12l-1.067.818a1.437,1.437,0,0,0-1.712-.69,1.424,1.424,0,0,0-1.334,1.274c0,.629.671.857,1.508.961,1.231.114,2.81.323,2.8,2.071-.008,1.386-1.048,2.356-2.712,2.65a2.763,2.763,0,0,1-3.18-1.344" fill="#a5242c"/>
    </g>
    <path id="Path_21" data-name="Path 21" d="M-751.02,137.809l-3.654,4.452,3.793,3.392-1.527.269-3.577-3.241.005,3.871-1.328.234-.006-11.015,1.328-.234.008,6.561,3.247-3.988Z" fill="#a5242c"/>
    <g id="Group_6" data-name="Group 6">
      <path id="Path_22" data-name="Path 22" d="M-749.491,145.408l0-7.868,1.328-.235,0,7.869Zm-.22-10.175a1.07,1.07,0,0,1,.88-1.084.764.764,0,0,1,.906.77,1.1,1.1,0,0,1-.9,1.071.742.742,0,0,1-.889-.757" fill="#a5242c"/>
      <path id="Path_23" data-name="Path 23" d="M-746.127,143.949a1.183,1.183,0,0,1,.988-1.181.833.833,0,0,1,1,.861,1.191,1.191,0,0,1-1,1.185.823.823,0,0,1-.987-.865" fill="#a5242c"/>
      <path id="Path_24" data-name="Path 24" d="M-746.952,87.252l-1.029-8.693v-7.1l6.293-1.109v7.1l-1.069,9.062Zm-1.259,6.15a4.029,4.029,0,0,1,3.35-3.892,2.79,2.79,0,0,1,3.316,2.859,3.968,3.968,0,0,1-3.349,3.892,2.79,2.79,0,0,1-3.317-2.859" fill="#a5242c"/>
    </g>
    <path id="Path_25" data-name="Path 25" d="M-794.592,61.848l-21.049,3.711v47.623l21.47-3.786,21.049-3.711v-4.92l-19.047,3.359-18.627,3.284V69.625l19.047-3.359,18.627-3.284V58.062Z" fill="#a5242c"/>
    <g id="Group_7" data-name="Group 7">
      <path id="Path_26" data-name="Path 26" d="M-773.122,111.814v-4.921l18.4-3.244,15.271-2.693a4.844,4.844,0,0,0,4.005-4.771V62.467L-754.3,65.792l-18.819,3.319V64.189l20.82-3.67,21.7-3.826V96.249a9.614,9.614,0,0,1-7.944,9.468l-13.333,2.351Z" fill="#a5242c"/>
    </g>
    <path id="Path_27" data-name="Path 27" d="M-787.558,71.335V76.8l-6.293,1.11V97.3l-5.593.986V78.9l-6.293,1.109V74.541Z" fill="#a5242c"/>
    <g id="Group_8" data-name="Group 8">
      <path id="Path_28" data-name="Path 28" d="M-775.764,85.232c0-2.662-1.72-4.027-4.132-3.6a4.932,4.932,0,0,0-4.118,5.057c0,2.662,1.683,4.034,4.095,3.608a5,5,0,0,0,4.161-5.028Zm.02-8.878,5.244-.925V93.186l-5.284.925,0-1.208a8.074,8.074,0,0,1-4.952,2.577,6.523,6.523,0,0,1-6.343-1.829,8.918,8.918,0,0,1-2.256-6.452,11.352,11.352,0,0,1,2.212-6.674,9.179,9.179,0,0,1,6.083-3.735,5.623,5.623,0,0,1,5.3,1.443Z" fill="#a5242c"/>
    </g>
    <path id="Path_29" data-name="Path 29" d="M-775.744,76.354l2.622-.462,2.621-.462Z" fill="#a5242c"/>
    <path id="Path_30" data-name="Path 30" d="M-749.767,96.623l-6.342-7.756L-749.9,78.9l-6.047,1.066-5.006,8.236V73.738l-5.245.924V99.52l5.245-.925V90.482l5.593,7.128Z" fill="#a5242c"/>
  </g>
</svg>
