<svg id="priorytet-02" xmlns="http://www.w3.org/2000/svg" xmlns:xlink="http://www.w3.org/1999/xlink" width="300" height="301.528" viewBox="0 0 300 301.528">
  <defs>
    <clipPath id="clip-path">
      <rect id="Rectangle_88" data-name="Rectangle 88" width="300" height="301.528" fill="none"/>
    </clipPath>
  </defs>
  <g id="Group_130" data-name="Group 130" clip-path="url(#clip-path)">
    <path id="Path_745" data-name="Path 745" d="M262.306,137.5A125.229,125.229,0,1,1,137.078,12.272,125.228,125.228,0,0,1,262.306,137.5" transform="translate(12.784 13.241)" fill="#fff"/>
    <path id="Path_746" data-name="Path 746" d="M197.59,7.293C138-12.274,71.345,8.539,32.633,57.625-6.1,106.736-11.092,176.8,21.623,230.366c33.243,54.431,99.312,81.82,161.358,67.315C251.329,281.7,299.33,218.7,300,149.176c-.615-63.8-41.361-121.833-102.41-141.883m-2.6,280.437c-56.808,17.964-120.4-1.353-157.672-47.789C-.329,193.03-5.287,125.3,26.781,74.074,59,22.611,121.91-2.694,180.942,10.564c65.88,14.794,112.79,74.649,113.436,141.735-.592,61.494-40.444,116.792-99.387,135.432" transform="translate(0 0)" fill="#a5242c"/>
    <path id="Path_747" data-name="Path 747" d="M172.58,146.98c1.1-6.667-.017-14.382-.017-20.58a3.185,3.185,0,0,0-.166-1.071c-1.782-11.621-14.717-16.621-25.051-18.819a78.4,78.4,0,0,0-22.987-1.37c.414-5.486-.249-11.391-.349-16.445,1.031-6.262.116-13.443,0-19.428,1.1-6.667-.015-14.382-.015-20.578a3.167,3.167,0,0,0-.166-1.071C122.044,36,109.111,31,98.777,28.8c-15.32-3.256-34.987-2.254-48.248,7.033-5.114,3.58-9.474,9.187-9.763,15.274a2.842,2.842,0,0,0-.1.7c0,6.058-1.266,14.037-.019,20.632-.139,5.883-1.166,13.258,0,19.428-.139,5.886-1.166,13.26,0,19.428-.139,5.886-1.166,13.26,0,19.428-.139,5.883-1.166,13.258,0,19.426-.181,7.607-1.865,17.715,1.655,24.465,7.542,14.472,31.827,16.07,45.673,14.881.428-.037.871-.085,1.308-.131a17.86,17.86,0,0,0,1.588,4.678c7.542,14.47,31.827,16.068,45.673,14.883,12.158-1.044,28.44-5.156,34.3-17.287,3.478-7.208,1.9-17.28,1.742-25.234,1.031-6.262.116-13.44,0-19.426m-5.636,40.577c-3.11,14.546-30.532,15.287-41.689,14.237-9.395-.884-24.523-3.832-29.157-13.426a13.8,13.8,0,0,1-1.071-3.206c-.052-.245-.135-.474-.175-.726-.116-.775-.2-1.561-.268-2.353q-.09-1.135-.121-2.287a22.242,22.242,0,0,0,2.451,1.965q1.1.767,2.318,1.447l.029.017c.189.114.395.208.588.32.247.141.507.274.763.414a36.879,36.879,0,0,0,4.353,2.029c8.293,3.185,18.278,4,26.38,3.79.609-.008,1.2-.023,1.748-.046,1.06-.044,2.185-.125,3.335-.227.035,0,.075,0,.112-.008.721-.06,1.457-.135,2.2-.22.393-.044.8-.1,1.2-.152.143-.019.285-.033.43-.054a60.059,60.059,0,0,0,17.016-4.669c.089-.042.179-.081.268-.125.347-.164.692-.326,1.033-.5a29.629,29.629,0,0,0,8.692-6.289,39.661,39.661,0,0,1-.439,10.068m-90.258-5.191c-10.578-.994-28.455-4.584-30.4-17.355a38.467,38.467,0,0,1-.391-4.642,24.852,24.852,0,0,0,4.767,3.41.169.169,0,0,0,.037.021c.185.112.389.206.578.314,8.987,5.2,21.632,6.488,31.5,6.237.609-.01,1.2-.023,1.75-.046,1.021-.042,2.1-.123,3.21-.216.079-.008.162-.012.239-.017.152-.015.31-.031.464-.048.26-.025.507-.042.769-.069-.114,3.848-.572,8.3-.543,12.623a87.839,87.839,0,0,1-11.977-.212M62.056,36.983a69.449,69.449,0,0,1,32.49-1.376c7.894,1.509,21.376,5.426,23.553,14.644a10.857,10.857,0,0,1,.249,1.418c.006.05.021.094.025.141,0,1.6.089,3.3.2,5.031.129,2.083.274,4.218.331,6.326a37.5,37.5,0,0,1-.316,6.511l-.008.044c-.064.426-.112.859-.2,1.27-.006.033-.019.064-.027.1l-.006.029a12.046,12.046,0,0,1-1.472,3.644,13.973,13.973,0,0,1-2.74,3.2,19.41,19.41,0,0,1-2.8,2.019c-.135.083-.266.168-.4.247-8.2,4.69-21.126,5.557-29.812,5.266-.031,0-.062,0-.1,0-.3-.01-.59-.021-.873-.033l-.01,0c-.035,0-.075,0-.11,0-1.22-.056-2.345-.133-3.337-.227-.821-.077-1.694-.179-2.59-.289-.549-.069-1.1-.135-1.667-.218h-.006c-6.239-.906-13.636-2.746-19-6.4-.563-.383-1.108-.782-1.622-1.2a17.677,17.677,0,0,1-2.1-2.069,14.146,14.146,0,0,1-2.979-5.368c-.042-.137-.067-.285-.1-.424a14,14,0,0,1-.331-1.385,39.007,39.007,0,0,1-.4-4.881v-.154c.021.023.044.044.067.064a21.793,21.793,0,0,0,1.657,1.491,32.822,32.822,0,0,0,10.041,5.289c.536.183,1.067.376,1.611.538a59.257,59.257,0,0,0,5.979,1.462,84.182,84.182,0,0,0,8.9,1.2c2.43.2,4.753.318,6.846.366a2.66,2.66,0,0,0,1.6-.588,6.943,6.943,0,0,0,2.135-2.919.515.515,0,0,0,.021-.06,5.848,5.848,0,0,0,.366-1.391c.139-1.127-.2-2.019-1.256-2.143-.064-.008-.116-.029-.187-.033-10.233-.227-21.3-1.565-30.051-7.332-.023-.017-.048-.027-.073-.044-.514-.339-1.056-.726-1.6-1.143a23.215,23.215,0,0,1-2.26-1.965,11.225,11.225,0,0,1-3.264-5.376,6.652,6.652,0,0,1-.137-1.368c0-.089-.006-.175,0-.264a6.689,6.689,0,0,1,.087-.83c1.042-5.967,10.806-9.335,15.692-10.806M166.667,127.96a10.947,10.947,0,0,1,.249,1.42c.006.048.023.094.027.141,0,1.6.087,3.3.2,5.031.127,2.081.272,4.218.328,6.324a37.52,37.52,0,0,1-.316,6.513l-.006.044c-.067.424-.114.859-.2,1.268-.008.035-.021.064-.029.1l-.006.027a11.993,11.993,0,0,1-1.472,3.644,13.825,13.825,0,0,1-2.738,3.2,18.99,18.99,0,0,1-2.8,2.023c-.135.081-.264.168-.4.247-8.2,4.69-21.128,5.557-29.814,5.266l-.058,0c-.31-.006-.617-.019-.917-.031l-.015,0c-1.258-.056-2.416-.137-3.434-.233-.272-.025-.57-.062-.85-.089-.565-.06-1.143-.125-1.742-.2-.484-.058-.975-.123-1.478-.193-.062-.01-.121-.015-.183-.025l-.01,0c-.68-.1-1.374-.21-2.077-.333-1.239-.212-2.507-.474-3.786-.769-.031-.006-.064-.015-.1-.023-1.247-.291-2.5-.615-3.738-1-1.019-.312-2.021-.667-3.008-1.05-.027-.012-.054-.023-.081-.033a30.929,30.929,0,0,1-6.214-3.2c-.563-.38-1.106-.78-1.62-1.206a17.37,17.37,0,0,1-2.106-2.066,14.624,14.624,0,0,1-2.166-3.243l-.008-.021a13.794,13.794,0,0,1-.8-2.1c-.04-.137-.064-.285-.1-.426-.056-.216-.11-.434-.156-.655-.052-.247-.135-.474-.175-.726-.116-.775-.2-1.561-.268-2.358,0-.037,0-.079-.006-.118-.062-.792-.1-1.6-.118-2.41,0-.05,0-.1,0-.152.023.023.044.044.067.062A21.755,21.755,0,0,0,96.18,142.1c.279.227.563.443.854.657.048.035.1.075.146.11a28.491,28.491,0,0,0,3.572,2.2,37.2,37.2,0,0,0,4.391,1.96c.021.008.042.012.062.021.333.123.68.225,1.017.341.536.183,1.069.374,1.611.541a60.523,60.523,0,0,0,5.979,1.457c1.4.272,2.8.491,4.183.682l.064.008c.114.017.229.033.341.048s.2.029.306.042c.661.085,1.314.158,1.967.227l.443.05c.023,0,.046,0,.069.006.514.05,1.021.1,1.528.139.137.012.272.023.41.033l.017,0c.339.025.68.056,1.015.079,1.9.133,3.73.214,5.405.252a2.675,2.675,0,0,0,1.6-.586,6.922,6.922,0,0,0,2.133-2.919l.023-.06A5.967,5.967,0,0,0,133.68,146c.139-1.127-.2-2.021-1.256-2.143a1.322,1.322,0,0,0-.185-.031c-2.576-.058-5.2-.187-7.834-.439-.279-.025-.557-.069-.836-.1q-1.194-.125-2.387-.285c-.372-.052-.744-.1-1.114-.158-.387-.062-.769-.141-1.156-.208q-1.787-.306-3.549-.721l-.191-.046-.1-.025q-1.852-.449-3.655-1.035c-1-.322-1.985-.667-2.954-1.064l-.062-.027a36.129,36.129,0,0,1-6.216-3.227c-.025-.017-.05-.027-.075-.044-.513-.341-1.054-.726-1.6-1.143a22.926,22.926,0,0,1-2.26-1.967c-.2-.2-.4-.4-.584-.613a12.887,12.887,0,0,1-1.859-2.582l-.012-.021a9.322,9.322,0,0,1-.466-1.019,7.409,7.409,0,0,1-.341-1.141,6.55,6.55,0,0,1-.129-1.052c-.006-.1-.01-.21-.01-.316,0-.087-.006-.175,0-.262a6.726,6.726,0,0,1,.087-.829c.021-.114.067-.225.091-.335a6.591,6.591,0,0,1,.545-1.489c.025-.048.042-.094.067-.141,1.844-3.445,6.611-5.856,10.748-7.42,1.572-.593,3.052-1.067,4.243-1.424l.017,0a58.709,58.709,0,0,1,5.8-1.4c.222-.046.447-.089.669-.131l.183-.035c.385-.071.763-.16,1.15-.222.609-.1,1.224-.162,1.838-.243.3-.04.6-.079.9-.116.584-.069,1.164-.152,1.75-.206l.031,0c.4-.04.8-.052,1.208-.081a72.694,72.694,0,0,1,18.941,1.06c7.894,1.516,21.376,5.43,23.553,14.646m-7.174,49.411c-8.2,4.688-21.12,5.557-29.806,5.266l-.154-.006c-.274-.008-.553-.019-.821-.029-.044,0-.087-.006-.131-.006-1.216-.058-2.337-.135-3.326-.229-.817-.077-1.688-.177-2.58-.287a74.038,74.038,0,0,1-7.644-1.347c-1.247-.291-2.5-.615-3.738-1-1.019-.314-2.021-.671-3.008-1.052-5.3-2.046-9.954-5.12-12.187-9.744l-.008-.019a13.877,13.877,0,0,1-.8-2.1c-.04-.139-.064-.285-.1-.424-.056-.218-.11-.435-.156-.659-.052-.245-.135-.47-.175-.723-.116-.773-.2-1.561-.268-2.358,0-.039,0-.077-.006-.118q-.084-1.073-.114-2.166c.509.474,1.052.925,1.617,1.355.222.168.443.341.674.5.052.035.108.071.16.108q1.1.764,2.316,1.443l.035.021c.191.106.385.21.578.314.252.143.514.279.769.416a36.153,36.153,0,0,0,4.3,2.01l.054.025c.243.094.5.164.744.254a58.142,58.142,0,0,0,12.21,2.869c.9.118,1.8.21,2.7.3q1.235.119,2.455.2c2.871.189,5.663.239,8.262.173.609-.01,1.2-.023,1.753-.046,1.056-.046,2.179-.125,3.324-.225.04,0,.083-.006.123-.008.721-.062,1.457-.137,2.2-.22.4-.048.794-.1,1.2-.152.143-.019.285-.037.43-.058a66.092,66.092,0,0,0,12.4-2.823,46.69,46.69,0,0,0,4.619-1.846l.268-.123c.349-.162.692-.328,1.033-.5a33.969,33.969,0,0,0,5.148-3.127,26.01,26.01,0,0,0,2.626-2.214c.316-.308.622-.626.919-.948.04.751.067,1.5.085,2.245a37.5,37.5,0,0,1-.316,6.511l-.006.042c-.067.426-.114.859-.2,1.272-.008.031-.021.064-.029.1l-.006.029c-.9,4.012-3.659,6.965-7.416,9.114m-79.379-14.2c-1.256-.056-2.412-.137-3.428-.233-.821-.079-1.694-.175-2.59-.289-.549-.067-1.1-.135-1.667-.218l-.006,0c-9.942-1.441-22.848-5.229-25.706-15.039-.042-.137-.064-.285-.1-.424a14.1,14.1,0,0,1-.331-1.383c-.021-.139-.029-.279-.048-.414v0a39.5,39.5,0,0,1-.343-4.227q.767.708,1.62,1.353a27.39,27.39,0,0,0,3.15,2.058l.031.017c.187.114.393.208.584.318a36.72,36.72,0,0,0,5.865,2.7c8.143,2.954,17.767,3.734,25.631,3.532.609-.008,1.2-.021,1.75-.044,1.033-.046,2.129-.127,3.247-.222.064-.006.135-.008.2-.015.135-.01.274-.027.414-.039.274-.027.541-.046.819-.073-.112,3.827-.565,8.251-.543,12.551v.069c-2.7.133-5.272.137-7.553.06l-.058,0c-.31-.006-.62-.019-.917-.031l-.021,0m35.155-79.657a26.043,26.043,0,0,0,2.624-2.216c.318-.306.624-.626.921-.948.037.748.064,1.5.085,2.243a37.51,37.51,0,0,1-.316,6.513l-.008.044c-.064.424-.112.857-.2,1.27-.006.033-.019.064-.027.1l-.006.025a12.036,12.036,0,0,1-1.472,3.646,13.963,13.963,0,0,1-2.74,3.2,18.955,18.955,0,0,1-2.8,2.021c-.135.081-.266.168-.4.247-8.2,4.69-21.128,5.559-29.814,5.266l-.058,0c-.31-.01-.62-.021-.917-.033h-.021c-1.256-.058-2.412-.139-3.428-.235-.821-.077-1.694-.177-2.59-.287-.549-.069-1.1-.137-1.667-.22h-.006c-6.239-.9-13.636-2.744-19-6.4-.563-.38-1.108-.78-1.622-1.2a18,18,0,0,1-2.1-2.069,14.131,14.131,0,0,1-2.979-5.368c-.042-.139-.064-.285-.1-.424a13.963,13.963,0,0,1-.331-1.383c-.021-.137-.029-.277-.048-.414v0a39.5,39.5,0,0,1-.343-4.227c.511.474,1.052.923,1.62,1.355a27.446,27.446,0,0,0,3.148,2.056l.037.021c.185.112.389.2.578.312a36.488,36.488,0,0,0,5.867,2.7c.615.222,1.233.439,1.863.638a55.893,55.893,0,0,0,5.8,1.466,73.922,73.922,0,0,0,8.513,1.177c2.563.206,5.037.26,7.422.252.7.008,1.383.008,2.029,0,.609-.008,1.2-.023,1.75-.044.268-.012.568-.042.842-.058.339-.019.653-.044.983-.064.536-.037,1.048-.056,1.6-.108.732-.062,1.476-.135,2.237-.225.378-.046.763-.1,1.15-.146l.466-.062c2.073-.279,4.2-.644,6.349-1.129a59.017,59.017,0,0,0,6.046-1.7c.491-.166.979-.337,1.462-.52,1.077-.4,2.129-.846,3.162-1.326.087-.039.177-.079.264-.121.349-.162.692-.331,1.033-.5a34.092,34.092,0,0,0,5.15-3.127m3.63,18.509c.035,1.3.025,2.58-.042,3.834-.516.089-1.027.2-1.538.3a55.664,55.664,0,0,0-8.476,2.382c-.264.1-.53.193-.794.3a45.4,45.4,0,0,0-5.476,2.568,40.153,40.153,0,0,0-3.476,2.143c-.037.025-.075.056-.112.083a24.142,24.142,0,0,0-8.619,10.48c-.012.027-.025.06-.037.089-3.308.222-6.472.247-9.216.156-.031,0-.062,0-.1,0-.3-.012-.59-.021-.873-.033l-.01,0-.11-.006c-1.22-.056-2.345-.133-3.337-.227-.821-.077-1.694-.177-2.59-.289-.549-.067-1.1-.135-1.667-.218h-.006c-6.239-.906-13.636-2.744-19-6.4-.563-.385-1.108-.782-1.622-1.206a17.837,17.837,0,0,1-2.1-2.069,14.138,14.138,0,0,1-2.979-5.366c-.042-.139-.064-.285-.1-.426a13.729,13.729,0,0,1-.331-1.385c-.021-.135-.029-.274-.048-.412v0a39.47,39.47,0,0,1-.343-4.222q.767.708,1.62,1.351a26.381,26.381,0,0,0,3.148,2.056.168.168,0,0,0,.037.021c.185.112.389.206.578.316a36.851,36.851,0,0,0,5.867,2.7c.615.22,1.233.437,1.863.632a54.876,54.876,0,0,0,5.8,1.47,73.47,73.47,0,0,0,8.513,1.177c2.565.2,5.041.262,7.426.254.7.008,1.38.008,2.025,0,.609-.01,1.2-.025,1.75-.048.274-.012.578-.042.859-.056.235-.015.451-.031.682-.046.628-.042,1.233-.069,1.888-.127.728-.062,1.466-.135,2.22-.222.4-.05.8-.1,1.2-.156.143-.017.285-.035.428-.054,2.073-.279,4.2-.647,6.351-1.131a59.529,59.529,0,0,0,6.046-1.692c.491-.166.979-.341,1.462-.52,1.075-.4,2.127-.85,3.16-1.326.089-.044.179-.081.268-.125.347-.16.69-.328,1.033-.5a33.889,33.889,0,0,0,5.147-3.125,26.3,26.3,0,0,0,2.624-2.214c.318-.31.624-.628.921-.95.037.751.064,1.5.085,2.245M46.235,125.737a39.47,39.47,0,0,1-.343-4.222q.767.7,1.62,1.353a26.828,26.828,0,0,0,3.15,2.054l.031.021c.189.114.4.208.586.318a36.683,36.683,0,0,0,5.863,2.7c.615.225,1.233.439,1.863.638a55.474,55.474,0,0,0,5.8,1.468,73.112,73.112,0,0,0,8.515,1.175c2.568.206,5.046.262,7.432.254.7.008,1.374.008,2.017,0,.611-.008,1.2-.021,1.753-.046.268-.012.568-.04.842-.056.333-.017.64-.044.963-.064.543-.037,1.06-.058,1.624-.106.414-.037.832-.077,1.254-.123,0,.083-.006.17-.008.254-.127,3.771-.557,8.093-.534,12.3v.071c-2.7.133-5.27.137-7.551.06-.031,0-.062,0-.1,0-.3-.008-.59-.019-.873-.033-.042,0-.079,0-.121,0-1.22-.056-2.345-.135-3.337-.229-.821-.075-1.694-.177-2.59-.287-.549-.069-1.1-.137-1.667-.218l-.006,0c-6.239-.9-13.636-2.744-19-6.4-.563-.385-1.108-.782-1.622-1.208a17.365,17.365,0,0,1-2.1-2.069,14.116,14.116,0,0,1-2.979-5.368c-.042-.135-.067-.283-.1-.422a13.864,13.864,0,0,1-.331-1.385c-.021-.133-.029-.274-.048-.41v-.006" transform="translate(43.25 29.253)" fill="#a5242c"/>
  </g>
</svg>
