<svg id="priorytet-03" xmlns="http://www.w3.org/2000/svg" xmlns:xlink="http://www.w3.org/1999/xlink" width="300" height="301.528" viewBox="0 0 300 301.528">
  <defs>
    <clipPath id="clip-path">
      <rect id="Rectangle_85" data-name="Rectangle 85" width="300" height="301.528" fill="none"/>
    </clipPath>
  </defs>
  <g id="Group_118" data-name="Group 118" clip-path="url(#clip-path)">
    <path id="Path_737" data-name="Path 737" d="M262.306,137.5A125.228,125.228,0,1,1,137.078,12.272,125.227,125.227,0,0,1,262.306,137.5" transform="translate(12.784 13.241)" fill="#fff"/>
    <path id="Path_738" data-name="Path 738" d="M294.378,152.3c-.592,61.491-40.444,116.793-99.386,135.433-56.809,17.962-120.4-1.355-157.673-47.793C-.327,193.032-5.289,125.3,26.783,74.077,59.006,22.608,121.911-2.694,180.94,10.563c65.882,14.8,112.791,74.651,113.438,141.736.044,4.58,5.648-.15,5.621-3.12-.615-63.8-41.361-121.835-102.411-141.884C138-12.274,71.345,8.538,32.633,57.628-6.1,106.739-11.092,176.8,21.623,230.368c33.242,54.427,99.311,81.817,161.359,67.312C251.329,281.7,299.328,218.7,300,149.179c.044-4.565-5.592.162-5.621,3.12" transform="translate(0 0)" fill="#a5242c"/>
    <path id="Path_739" data-name="Path 739" d="M66.611,65.291A25.263,25.263,0,0,0,90.633,43.154c1.588-12.892-8.081-25.022-21.34-25.122-28.723-.225-32.93,45.631-2.682,47.259,3.029.164,6.085-6.95,2.682-7.133-7.8-.42-15.149-4.7-17.677-12.48a15.546,15.546,0,0,1,15-20.515c20.974-.114,25.685,31.758,2.682,32.995-3.027.162-5.927,7.307-2.682,7.133" transform="translate(49.375 19.455)" fill="#a5242c"/>
    <path id="Path_740" data-name="Path 740" d="M55.084,93v64.487c0,4.574,5.621-.156,5.621-3.121V89.879c0-4.572-5.621.156-5.621,3.12" transform="translate(59.433 94.922)" fill="#a5242c"/>
    <path id="Path_741" data-name="Path 741" d="M109.7,86.539C109,99.515,88.708,95.1,89.01,83.418c.15-5.767,5.883-8.75,11.131-7.838A11.582,11.582,0,0,1,109.7,86.539c.247,4.6,5.782-.129,5.621-3.12-.478-8.869-7.405-16.241-16.738-15.022-8.636,1.129-15.27,9.567-15.193,18.143.081,8.792,7.48,16.018,16.4,15.054,9.208-1,15.064-9.447,15.534-18.174.243-4.518-5.463.2-5.621,3.12" transform="translate(89.971 73.652)" fill="#a5242c"/>
    <path id="Path_742" data-name="Path 742" d="M99.133,146.314V102.092c0-4.576-5.621.154-5.621,3.118v44.223c0,4.574,5.621-.154,5.621-3.12" transform="translate(100.894 108.097)" fill="#a5242c"/>
    <path id="Path_743" data-name="Path 743" d="M98.89,140.405c-1.765,19.39-1.915,39.679-5.353,58.828-1.158,6.447-7.565,9.016-13.578,4.582-.863-.638-2.044.173-2.715.661-7.287,5.31-13.894-2.183-14.75-8.2-2.734-19.182-3.532-38.826-5.287-58.127-.075-.825-.4-2.006-1.468-2.006-7.289,0-14.675-2.291-13.854-11.239.312-3.405,1.382-6.908,2.052-10.255q3.592-17.959,7.183-35.924c1.366-6.821,1.5-16.713,4.6-23,3.859-7.817,23.885-5.089,31.13-4.854,13.1.418,13.609,8.538,15.663,18.8q3.574,17.847,7.147,35.7c1.41,7.046,2.434,14.318,4.26,21.272,3.439,13.091,13.761,18.155,26.438,18.155,6.52,0,13.226-.47,19.727,0,7.459.538,10.191,5.108,10.788,12.272.9,10.871,0,22.162,0,33.078,0,4.572,5.621-.156,5.621-3.12,0-10.407.173-20.829,0-31.234s-3.466-17.81-14.954-18.126c-11.827-.328-29.357,3.484-37.957-6.865-5.582-6.719-6.131-18.193-7.782-26.43l-7.567-37.793c-1.462-7.3-1.715-17.629-9.293-21.465-7.63-3.863-21.132-1.37-29.344-1.37-10.366,0-17.068,4.089-19.563,14.476-5.089,21.2-8.582,42.909-12.858,64.291-1.728,8.64-1.091,18.338,9.513,20.559,1.965.412,6.684.738,4.929-1.437.412.509.3,3.158.337,3.707.412,5.613,1.021,11.222,1.532,16.827,1.073,11.815,2.1,23.64,3.222,35.452.349,3.663.543,7.193,2.784,10.289a12.869,12.869,0,0,0,11.056,5.258,16.784,16.784,0,0,0,5.274-1.385c.857-.324,2.969-1.01,1.41-1.114-1.933-.129,1.166,1.281,1.578,1.511,8.775,4.935,18.193-4.466,19.958-12.349,2.058-9.189,1.821-19.449,2.674-28.806l2.913-32c.462-5.073-5.158-2-5.466,1.387" transform="translate(39.319 46.342)" fill="#a5242c"/>
    <path id="Path_744" data-name="Path 744" d="M89.009,150.67V98.054c0-4.574-5.621.156-5.621,3.121V153.79c0,4.574,5.621-.154,5.621-3.121" transform="translate(89.971 103.741)" fill="#a5242c"/>
  </g>
</svg>
