<svg id="priotytet-1" xmlns="http://www.w3.org/2000/svg" xmlns:xlink="http://www.w3.org/1999/xlink" width="300" height="301.528" viewBox="0 0 300 301.528">
  <defs>
    <clipPath id="clip-path">
      <rect id="Rectangle_83" data-name="Rectangle 83" width="300" height="301.528" fill="#a5242c"/>
    </clipPath>
  </defs>
  <g id="Group_114" data-name="Group 114" clip-path="url(#clip-path)">
    <path id="Path_691" data-name="Path 691" d="M262.3,137.5A125.227,125.227,0,1,1,137.077,12.272,125.226,125.226,0,0,1,262.3,137.5" transform="translate(12.785 13.241)" fill="#fff"/>
    <path id="Path_692" data-name="Path 692" d="M294.379,152.3c-.592,61.491-40.444,116.793-99.388,135.433-56.807,17.962-120.4-1.355-157.671-47.793C-.328,193.032-5.289,125.3,26.781,74.077,59,22.608,121.911-2.694,180.941,10.563c65.882,14.8,112.791,74.651,113.438,141.736.044,4.58,5.648-.15,5.621-3.12-.615-63.8-41.361-121.835-102.411-141.884C138-12.274,71.345,8.538,32.633,57.628-6.1,106.739-11.093,176.8,21.623,230.368c33.242,54.427,99.311,81.817,161.359,67.312C251.33,281.7,299.328,218.7,300,149.179c.044-4.565-5.592.162-5.621,3.12" transform="translate(0 0)" fill="#a5242c"/>
    <path id="Path_693" data-name="Path 693" d="M199.109,49.578h8.368c3.823,0,5.944,1.16,4.9-1.817.761,2.16,0,5.908,0,8.166V165.435q2.074-2.566,4.152-5.127H52.053c-5.707,0-13.33-1.335-18.927,0-.285.067-.225,3.133.709.364.911-2.707,0-7.536,0-10.355V44.451l-4.152,5.127h95.762c3.037,0,6.016-7.133,2.682-7.133H32.366c-2.422,0-4.152,2.954-4.152,5.127V165.435c0,.829.455,2,1.47,2H213.843c2.422,0,4.15-2.954,4.15-5.125V44.451c0-.829-.453-2.006-1.468-2.006H201.791c-3.035,0-6.016,7.133-2.682,7.133" transform="translate(30.441 45.796)" fill="#a5242c"/>
    <path id="Path_694" data-name="Path 694" d="M154.223,40.294Q128.705,65.812,103.189,91.33c-6.946,6.944-13.943,16.413-22.039,22.037-.751.52,2.555.428-1.175-.262a37.873,37.873,0,0,0-10.056,0c-2.611.358-.63.832-.518,1.193-.4-1.287,0-3.229,0-4.582v-9.339q-1.023,2.139-2.046,4.274Q104.188,67.82,141.02,30.987q-1.59.118-3.183.233,11.052,11.049,22.1,22.1.823-2.832,1.651-5.659-22.1,22.1-44.2,44.2c-2.3,2.3-2.058,9.016,1.532,5.428q22.1-22.1,44.2-44.2c1.01-1.01,3.177-4.135,1.653-5.657q-11.049-11.052-22.1-22.1a2.2,2.2,0,0,0-3.183.229L91.2,73.852c-7.865,7.865-15.927,15.575-23.613,23.613-5.549,5.8-3.8,13.014-3.8,20.767,0,.832.453,2.006,1.468,2.006,7.384,0,14,1.811,19.4-3.418,8.2-7.931,16.141-16.141,24.205-24.205Q132.3,69.167,155.753,45.72c2.3-2.3,2.058-9.014-1.53-5.426" transform="translate(68.538 26.702)" fill="#a5242c"/>
    <path id="Path_695" data-name="Path 695" d="M43.855,63.752H80.688c3.035,0,6.014-7.133,2.682-7.133H46.537c-3.035,0-6.016,7.133-2.682,7.133" transform="translate(45.735 61.089)" fill="#a5242c"/>
    <path id="Path_696" data-name="Path 696" d="M43.855,77.925H73.32c3.037,0,6.016-7.133,2.682-7.133H46.537c-3.035,0-6.016,7.133-2.682,7.133" transform="translate(45.735 76.381)" fill="#a5242c"/>
    <path id="Path_697" data-name="Path 697" d="M43.855,92.1H95.419c3.037,0,6.016-7.133,2.682-7.133H46.537c-3.035,0-6.016,7.133-2.682,7.133" transform="translate(45.735 91.673)" fill="#a5242c"/>
    <path id="Path_698" data-name="Path 698" d="M80.084,108.806c18.752-2.8,40.356-9.468,54.971-22.182,12.224-10.634,6.37-23.679-9.538-22.854a40.793,40.793,0,0,0-35,24.733c-5.147,12.561.185,30.972,16.727,27.558,2.85-.586,5.231-7.817,1.322-7.01a12.1,12.1,0,0,1-13.923-7.825c-3.382-8.744,2.906-18.1,9.49-23.232,5.929-4.628,22.981-12.037,29.9-5.12,8.492,8.492-21.372,20.365-26.039,22.155A125.461,125.461,0,0,1,81.406,101.8c-2.881.43-5.312,7.6-1.322,7.01" transform="translate(84.146 68.763)" fill="#a5242c"/>
  </g>
</svg>
