<svg xmlns="http://www.w3.org/2000/svg" width="422.121" height="496.553" viewBox="0 0 422.121 496.553">
  <g id="Group_203" data-name="Group 203" transform="translate(-1293.111 -433.649)">
    <ellipse id="Ellipse_1" data-name="Ellipse 1" cx="210.998" cy="210.998" rx="210.998" ry="210.998" transform="translate(1293.235 433.649)" fill="#fff"/>
    <g id="Group_171" data-name="Group 171" transform="translate(1293.111 525.818)">
      <path id="Path_788" data-name="Path 788" d="M98.347,66.5c8.332-13.685,21.379-24.766,37.544-27.441,15.606-2.579,31.951,2.35,44.334,11.974a61.651,61.651,0,0,1,18.111,75.446c-7.224,15.027-19.912,27.64-36.561,31.137-1.771.374-7.13,2.315-6.426,4.929.728,2.724,6.441,1.4,8.033,1.068,33.452-7.04,59.87-40.083,55.285-74.748C213.582,50.479,176.188,26.681,139.1,32.1c-22.052,3.228-42.393,15.561-54.053,34.72-3.083,5.064,11.156,3.193,13.3-.324" transform="translate(142.704 -31.337)" fill="#a5242c"/>
      <path id="Path_789" data-name="Path 789" d="M197.411,244.516q1.654,2.223,3.253,4.48a34.106,34.106,0,0,0,2.335,3.4c1.686,1.851-.354,1.412,1.1-1.073q5.561-1.946,11.121-3.907c2.031.359,1.322.733-.235-.968-1.267-1.387-2.534-2.769-3.782-4.171-2.36-2.664-4.645-5.383-7.04-8.013-3.632-3.976-7.389-7.838-11.161-11.675-10.787-10.966-21.8-21.7-32.854-32.4q-34.725-33.6-70.018-66.616-7.9-7.424-15.816-14.828l-.743,4.665q35.974-35.982,71.949-71.949l-12.588,1.347q59.556,59.563,119.117,119.127,8.412,8.4,16.819,16.819c.249-1.552.494-3.108.743-4.655q-30.085,30.077-60.169,60.165c-2.325,2.325-1.3,5.064,1.622,6.047,3.283,1.108,7.838-.349,10.223-2.739q30.085-30.085,60.169-60.165c1.118-1.123,2.12-3.283.743-4.665Q222.646,113.186,163.085,53.62q-8.412-8.412-16.818-16.819c-3.258-3.258-9.674-1.562-12.588,1.352Q97.7,74.121,61.73,110.1c-1.083,1.073-2.165,3.328-.743,4.655,39.559,36.925,79.228,73.885,117.256,112.391,4.415,4.47,8.826,8.961,13.042,13.62,2.954,3.258,5.757,6.646,8.721,9.894,1.686,1.856,3.941,5.064,6.616,5.543,3.812.678,8.965-.229,11.121-3.907,2.24-3.827-4.85-10.9-7-13.8-3.393-4.57-17.3.659-13.331,6.012" transform="translate(45.733 -16.612)" fill="#a5242c"/>
      <path id="Path_790" data-name="Path 790" d="M233.25,125.113C196,153.312,159.056,182.06,123.763,212.7c-13.8,11.974-27.7,24.153-40.008,37.7a72.04,72.04,0,0,0-4.959,5.927q6.735-1.257,13.481-2.52Q74.24,230.467,56.2,207.12c-.249,1.552-.494,3.108-.743,4.655q50.523-64.106,101.056-128.227l14.119-17.921c5.488-6.96-8.3-7.8-11.844-3.308Q108.264,126.433,57.736,190.546q-7.065,8.966-14.124,17.921c-1.113,1.412-2.036,2.993-.743,4.665Q60.9,236.474,78.945,259.816c3.2,4.146,11.076.793,13.486-2.514-.02.03-1.227,1.452-.125.18.838-.958,1.651-1.941,2.5-2.9,3.827-4.281,7.9-8.352,12.014-12.353,20.6-20.027,42.757-38.482,65.054-56.552,23.21-18.814,46.833-37.1,70.652-55.135,7.813-5.912-4.166-9.295-9.275-5.428" transform="translate(-26.344 81.153)" fill="#a5242c"/>
      <path id="Path_791" data-name="Path 791" d="M73.494,95.306c-15.162,5.917-27.66,17.8-32.235,33.657a56.34,56.34,0,0,0,3.492,40.323c2.729,5.533,6.651,10.747,11.954,14.039a9.291,9.291,0,0,0,10.392-.778c2.32-1.826,3.837-5.882.679-7.843-4.575-2.839-7.993-7.569-10.178-12.787A49.4,49.4,0,0,1,53.752,141c.669-17.163,10.343-30.429,26.288-36.65,2.934-1.142,5.234-4.884,3.323-7.778-2.13-3.228-6.925-2.41-9.869-1.267" transform="translate(-39.053 219.819)" fill="#a5242c"/>
      <path id="Path_792" data-name="Path 792" d="M79.188,55.39Q86.8,63.824,94.405,72.263q1.093,1.2,2.185,2.42c.853.948,2.739,1.143,3.872,1.162a14.24,14.24,0,0,0,5.663-1.148c1.706-.758,6.077-3.178,3.922-5.573q-7.618-8.434-15.222-16.873-1.093-1.2-2.185-2.42c-.853-.948-2.734-1.143-3.872-1.163A14.155,14.155,0,0,0,83.1,49.817C81.4,50.575,77.028,53,79.188,55.39" transform="translate(118.711 37.797)" fill="#a5242c"/>
      <path id="Path_793" data-name="Path 793" d="M86.489,82.122a37.367,37.367,0,0,0,6.187-4.5c2.41-1.981,4.73-4.061,7.035-6.167,4.51-4.121,8.916-8.352,13.276-12.633.938-.918,1.876-1.841,2.8-2.769.8-.8,1.741-1.981,1.407-3.223-.319-1.182-1.751-1.876-2.834-2.09-3.268-.654-7.788.3-10.218,2.739C97.061,60.564,89.851,67.6,82.2,74.069c-1.088.913-2.2,1.791-3.318,2.679,2.031-1.612.284-.22-.279.15a11.226,11.226,0,0,1-1.158.689c-2.09,1.1-4.2,4.43-1.212,5.837,3.293,1.552,7.254.259,10.253-1.3" transform="translate(103.366 45.285)" fill="#a5242c"/>
      <path id="Path_794" data-name="Path 794" d="M85.658,100.556a3.987,3.987,0,0,1-3.532-5.842c.12-.23,11.964-22.93,15.661-37.259a3.991,3.991,0,0,1,7.728,2c-3.926,15.222-15.816,38-16.32,38.961a3.979,3.979,0,0,1-3.537,2.14" transform="translate(130.952 60.898)" fill="#a5242c"/>
      <path id="Path_795" data-name="Path 795" d="M119.328,61.237q-13.456,4.752-26.917,9.509c-1.292.459-2.584.913-3.877,1.372-2.051.723-4.929,2.22-6.336,4-.873,1.108-1.552,2.809-.2,3.922,1.6,1.3,4.136,1.457,6.067,1.372A31.033,31.033,0,0,0,97.1,79.492q13.463-4.752,26.922-9.509c1.292-.459,2.579-.913,3.872-1.367,2.056-.728,4.929-2.225,6.336-4.006.878-1.108,1.552-2.809.2-3.917-1.592-1.307-4.131-1.457-6.062-1.377a31.1,31.1,0,0,0-9.04,1.921" transform="translate(129.214 80.205)" fill="#a5242c"/>
    </g>
  </g>
</svg>
