<svg id="Group_111" data-name="Group 111" xmlns="http://www.w3.org/2000/svg" xmlns:xlink="http://www.w3.org/1999/xlink" width="626.84" height="457.105" viewBox="0 0 626.84 457.105">
  <defs>
    <clipPath id="clip-path">
      <rect id="Rectangle_81" data-name="Rectangle 81" width="626.84" height="457.105" fill="#ed6a5b"/>
    </clipPath>
  </defs>
  <g id="Group_110" data-name="Group 110" clip-path="url(#clip-path)">
    <path id="Path_676" data-name="Path 676" d="M250.247,163.185c-26-5.523-51.7-11.966-78.275-15.944-5.488,23.783-2.311,45.172-1.733,66.733-14.153,9.141-15.886,8.288-18.2-7.766-7.51-47.2-4.91-95.313,7.221-144.82,3.753-15.969,8.378-32.094,13.285-47.691C176.3.33,177.75-.5,188.726.16c3.753-.087,6.641,1.142,10.109,1.972-8.38,35.271-17.91,69.3-23.687,105.555,7.8-6.574,10.687-12.572,11.842-20.282,4.331-22.139,8.954-44.038,13.287-65.888a8.378,8.378,0,0,1,3.177-5.758c-4.335,23.005-8.087,45.9-12.133,68.859.291.235,1.157.375,1.444.612a29.755,29.755,0,0,0,5.2-4.962,399.37,399.37,0,0,1,56.324-52.68c.865-.437,1.151-1.067,1.442-1.117,2.6-1.9,5.779-4.775,8.089-2.008,1.151,2.109.576,5.392.863,8.515,4.912-.576,9.822-13.573,16.466-4.348-31.483,32.7-65.566,62.395-94.161,101.23,4.331,1.257,6.643,2.584,9.243,3.279,18.775,6.224,37.549,12.154,56.035,17.848,9.821,2.888,19.93,5.44,30.039,7.7,11.552,2.3,23.974,3.861,35.238,5.917,8.376,1.123,11.265,5.813,10.109,18.147-26.284-6.628-51.413-13.751-77.409-19.568" transform="translate(44.828 9)" fill="#ed6a5b"/>
    <path id="Path_677" data-name="Path 677" d="M251.539,114.338c-15.6,17.194-30.908,13.539-32.352-3.537-1.444-11.586-.578-26.18,2.888-37.77,1.444-4.007,17.619-12.636,16.753-7-4.91,36.681-2.6,41.183-1.733,32.367.867-7.664,2.024-22.308,4.335-32.248.287-1.205,1.731,3.451,1.731,5.184-1.153,10.023-2.022,23.171-2.6,32.8-.58,12.522,8.374,3.724,11.263-2.274,4.91-10.107,11.267-23.937,15.309-32.737,1.735-3.77,11.844-7.286,5.777,4.758-4.621,10.922-13,31.462-21.372,40.449M229.3,48.652c-5.488-5.675-.289-17.565,11.554-13.3,4.91,8.665-2.022,14.509-11.554,13.3" transform="translate(110.259 40.884)" fill="#ed6a5b"/>
    <path id="Path_678" data-name="Path 678" d="M384.293,81.726c-16.173,28.268-30.039,10.208-32.061-6.767-.867-6.489-1.731-12.69-2.311-18.655-2.02-22.462-5.488-17.806-16.753,1.8-4.91,8.665-10.974,20.132-15.308,28.693-3.177,5.761-4.62,7.458-10.109,9.293-5.2,2.072-7.508.749-8.376-4.876-1.733-7.206-2.888-14.511-4.619-22.87-9.822,13-15.022,31.53-21.952,44.884-1.157,2.226-1.735,3.77-2.6,4.5-6.354,6.609-20.219,4.72-23.105-3.435-2.024-5.132-4.046-10.55-4.334-16.855a171.774,171.774,0,0,1,6.643-54.024c8.378-4.078,16.177-6.32,23.974-1.629-.576,16.277-2.02,33-2.6,49.559,4.333-7.983,13.864-25.84,19.061-31.089,5.488-5.59,12.133-5.028,14.733,3.466,1.731,5.763,3.464,11.81,5.486,18.963,7.8-13.506,18.774-34.794,28.6-44.9,7.8-8.307,20.219-14.54,21.95-2.426,2.022,10.622,3.466,20.184,4.623,30.091,3.177,24.276,16.462,10.67,26.282-12.724,4.046-9.378,15.308-9.341,8.665,2.228-4.62,8.613-10.109,17.667-15.886,26.773" transform="translate(132.61 35.459)" fill="#ed6a5b"/>
    <path id="Path_679" data-name="Path 679" d="M33.376,195.334c-11.552,6.366-20.506,27.875-19.928,43.95-5.779,3.618-8.378,3.5-11.265-.614-2.6-3.874-2.6-8.785-1.444-13.319A80.067,80.067,0,0,1,17.49,191.492c26-30.578,55.457-53.971,90.7-69.425,3.179-1.429,6.354-2.565,9.243-.476,1.444.9,3.755.782,5.49.476,3.753-.662,6.641.562,8.952,3.911-2.311,2.139-4.333,3.653-7.508,6.522.576,3.364.865,7.356,1.153,11.349,3.177,40.164.289,81.11-13.287,122.495-6.066,18.688-14.731,36.969-27.438,53.362a114.253,114.253,0,0,1-15.6,16.325,39.466,39.466,0,0,1-15.308,7.608,68.876,68.876,0,0,1-20.508,1.883c-10.685-.137-19.641-11.267-19.641-22.529,0-9.243,2.311-18.605,6.068-27.644,4.042-9.665,10.687-17.481,17.041-25.533.576-.391,1.155-.2,1.733-.3-4.046,7.933-8.376,15.628-12.133,23.8-4.619,10.057-7.219,20.336-6.064,30.53.867,4.758,1.733,9.8,8.087,11.282,0-2.02.578-3.277,0-4.908-4.335-13.966.867-28.46,8.086-42.731A302.257,302.257,0,0,1,73.238,233.36c9.819-11.84,21.085-23.071,34.37-31.187,5.2-3.227,7.512-7.389,7.8-12.64.578-15.409.867-31.347,1.444-46.755,0-1.444-.578-2.786-.867-5.338-3.755,1.82-6.643,3.2-8.954,5.336-14.731,10.394-29.748,20.556-43.9,32.579C39.444,195.13,33.376,204,19.514,233.88c-.58-10.294.867-14.883,13.862-38.547m64.7,65.131c7.512-20.968,11.842-46.28,10.109-52.619a8.027,8.027,0,0,0-2.309.7c-2.89,2.532-6.068,4.826-8.378,7.543A277.531,277.531,0,0,0,46.374,292.4c-4.044,8.511-6.353,17.583-5.2,26.042.289,3.127,1.442,5.813,2.886,9.89,18.775-18.905,31.195-40.449,43.039-61.889A245.5,245.5,0,0,1,62.26,323.678c18.2-18.228,28.017-40.466,35.816-63.213" transform="translate(0 111.482)" fill="#ed6a5b"/>
    <path id="Path_680" data-name="Path 680" d="M87.934,249.224c-28.017,1.186-22.239-41.71-14.153-60.465,6.643-15.617,18.488-23.481,31.772-22.645,21.954,4.506-6.643,44.785-17.91,49.37,0,5.486.58,13.473,2.89,17.4C96.308,243.128,120,217,135.3,192.35c11.265-13.539,5.2,3.127,1.733,8.939-8.954,17.752-28.6,46.63-49.1,47.936m.867-42.032c5.2-7.847,20.219-27.247,16.464-34.1-1.157-2.109-3.753-1.937-6.354,1.7-8.087,12.4-9.821,19.061-10.109,32.4" transform="translate(62.135 153.698)" fill="#ed6a5b"/>
    <path id="Path_681" data-name="Path 681" d="M137.465,205.184c7.508-8.257,11.554-12.145,17.617-18.7,9.532-10.057,9.532-1.97,6.356,2.923-4.333,6.543-13.864,17.752-20.219,25.227,2.6,6.474,5.488,14.627,6.354,21.409,2.311,16.344-1.157,33.128-13.575,46-21.661,22.3-45.059,18.345-34.949-19.254,4.331-15.493,11.844-27.5,19.065-39.463-2.026-3.976-10.4-24.162-10.978-25.5-3.757-6.847-4.908-23.394-.578-31.379,2.309-3.585,4.335-8.85,7.508-5.078,6.645,8.07,14.442,4.385,22.241-1.325.291-.628.582-.1,2.026-.356-3.179,6.915-5.492,13.1-13.288,17.076,3.755,8,8.954,20.949,12.42,28.424m-15.02,26.908c-5.2,8.139-11.552,21.967-14.155,33.4-4.333,19.537,0,30.037,12.422,6.474,6.93-13.354,6.068-29.375,1.733-39.877" transform="translate(89.434 147.802)" fill="#ed6a5b"/>
    <path id="Path_682" data-name="Path 682" d="M158.626,164.935c-15.6,5.925-30.906,12.089-46.5,18.307-6.934,2.956-6.934,2.956-11.844-3.978,2.6-1.9,5.2-4.094,7.8-5.417,10.4-4.722,20.8-8.867,31.195-13.3,6.068-2.226,19.93-8.136,28.6-11.107,1.151-7.425,3.753-21.459,8.665-28.967l4.62,16.8c1.444,6.1,2.022,6.574,8.086,4.926,13-3.734,25.709-8,38.706-11.157,17.33-3.922,34.372-6.926,51.7-10.56,5.488-.969,9.532.054,10.976,6.152-11.554,2.617-23.107,4.941-34.372,8.084-22.243,6.518-51.991,16.676-74.809,23.011-6.353,41.554-11.554,66.733-11.554,105.438,2.311,10.855,21.663-40.5,27.44-52.784,4.335.68,5.2,4.569,4.044,7.662L183.467,265.4a48.648,48.648,0,0,1-4.335,8.274c-6.064,10.023-18.484,11.923-23.105,3.208a33.9,33.9,0,0,1-4.044-14.307c-1.735-24.823,3.177-70.167,10.4-95.7.578-1.546,2.311-3.3,2.311.46,0,4.619-3.177,15.289-2.89,18.992s1.446,2.057,2.024.223c.867-2.465,4.046-19.776,4.331-23.292-4.04.711-6.93.643-9.53,1.681" transform="translate(92.819 111.227)" fill="#ed6a5b"/>
    <path id="Path_683" data-name="Path 683" d="M168.633,234.995c-28.019,1.188-22.241-41.71-14.153-60.467,6.641-15.613,18.486-23.479,31.77-22.641,21.954,4.5-6.643,44.783-17.908,49.37,0,5.486.578,13.471,2.888,17.4,5.777,10.244,29.463-15.882,44.77-40.532,11.267-13.539,5.2,3.125,1.735,8.937-8.956,17.752-28.6,46.63-49.1,47.936m.865-42.032c5.2-7.847,20.221-27.247,16.464-34.1-1.155-2.107-3.753-1.937-6.354,1.7-8.086,12.4-9.821,19.061-10.109,32.4" transform="translate(136.828 140.528)" fill="#ed6a5b"/>
    <path id="Path_684" data-name="Path 684" d="M218.163,190.954c7.51-8.257,11.555-12.145,17.619-18.7,9.532-10.057,9.532-1.972,6.354,2.921-4.333,6.541-13.864,17.752-20.219,25.227,2.6,6.474,5.49,14.627,6.354,21.409,2.309,16.344-1.155,33.13-13.575,46-21.663,22.3-45.059,18.345-34.949-19.254,4.335-15.491,11.842-27.5,19.063-39.463-2.022-3.974-10.4-24.162-10.976-25.5-3.753-6.847-4.91-23.394-.578-31.379a24.179,24.179,0,0,1,12.616-9.988c.951-9.4,8.838-26.88,12.952-28.595,2.914,1.371,7.714,3.257,11.485,9.942-9.942,5.314-15.479,10.948-21.666,17.992,9.636-2.333,18.687,1.617,17.229,4.635-4.457,9.225-10.31,14.382-14.131,16.331,3.755,8,8.954,20.949,12.42,28.424m-15.02,26.91c-5.2,8.138-11.554,21.965-14.153,33.4-4.334,19.537,0,30.037,12.422,6.474,6.93-13.354,6.064-29.375,1.731-39.875" transform="translate(164.127 134.631)" fill="#ed6a5b"/>
    <path id="Path_685" data-name="Path 685" d="M349.556,189.45c-16.173,28.27-30.039,10.208-32.061-6.768-.868-6.487-1.733-12.688-2.311-18.653-2.02-22.46-5.488-17.8-16.753,1.8-4.91,8.663-10.974,20.132-15.308,28.7-3.177,5.758-4.619,7.458-10.109,9.293-5.2,2.07-7.508.745-8.376-4.878-1.733-7.206-2.89-14.509-4.62-22.87-9.822,13-15.022,31.532-21.952,44.882-1.157,2.228-1.735,3.772-2.6,4.506-6.354,6.607-20.219,4.718-23.105-3.437-2.024-5.13-4.046-10.55-4.335-16.853a171.806,171.806,0,0,1,6.643-54.028c8.378-4.076,16.177-6.32,23.974-1.625-.576,16.273-2.02,32.993-2.6,49.557,4.335-7.984,13.866-25.839,19.063-31.087,5.488-5.592,12.131-5.03,14.733,3.464,1.731,5.763,3.464,11.812,5.486,18.963,7.8-13.508,18.774-34.794,28.6-44.9,7.8-8.309,20.219-14.54,21.948-2.428,2.024,10.62,3.468,20.184,4.625,30.091,3.177,24.278,16.462,10.67,26.282-12.724,4.046-9.378,15.307-9.343,8.665,2.23-4.62,8.611-10.109,17.665-15.886,26.771" transform="translate(192.458 126.168)" fill="#ed6a5b"/>
    <path id="Path_686" data-name="Path 686" d="M285.613,197.654c-4.62-15.072-.287-27.677,1.733-43.63.58-5.879,4.623-10.346,11.554-10.7,0,1.444.58,3.362.291,4.86-.867,11.415-1.155,19.841-1.155,31.106,0,8.087.865,7.069,1.155.664.289-12.47,2.309-19.181,3.175-31.755.291-2.938-.867-5.623,4.623-5.725,2.6,5.607.289,12.37.289,18.724-.578,6.455-.867,12.572-1.157,21,12.133-15.715,18.775-34.5,26.864-51.238,2.311-5.9,4.333-6.832,14.729-5.2-.865,11.417-1.442,23.648-2.886,35.456-4.621,34.031-8.665,136.124-33.8,146.041-9.243,3.075-14.151,2.5-17.908-6.372-2.309-7.1-4.619-14.494-5.2-22.191-.58-17.806,2.022-35.017,6.932-52.634,2.311-7.914,4.042-9.089,12.707-8.881-4.333,27.623-12.707,53.362-2.888,76.178,15.886-42.658,17.908-85.762,23.687-122.306-2.6-.7-10.109,17.092-17.621,25.058-5.488,6.456-23.4,11.634-25.129,1.544" transform="translate(262.46 115.74)" fill="#ed6a5b"/>
  </g>
</svg>
