<?xml version="1.0" encoding="utf-8"?>
<!-- Generator: Adobe Illustrator 24.2.3, SVG Export Plug-In . SVG Version: 6.00 Build 0)  -->
<svg version="1.1" id="Layer_1" xmlns="http://www.w3.org/2000/svg" xmlns:xlink="http://www.w3.org/1999/xlink" x="0px" y="0px"
	 viewBox="0 0 108.6 48.8" style="enable-background:new 0 0 108.6 48.8;" xml:space="preserve">
<g id="Group_195" transform="translate(57.956 0) rotate(90)">
	<path id="Path_754" d="M32.6,43.4c-1.5-28.9-3.3-59.2-1.7-88.1c0.6-11.3-6.3-4.5-6.7,3.1c-1.7,30.3,0,61.7,1.5,91.9
		C26.3,60.6,33,50.1,32.6,43.4"/>
	<path id="Path_755" d="M0.5,35.1l26.7,22.3c1.5,1.2,3.6-0.3,4.3-1.3c5.5-7.4,11-14.9,16.5-22.3c2.3-3.1-1.6-4.9-4-1.8
		c-5.5,7.4-11,14.9-16.5,22.3l4.3-1.3L5.2,30.7C2.9,28.7-1.5,33.5,0.5,35.1"/>
</g>
</svg>
