<?xml version="1.0" encoding="utf-8"?>
<!-- Generator: Adobe Illustrator 24.2.3, SVG Export Plug-In . SVG Version: 6.00 Build 0)  -->
<svg version="1.1" id="Group_197" xmlns="http://www.w3.org/2000/svg" xmlns:xlink="http://www.w3.org/1999/xlink" x="0px" y="0px"
	 viewBox="0 0 43.4 43.4" style="enable-background:new 0 0 43.4 43.4;" xml:space="preserve">
<g id="Group_10" transform="translate(0 0)">
	<path id="Path_31" d="M21.7,0C9.7,0,0,9.7,0,21.7s9.7,21.7,21.7,21.7s21.7-9.7,21.7-21.7S33.7,0,21.7,0 M27.8,12.8
		c0,0.2-0.1,0.3-0.3,0.3h-2.6c-0.6,0-1.2,0.5-1.2,1.2l0,0v2.8h3.7c0.2,0,0.3,0.1,0.3,0.3l0,0l-0.3,3.9c0,0.2-0.2,0.3-0.3,0.3h-3.4
		v12.8c0,0.2-0.1,0.3-0.3,0.3h-4.7c-0.2,0-0.3-0.1-0.3-0.3V21.6h-2.3c-0.2,0-0.3-0.1-0.3-0.3l0,0v-3.9c0-0.2,0.1-0.3,0.3-0.3h2.3
		v-3.7c0-2.6,2.1-4.7,4.7-4.7l0,0h4.4c0.2,0,0.3,0.1,0.3,0.3L27.8,12.8z"/>
</g>
</svg>
